<?xml version="1.0" encoding="utf-8"?>
<!-- Generator: Adobe Illustrator 23.0.1, SVG Export Plug-In . SVG Version: 6.00 Build 0)  -->
<svg version="1.1" id="Calque_1" xmlns="http://www.w3.org/2000/svg" xmlns:xlink="http://www.w3.org/1999/xlink" x="0px" y="0px"
	 viewBox="0 0 2020 1519" style="enable-background:new 0 0 2020 1519;" xml:space="preserve">
<style type="text/css">
	.st0{fill:#31C0B0;}
	.st1{fill:#4D4D4D;}
	.st2{fill:#B3B3B3;}
	.st3{fill:#E6E6E6;}
	.st4{fill:#666666;}
	.st5{fill:#FFFFFF;}
	.st6{fill:#BBBBBB;}
	.st7{fill:#808080;}
	.st8{fill:#C4C4C4;}
	.st9{fill:#29ABE2;}
	.st10{fill:#7FCDEE;}
	.st11{fill:#A9DDF3;}
	.st12{fill:#006837;}
	.st13{fill:#525252;}
	.st14{fill:#AAAAAA;}
	.st15{fill:#009245;}
	.st16{fill:#39B54A;}
	.st17{fill:#8C6239;}
</style>
<rect x="-2.16" y="-1.67" class="st0" width="2020.59" height="854.01"/>
<path class="st1" d="M-29,858.65c26.84-266.16,137.34-438.23,236.79-433.49c181.89,8.66,202.06,339.4,249.42,339.4
	c42.03,0,61.56-112.08,99.45-156.28c56.53-65.95,137.34-91.56,170.49,29.99s159.44,181.54,211.53,179.96
	c52.09-1.58,334.66,0,383.6,0s148.71-200.48,213.11-200.48c113.66,0,119.97,176.8,209.95,189.43S1857.41,375.61,2020,363.7
	l-6.31,494.96H-29z"/>
<g>
	<path class="st2" d="M1772.16,806.56c-49.72-6.98-73.89-64.07-104.75-113.78v0c-21.08,25.14-62.58-23.56-75.21-28.3
		c-12.63-4.74-23.68,4.74-39.46,37.89c-15.79,33.15-85.24,18.94-90.76-0.41c-43.45,54.69-85.89,115.65-112.88,115.65
		c-48.94,0-331.5-1.58-383.6,0c-52.09,1.58-178.38-58.41-211.53-179.96c-33.15-121.55-113.96-95.95-170.49-29.99
		c-37.89,44.2-57.42,156.28-99.45,156.28c-47.36,0-67.53-330.73-249.42-339.4C135.17,419.81,24.67,591.87-2.16,858.04h2020.59
		V363.08C1914.23,364.76,1862.14,819.19,1772.16,806.56z"/>
	<path class="st3" d="M1552.74,702.37c15.79-33.15,26.84-42.62,39.46-37.89c12.63,4.74,54.13,53.44,75.21,28.3v0
		c-24.99-40.25-54.35-75.65-105.2-75.65c-28.88,0-64.89,40.34-100.23,84.83C1467.5,721.32,1536.95,735.52,1552.74,702.37z"/>
</g>
<g>
	<path class="st4" d="M443,143.28c0-49.84,63.3-60.11,85.69-57.03c28.73,3.95,45.87,29.12,46.37,38.42
		c30.24-3.99,55.44,33.89,52.42,70.45c15.63,22.6,5.54,53.17-17.14,50.51c-25.71,1.99-51.41-7.31-57.46-21.27
		c-17.14,30.57-52.92,37.22-75.61,9.3C415.78,284.17,374.45,181.83,443,143.28z"/>
	<g>
		<path class="st5" d="M656.46,181.75c3.02-36.55-22.18-74.43-52.42-70.45c-0.5-9.3-17.64-34.47-46.37-38.42
			c-22.39-3.08-85.69,7.19-85.69,57.03c-27.04,15.21-36.97,40.34-35.32,62.1l0,0c9.51,12.47,26.7,48.58,73.12,19.35
			c22.08,15.28,47.51,25.51,71.32,0.91c0.25-0.43,0.51-0.84,0.76-1.28c0.06,0.13,0.13,0.26,0.19,0.4
			c24.02,12.01,30.89,13.72,36.05,5.13c-1.47,4.98-3.23,9.63-5.14,13.92c8.21,1.82,17.29,2.53,26.36,1.83
			C662,234.91,672.08,204.34,656.46,181.75z"/>
		<path class="st6" d="M582.05,211.38c4.09,8.84,16.09,15.76,30.91,19.04c1.91-4.29,3.68-8.93,5.14-13.92
			C612.94,225.1,606.07,223.39,582.05,211.38z"/>
		<path class="st6" d="M506.25,220.29c22.36,27.51,57.44,21.43,74.85-8.03c-23.82,24.6-49.25,14.37-71.32-0.91
			c-46.42,29.23-63.62-6.88-73.12-19.35l0,0C439.19,225.41,469.02,250.88,506.25,220.29z"/>
	</g>
</g>
<path class="st1" d="M1508.49,887.95c-4.32-27.61-114.83-271.19-198.89-456.27c-25.29-55.68-48.18-106.07-65.06-143.68
	c-73.01-162.66-109.51-196.46-207.79-67.6c-16.56,21.72-33.44,48.25-50.38,78.33c-83.54,148.42-168.3,383.64-222,557.53
	l314.49,78.16C1078.87,934.43,1514.1,923.86,1508.49,887.95z"/>
<g>
	<path class="st7" d="M1532.16,886.37c-4.32-27.61-114.83-271.19-198.89-456.27c-13.94,10.89-37.92,17.57-79.1,6.31
		c-92.66-25.35-67.39-185.9-115.13-171.11c-47.74,14.79-39.31,73.94-70.2,105.63s-39.31-33.8-58.8-73.77
		c-83.54,148.42-168.3,383.64-222,557.53l314.49,78.16C1102.55,932.85,1537.78,922.28,1532.16,886.37z"/>
	<path class="st8" d="M1068.85,370.92c30.89-31.69,22.46-90.84,70.2-105.63c47.74-14.79,22.46,145.76,115.13,171.11
		c41.18,11.27,65.16,4.59,79.1-6.31c-25.29-55.68-48.18-106.07-65.06-143.68c-73.01-162.66-109.51-196.46-207.79-67.6
		c-16.56,21.72-33.44,48.25-50.38,78.33C1029.54,337.12,1037.96,402.61,1068.85,370.92z"/>
</g>
<path class="st9" d="M1075.66,672.43c-23.83,0-149.45-13.1-160.28-19.64c-10.83-6.55,485.17-8.18,487.33-3.27
	s11.28,18.2-101.57,27.92C1188.29,687.16,1075.66,672.43,1075.66,672.43z"/>
<path class="st9" d="M1075.73,667.61c8.55,2.62,34.77-1.6,27.65,55.3c-7.12,56.9,1.04,135.74,1.04,135.74h221
	c0,0,9.36-167.35-13.89-179.5C1287.04,666.36,1075.73,667.61,1075.73,667.61z"/>
<g>
	<path class="st10" d="M1083.9,864.97c0-60.44,14.71-125.66,38.37-108.39s10.76,66.92,25.82,77.71
		c15.06,10.79,10.76-34.54,27.97-32.38s19.36,34.54,30.12,43.17c10.76,8.63-6.45-47.49,12.91-43.17
		c19.36,4.32,45.18-8.63,45.18,41.01s6.45-25.9,27.97-41.01c21.51-15.11,41.08-14.3,36.34,45.69c-4.6,58.32-6.31,45.78-6.31,45.78
		l-103.18-2.97l-90.36-6.48L1083.9,864.97z"/>
	<path class="st11" d="M1109.37,848.78c-4.03-11.85,6.45-64.14,17.21-61.98c10.76,2.16,23.67,64.76,21.51,71.23
		S1117.97,874.07,1109.37,848.78z"/>
	<path class="st11" d="M1176.06,804.07c-8.67,10.15,5.52,24.84,7.63,35.46c4.92,24.76,8.88,42.79,21.57,52.34
		c18.13,13.65,0.92-44.63,0.92-44.63S1188.97,788.96,1176.06,804.07z"/>
	<path class="st11" d="M1243.26,813.64c0,0-4.81,61.66,12.4,81.09c17.21,19.43,12.38-55.38,7.27-68.71
		C1257.81,812.71,1243.76,790.84,1243.26,813.64z"/>
	<path class="st11" d="M1322.52,813.64c0,0-15.22-20.37-15.22,12.01c0,32.38-4.3,60.44,0,69.08
		C1311.6,903.37,1329.14,909.56,1322.52,813.64z"/>
</g>
<rect x="-2.16" y="858.65" class="st12" width="2020.59" height="756.14"/>
<g>
	<path class="st13" d="M1615.81,292.04c-26.39-38.12-86.99-61.58-130.97,13.68c-32.25-15.64-66.46,0-56.69,41.05
		c9.77,41.05,29.32,42.03,56.69,31.28c43.01,34.21,90.9,63.53,140.74-11.73c24.43,12.71,35.19-7.82,35.19-7.82
		c23.46,13.68,51.8-30.3,23.46-35.19C1690.1,292.04,1651.98,253.92,1615.81,292.04z"/>
	<g>
		<path class="st5" d="M1703.16,309.55c5.86-31.28-32.25-69.4-68.42-31.28c-26.39-38.12-86.99-61.58-130.97,13.68
			c-24.83-12.04-50.79-5.52-56.98,16.83c10.15,48.37,34.23,62.12,58.31,46.64c10.32,8.6,36.14,36.14,65.39,37.86
			c46.66,2.74,68.83-41.3,70.55-46.46l3.01,6.42c0.16-0.23,0.31-0.46,0.47-0.69c24.43,12.71,35.19-7.82,35.19-7.82
			C1703.16,358.42,1731.5,314.44,1703.16,309.55z"/>
		<path class="st14" d="M1570.48,393.28c-29.25-1.72-55.06-29.25-65.39-37.86c-24.08,15.48-48.16,1.73-58.31-46.64
			c-1.85,6.69-1.96,14.77,0.29,24.22c9.77,41.05,29.32,42.03,56.69,31.28c42.87,34.1,90.6,63.33,140.28-11.04l-3.01-6.42
			C1639.31,351.99,1617.15,396.03,1570.48,393.28z"/>
	</g>
</g>
<g>
	<path class="st13" d="M977.29,232.89c-25.72-24.57-116.01-24-105.15,48s78.29,78.86,105.15,50.29
		c33.15,4.57,60.58-13.14,58.29-43.43c25.14-9.72,42.29-22.86,27.43-42.29c-14.86-19.43-33.15-49.22-65.15-27.18
		C965.86,240.31,977.29,232.89,977.29,232.89z"/>
	<g>
		<path class="st5" d="M1081.49,232.02c-14.86-19.43-33.15-49.22-65.15-27.18c-12.31,8.47-18.18,12.58-20.76,14.44
			c-24.65-23.18-106.93-23.67-105.85,37.89c0.74,0.35,0.75,0.35,0.75,0.35l-0.74-0.1c0,0.02,0,0.03,0,0.05
			c7.46,31.96,14.18,67.23,64.56,70.59c15.45,1.03,38.63-13.44,40.31-18.47c18.47,8.4,47.02-5.31,57.1-17.77v0
			c1.97-5.21,2.83-11.07,2.35-17.5C1079.2,264.6,1096.35,251.45,1081.49,232.02z"/>
		<path class="st14" d="M890.48,257.52c0,0,0,0-0.75-0.35c0,0.08,0,0.16,0,0.24L890.48,257.52z"/>
		<path class="st14" d="M994.61,309.58c-1.68,5.04-26.87,20.15-40.31,18.47c-46.45-5.81-53.74-36.95-64.56-70.59
			c0.07,3.17,0.35,6.49,0.88,9.99c10.86,72.01,78.29,78.86,105.15,50.29c26.1,3.6,48.65-6.63,55.94-25.93v0
			C1041.63,304.27,1013.08,317.98,994.61,309.58z"/>
	</g>
</g>
<g>
	<path class="st13" d="M1803.81,175.07c-9.76-8.62-44.02-8.42-39.9,16.84s29.71,27.67,39.9,17.64c12.58,1.6,22.99-4.61,22.12-15.24
		c9.54-3.41,16.05-8.02,10.41-14.84s-12.58-17.27-24.72-9.54C1799.47,177.68,1803.81,175.07,1803.81,175.07z"/>
	<g>
		<path class="st5" d="M1843.35,174.77c-5.64-6.82-12.58-17.27-24.72-9.54c-4.67,2.97-6.9,4.41-7.88,5.07
			c-9.35-8.13-40.57-8.3-40.16,13.29c0.28,0.12,0.28,0.12,0.28,0.12l-0.28-0.04c0,0.01,0,0.01,0,0.02
			c2.83,11.21,5.38,23.59,24.5,24.77c5.86,0.36,14.66-4.71,15.3-6.48c7.01,2.95,17.84-1.86,21.67-6.24v0
			c0.75-1.83,1.08-3.88,0.89-6.14C1842.48,186.19,1848.98,181.58,1843.35,174.77z"/>
		<path class="st14" d="M1770.87,183.71c0,0,0,0-0.28-0.12c0,0.03,0,0.06,0,0.09L1770.87,183.71z"/>
		<path class="st14" d="M1810.38,201.98c-0.64,1.77-10.2,7.07-15.3,6.48c-17.63-2.04-20.39-12.96-24.5-24.77
			c0.03,1.11,0.13,2.28,0.33,3.5c4.12,25.26,29.71,27.67,39.9,17.64c9.91,1.26,18.46-2.33,21.23-9.1v0
			C1828.22,200.12,1817.39,204.93,1810.38,201.98z"/>
	</g>
</g>
<path class="st9" d="M1083.9,858.65c-48.94,37.89-131.02,80.51-168.91,208.37c-85.38,288.17-186.71,484.62-383.02,547.77h648.09
	c0,0,157.72-287.14,124.84-530.4c-23.68-175.22,17.36-214.69,20.52-225.74H1083.9z"/>
<path class="st4" d="M161.05,1127.01h242.48c0,0-17.46-98.93-98.93-89.23c-29.1-50.44-93.11-38.8-104.75,0
	C137.77,1037.78,124.2,1107.61,161.05,1127.01z"/>
<path class="st15" d="M178.42,1127.79H420.9c0,0-17.46-98.93-98.93-89.23c-29.1-50.44-93.11-38.8-104.75,0
	C155.14,1038.56,141.56,1108.39,178.42,1127.79z"/>
<path class="st1" d="M241.62,1164.9h286.93c0,0,36.44-108.64-56.93-147.75c-93.37-39.11-129.8,0-150.3,30.42
	C246.18,1010.63,207.46,1071.47,241.62,1164.9z"/>
<path class="st16" d="M262.14,1164.9h286.93c0,0,36.44-113.86-56.93-154.85s-129.8,0-150.3,31.88
	C266.7,1003.22,227.99,1066.98,262.14,1164.9z"/>
<path class="st4" d="M1660.08,1104.91h197.32c0,0-14.21-80.51-80.51-72.61c-23.68-41.04-75.77-31.57-85.24,0
	C1641.14,1032.3,1630.09,1089.13,1660.08,1104.91z"/>
<path class="st15" d="M1683.76,1104.91h197.32c0,0-14.21-80.51-80.51-72.61c-23.68-41.04-75.77-31.57-85.24,0
	C1664.82,1032.3,1653.77,1089.13,1683.76,1104.91z"/>
<path class="st1" d="M1734.28,1138.06h198.9c0,0,25.26-78.93-39.46-107.34c-64.72-28.41-89.98,0-104.19,22.1
	C1737.43,1025.98,1710.6,1070.18,1734.28,1138.06z"/>
<path class="st16" d="M1753.22,1139.64h198.9c0,0,25.26-78.93-39.46-107.34c-64.72-28.41-89.98,0-104.19,22.1
	C1756.38,1027.56,1729.54,1071.76,1753.22,1139.64z"/>
<path class="st1" d="M509.94,712.36c18.28-26.32,45.71-97.1,45.71-97.1l-22.85-13.71c0,0,4.57,22.85-22.85,77.7l-3.89,2.22
	c-0.22-0.76-0.55-1.48-0.68-2.22C495.09,618.71,460,545.26,460,545.26l-41.47,38.01c2.37,20.11,33.94,48.07,35.52,106.48
	c0,0-50.51,7.89-108.65-10.49c-56.82-17.97-77.7-41.14-77.7-41.14l-9.39,18.47c50.28,27.42,154.7,63.14,202.06,66.3
	c0.19,0.01,2.4,84.21-11.05,135.76h52.09C501.4,858.65,512.09,786.79,509.94,712.36C509.94,712.37,509.94,712.37,509.94,712.36z"/>
<path class="st17" d="M524.15,712.36c18.28-26.32,45.71-97.1,45.71-97.1L547,601.55c0,0,4.57,22.85-22.85,77.7l-3.89,2.22
	c-0.22-0.76-0.55-1.48-0.68-2.22c-10.28-60.55-45.37-133.99-45.37-133.99l-41.47,38.01c2.37,20.11,33.94,48.07,35.52,106.48
	c0,0-50.51,7.89-108.65-10.49c-56.82-17.97-77.7-41.14-77.7-41.14l-9.39,18.47c50.28,27.42,154.7,63.14,202.06,66.3
	c0.19,0.01,2.4,84.21-11.05,135.76h52.09C515.61,858.65,526.29,786.79,524.15,712.36C524.15,712.37,524.15,712.37,524.15,712.36z"/>
<path class="st1" d="M351.58,368.24c-81.09,0-123.83,79.59-65.44,115.6c-6.62,75.54,61.16,138.21,86.22,78.29
	c64.21,95.24,95.57,45.86,95.57-14.08c91.67-3.53,137.5-45.83,91.67-98.72c28.21-66.99-23.38-168.89-66.34-117.94
	c-40.08-67.33-124.19-75.63-139.99,0C275.84,320.47,305.74,368.24,351.58,368.24z"/>
<path class="st15" d="M260.86,606.42c-34.77,0-53.09,33.92-28.06,49.27c-2.84,32.2,26.22,58.91,36.97,33.37
	c27.53,40.59,40.97,19.55,40.97-6c39.3-1.5,58.95-19.54,39.3-42.08c12.09-28.55-10.02-71.99-28.44-50.27
	c-17.18-28.7-53.25-32.24-60.02,0C228.39,586.06,241.21,606.42,260.86,606.42z"/>
<path class="st15" d="M569.28,568.19c-15.79-9.47-44.2,7.89-33.15,20.52c-11.05,4.74-20.52,34.73-4.74,23.68
	c4.74,29.99,6.15,58.2,24.68,55.18s13.21-26.27,13.21-39.15c31.57,27.91,45.78-14.46,29.99-17.61
	C619.8,588.72,591.38,535.04,569.28,568.19z"/>
<path class="st15" d="M361.05,365.08c-81.09,0-123.83,79.59-65.44,115.6c-6.62,75.54,61.16,138.21,86.22,78.29
	c64.21,95.24,95.57,45.86,95.57-14.08c91.67-3.53,137.5-45.83,91.67-98.72c28.21-66.99-23.38-168.89-66.34-117.94
	c-40.08-67.33-124.19-75.63-139.99,0C285.32,317.32,315.21,365.08,361.05,365.08z"/>
<path class="st16" d="M346.95,379.19c-49.36,7.05-78.72,50.46-76.38,71.06s27.02,34.71,41.12,27.66
	C304.64,446.18,315.21,389.76,346.95,379.19z"/>
<path class="st16" d="M359.56,456.75c-39.08,35.43-39.1,90.87-24.83,107.54s44.25,14.41,52.43-0.13
	C362.18,540.54,338.02,484.83,359.56,456.75z"/>
<path class="st16" d="M420.17,511.48c-27.49,44.81-17.42,92.2-2,101.16c15.42,8.95,41.04-4.13,45.5-19.59
	C437.68,582.13,406.57,543.48,420.17,511.48z"/>
<path class="st16" d="M508.73,449.8c48.81-9.31,87.34,15.46,90.09,32.08c2.76,16.62-17.38,34.9-32.55,33.67
	C565.33,488.92,541.58,448.49,508.73,449.8z"/>
<path class="st16" d="M389.99,393.66c4.44-37.99-26-70.06-43.88-73.32s-34.98,11.47-32,23.54
	C342.37,346.37,387.75,367.78,389.99,393.66z"/>
<path class="st1" d="M1735.86,629.76c-25.26,33.15-54.26,156.63-49.23,228.28c20.81,0.62,34.52-0.86,34.52-0.86
	c13.13-67.98,9.98-189.53,33.65-224.26C1739.01,620.29,1735.86,629.76,1735.86,629.76z"/>
<path class="st17" d="M1745.33,629.76c-25.26,33.15-54.26,156.63-49.23,228.28c20.81,0.62,34.52-0.86,34.52-0.86
	c13.13-67.98,9.98-189.53,33.65-224.26C1748.48,620.29,1745.33,629.76,1745.33,629.76z"/>
<path class="st15" d="M1773.95,526.72c-36.88-15.22-103.25,12.68-77.44,32.97c-25.81,7.61-47.94,55.79-11.06,38.04
	c11.06,48.19,14.37,93.5,57.64,88.65c43.28-4.85,30.86-42.2,30.86-62.89c73.75,44.85,106.94-23.23,70.06-28.3
	C1891.95,559.69,1825.58,473.46,1773.95,526.72z"/>
<path class="st1" d="M690.8,393.69c189.03-64.86,349.11,71.51,478.54,83.15c145.93,13.13,287.8-59.87,311.65-78.16v104.77
	c0,0-185.63,88.14-330.38,69.85c-144.75-18.29-323.57-131.38-459.81-96.45V393.69z"/>
<path class="st12" d="M701.02,380.39c189.03-64.86,349.11,71.51,478.54,83.15c145.93,13.13,287.8-59.87,311.65-78.16v104.77
	c0,0-185.63,88.14-330.38,69.85c-144.75-18.29-323.57-131.38-459.81-96.45V380.39z"/>
<g>
	<g>
		<path class="st5" d="M848.68,440.51c-1.26-1.02-2.12-2.26-2.57-3.74c-0.45-1.47-0.46-3.13-0.04-4.97l4.69-20.44
			c0.42-1.84,1.16-3.33,2.21-4.47c1.05-1.14,2.36-1.89,3.94-2.24s3.36-0.3,5.36,0.15c1.99,0.46,3.62,1.19,4.89,2.2
			c1.27,1.01,2.12,2.25,2.57,3.74c0.45,1.48,0.46,3.14,0.04,4.98l-4.69,20.44c-0.42,1.84-1.16,3.32-2.2,4.46
			c-1.05,1.13-2.36,1.88-3.94,2.24c-1.58,0.36-3.37,0.32-5.36-0.14C851.57,442.26,849.94,441.52,848.68,440.51z M856.78,436.38
			c0.53-0.15,0.96-0.43,1.31-0.86c0.35-0.42,0.6-0.97,0.76-1.65l4.32-18.85c0.15-0.66,0.16-1.26,0.03-1.79
			c-0.13-0.53-0.4-0.98-0.81-1.34c-0.41-0.36-0.94-0.62-1.59-0.77c-0.65-0.15-1.23-0.15-1.75,0c-0.52,0.15-0.95,0.44-1.3,0.86
			c-0.35,0.42-0.6,0.97-0.75,1.63l-4.32,18.85c-0.16,0.68-0.17,1.29-0.04,1.82c0.13,0.53,0.39,0.98,0.8,1.34
			c0.4,0.36,0.93,0.62,1.57,0.76C855.66,436.53,856.25,436.53,856.78,436.38z M853.37,433.61l5.18-3.73l8.61,12.97l-5.17,3.76
			L853.37,433.61z"/>
		<path class="st5" d="M871.65,445.9c-1.14-1.08-1.87-2.41-2.21-3.98c-0.33-1.57-0.25-3.33,0.25-5.28l7.22-27.96l6.32,1.63
			l-7.27,28.14c-0.23,0.9-0.19,1.65,0.12,2.26c0.31,0.61,0.86,1.02,1.63,1.22c0.79,0.21,1.48,0.12,2.06-0.27
			c0.58-0.38,0.98-1.02,1.21-1.92l7.27-28.14l6.32,1.63l-7.22,27.96c-0.5,1.95-1.29,3.53-2.35,4.74c-1.06,1.21-2.35,2.02-3.87,2.41
			c-1.52,0.39-3.2,0.35-5.04-0.13C874.27,447.75,872.78,446.97,871.65,445.9z"/>
		<path class="st5" d="M894.77,452.82l-6.27-1.72l10.08-36.75l6.27,1.72L894.77,452.82z"/>
		<path class="st5" d="M914.61,418.78l6.61,1.94l-3.9,26.27l10.89-24.23l6.61,1.94l-17.45,34.59l-6.74-1.97L914.61,418.78z"/>
		<path class="st5" d="M930.72,462.6c-1.19-1.1-1.95-2.41-2.29-3.91c-0.34-1.5-0.24-3.16,0.32-4.96l6.16-20.04
			c0.55-1.8,1.4-3.24,2.53-4.3c1.13-1.06,2.49-1.71,4.09-1.95s3.38-0.06,5.33,0.54c1.95,0.6,3.53,1.45,4.72,2.54
			c1.19,1.1,1.95,2.4,2.29,3.91c0.34,1.51,0.23,3.17-0.32,4.97l-6.16,20.04c-0.55,1.8-1.4,3.23-2.52,4.28
			c-1.13,1.05-2.49,1.7-4.09,1.95s-3.38,0.07-5.33-0.53C933.48,464.55,931.9,463.7,930.72,462.6z M939.09,459.07
			c0.54-0.11,0.99-0.36,1.37-0.76c0.38-0.4,0.67-0.93,0.87-1.6l5.68-18.49c0.2-0.65,0.25-1.25,0.17-1.79c-0.09-0.54-0.33-1-0.71-1.4
			s-0.89-0.69-1.53-0.88s-1.22-0.24-1.74-0.12s-0.98,0.37-1.36,0.76c-0.38,0.4-0.67,0.92-0.87,1.57l-5.68,18.49
			c-0.21,0.67-0.26,1.27-0.17,1.81c0.09,0.54,0.32,1,0.7,1.39s0.88,0.68,1.51,0.88C937.97,459.14,938.56,459.18,939.09,459.07z"/>
		<path class="st5" d="M963.63,458.29l-4.42,13.91l-6.19-1.97l4.42-13.91l0.33-24.56l6.44,2.05l-1.39,16.11l8.03-14l6.44,2.05
			L963.63,458.29z"/>
		<path class="st5" d="M985.85,440.76l4.33,1.42l-3.19,39.04l-6.13-2l3.07-25.27l-12.44,22.21l-6.13-2L985.85,440.76z
			 M974.97,464.66l9.86,3.22l-1.89,5.78l-9.86-3.22L974.97,464.66z"/>
		<path class="st5" d="M1014.19,468.63l-3.62,10.81c-0.63,1.89-1.53,3.4-2.69,4.52c-1.16,1.12-2.53,1.82-4.11,2.09
			c-1.58,0.27-3.31,0.09-5.18-0.53c-1.91-0.64-3.42-1.53-4.55-2.68c-1.13-1.15-1.83-2.51-2.1-4.08c-0.28-1.57-0.11-3.27,0.51-5.11
			l6.27-18.74c0.65-1.94,1.56-3.49,2.73-4.65c1.17-1.16,2.55-1.89,4.14-2.18c1.59-0.29,3.32-0.12,5.19,0.51
			c1.84,0.62,3.3,1.5,4.38,2.65c1.08,1.15,1.74,2.53,1.98,4.12c0.24,1.59,0.04,3.33-0.59,5.22l-0.93,2.78l-6.34-2.12l0.93-2.78
			c0.19-0.58,0.26-1.11,0.21-1.6c-0.06-0.49-0.24-0.91-0.53-1.26c-0.3-0.35-0.7-0.61-1.19-0.77c-0.55-0.18-1.06-0.22-1.55-0.11
			s-0.92,0.37-1.29,0.76c-0.37,0.39-0.66,0.9-0.87,1.53l-6.27,18.74c-0.17,0.51-0.21,1-0.12,1.47c0.09,0.46,0.32,0.87,0.68,1.22
			c0.36,0.35,0.83,0.62,1.41,0.82c0.6,0.2,1.15,0.27,1.66,0.2c0.51-0.07,0.95-0.27,1.32-0.61c0.37-0.34,0.65-0.79,0.85-1.38
			l1.66-4.95l-3.03-1.02l1.98-5.91L1014.19,468.63z"/>
		<path class="st5" d="M1024.31,453.55l6.15,2.1l-12.29,36.07l-6.15-2.1L1024.31,453.55z M1016.79,484.54l13.3,4.53l-2.05,6
			l-13.3-4.53L1016.79,484.54z M1021.88,469.64l12.06,4.11l-2.04,5.98l-12.06-4.11L1021.88,469.64z M1027.04,454.48l13.3,4.53
			l-2.04,6l-13.3-4.53L1027.04,454.48z"/>
		<path class="st5" d="M1057.97,465.1l4.31,1.5l-3.91,38.98l-6.09-2.12l3.54-25.21l-12.85,21.98l-6.09-2.11L1057.97,465.1z
			 M1046.66,488.8l9.8,3.4l-2,5.74l-9.8-3.4L1046.66,488.8z M1055.43,455.15l6.02-2.79l4.04,8.67l-5.21,2.38L1055.43,455.15z"/>
		<path class="st5" d="M1080.74,473.17l6.18,2.09l-12.2,36.1l-6.18-2.09L1080.74,473.17z M1074.03,504.67l5.41,1.83
			c0.76,0.26,1.42,0.25,1.98-0.01c0.56-0.26,0.96-0.76,1.21-1.49l1.64-4.84c0.2-0.6,0.28-1.14,0.23-1.62s-0.22-0.91-0.53-1.26
			c-0.31-0.35-0.72-0.62-1.25-0.8l-5.31-1.79l1.93-5.71l5.16,1.74c0.73,0.25,1.37,0.21,1.94-0.12c0.56-0.33,0.99-0.92,1.28-1.78
			l1.31-3.87c0.25-0.73,0.23-1.36-0.03-1.91c-0.27-0.54-0.76-0.93-1.47-1.17l-5.19-1.75l1.95-5.76l5.81,1.96
			c1.62,0.55,2.91,1.31,3.88,2.28s1.56,2.12,1.78,3.44s0.07,2.77-0.46,4.34l-1.31,3.87c-0.37,1.09-0.9,1.99-1.6,2.68
			c-0.7,0.7-1.53,1.18-2.5,1.45c-0.97,0.27-2.04,0.31-3.21,0.12c1.15,0.57,2.06,1.28,2.73,2.11c0.67,0.83,1.08,1.77,1.24,2.81
			c0.16,1.04,0.04,2.15-0.36,3.32l-1.66,4.92c-0.54,1.59-1.29,2.85-2.27,3.77c-0.98,0.92-2.14,1.49-3.49,1.69s-2.83,0.03-4.43-0.52
			l-6.36-2.15L1074.03,504.67z"/>
		<path class="st5" d="M1095.81,517.41c-1.22-1.07-2.03-2.35-2.42-3.84c-0.39-1.49-0.33-3.15,0.16-4.97l5.53-20.22
			c0.5-1.82,1.29-3.28,2.39-4.37c1.1-1.09,2.44-1.79,4.03-2.08c1.59-0.29,3.37-0.16,5.34,0.38c1.97,0.54,3.57,1.34,4.79,2.4
			c1.22,1.06,2.03,2.34,2.42,3.84c0.39,1.5,0.33,3.16-0.17,4.98l-5.53,20.22c-0.5,1.82-1.29,3.27-2.39,4.36
			c-1.09,1.09-2.44,1.78-4.03,2.08c-1.59,0.3-3.38,0.18-5.35-0.36S1097.03,518.48,1095.81,517.41z M1104.07,513.63
			c0.53-0.13,0.98-0.39,1.35-0.8c0.36-0.41,0.64-0.95,0.82-1.62l5.1-18.66c0.18-0.66,0.22-1.25,0.11-1.79
			c-0.11-0.54-0.36-0.99-0.75-1.37c-0.39-0.38-0.91-0.66-1.55-0.83s-1.22-0.2-1.75-0.07c-0.52,0.13-0.97,0.4-1.33,0.8
			c-0.37,0.41-0.64,0.94-0.82,1.6l-5.1,18.66c-0.18,0.67-0.22,1.28-0.12,1.82c0.11,0.54,0.35,0.99,0.74,1.37
			c0.39,0.38,0.9,0.65,1.54,0.83C1102.95,513.73,1103.54,513.75,1104.07,513.63z"/>
		<path class="st5" d="M1123.74,486.08l6.24,1.26l-7.57,37.37l-6.24-1.26L1123.74,486.08z M1123.46,502.12l6.73,1.36
			c0.55,0.11,1.04,0.11,1.49-0.01c0.44-0.12,0.8-0.34,1.08-0.66c0.28-0.33,0.47-0.75,0.58-1.26l0.84-4.16
			c0.12-0.56,0.11-1.07-0.01-1.53c-0.12-0.45-0.36-0.83-0.72-1.12s-0.81-0.5-1.36-0.61l-6.73-1.36l1.24-6.11l6.34,1.28
			c2.02,0.41,3.68,1.09,4.98,2.04c1.3,0.95,2.19,2.14,2.69,3.57c0.49,1.43,0.56,3.03,0.2,4.81l-0.88,4.37
			c-0.37,1.83-1.07,3.33-2.08,4.48c-1.02,1.16-2.32,1.93-3.89,2.33s-3.37,0.39-5.37-0.02l-6.34-1.29L1123.46,502.12z
			 M1127.64,508.13l6.07,0l2.29,19.34l-6.83-1.38L1127.64,508.13z"/>
		<path class="st5" d="M1146.61,490.6l6.44,0.88l-5.17,37.75l-6.44-0.88L1146.61,490.6z M1146.57,522.76l4.83,0.66
			c0.87,0.12,1.57-0.05,2.11-0.52c0.54-0.46,0.88-1.17,1-2.12l2.65-19.37c0.13-0.95,0-1.72-0.4-2.32c-0.39-0.59-1.03-0.95-1.89-1.07
			l-4.83-0.66l0.85-6.18l5.48,0.75c1.8,0.25,3.29,0.79,4.48,1.63c1.19,0.84,2.04,1.94,2.54,3.31s0.63,2.93,0.39,4.7l-2.85,20.82
			c-0.24,1.77-0.79,3.24-1.64,4.42c-0.85,1.18-1.96,2.01-3.34,2.5c-1.38,0.49-2.97,0.61-4.77,0.37l-5.45-0.75L1146.57,522.76z"/>
		<path class="st5" d="M1176.23,494.19l6.49,0.37l-2.17,38.04l-6.49-0.37L1176.23,494.19z M1178.73,526.25l4.87,0.28
			c0.87,0.05,1.56-0.18,2.06-0.68c0.5-0.5,0.78-1.24,0.83-2.2l1.11-19.52c0.05-0.96-0.14-1.72-0.58-2.28
			c-0.44-0.56-1.1-0.86-1.97-0.91l-4.87-0.28l0.36-6.23l5.52,0.31c1.81,0.1,3.35,0.53,4.6,1.27c1.25,0.75,2.18,1.78,2.79,3.1
			c0.61,1.32,0.86,2.87,0.76,4.65l-1.2,20.98c-0.1,1.78-0.53,3.29-1.28,4.53c-0.75,1.24-1.8,2.16-3.14,2.76
			c-1.34,0.6-2.91,0.84-4.73,0.74l-5.5-0.31L1178.73,526.25z"/>
		<path class="st5" d="M1202.24,532.7c-1.37-0.76-2.41-1.87-3.12-3.31c-0.71-1.44-1.07-3.17-1.06-5.18l0.09-28.88l6.53,0.02
			l-0.09,29.06c0,0.93,0.22,1.65,0.67,2.16c0.45,0.52,1.08,0.78,1.88,0.78c0.82,0,1.46-0.25,1.93-0.77c0.46-0.51,0.7-1.23,0.7-2.16
			l0.09-29.06l6.53,0.02l-0.09,28.88c-0.01,2.01-0.37,3.73-1.1,5.17c-0.73,1.44-1.78,2.54-3.15,3.29s-3.01,1.13-4.92,1.13
			C1205.23,533.85,1203.61,533.47,1202.24,532.7z"/>
		<path class="st5" d="M1227.52,495.03l6.51-0.41l2.42,38.03l-6.51,0.41L1227.52,495.03z M1233.26,526.73l5.7-0.36
			c0.8-0.05,1.41-0.3,1.83-0.76c0.42-0.46,0.6-1.07,0.55-1.83l-0.33-5.1c-0.04-0.63-0.17-1.16-0.4-1.59
			c-0.23-0.43-0.55-0.75-0.97-0.96s-0.9-0.3-1.46-0.26l-5.6,0.36l-0.38-6.02l5.44-0.35c0.77-0.05,1.35-0.33,1.75-0.85
			c0.4-0.52,0.57-1.23,0.51-2.13l-0.26-4.08c-0.05-0.77-0.3-1.35-0.75-1.75c-0.45-0.4-1.06-0.58-1.81-0.53l-5.47,0.35l-0.39-6.07
			l6.12-0.39c1.71-0.11,3.19,0.1,4.45,0.64c1.26,0.53,2.24,1.37,2.96,2.5c0.71,1.14,1.12,2.53,1.22,4.19l0.26,4.08
			c0.07,1.15-0.08,2.18-0.46,3.09c-0.38,0.91-0.97,1.67-1.76,2.29c-0.79,0.62-1.77,1.06-2.92,1.33c1.28,0.09,2.39,0.4,3.33,0.92
			c0.93,0.52,1.67,1.23,2.21,2.13c0.54,0.9,0.85,1.97,0.93,3.21l0.33,5.18c0.11,1.67-0.12,3.12-0.67,4.35
			c-0.55,1.23-1.41,2.19-2.59,2.88c-1.17,0.7-2.6,1.1-4.29,1.21l-6.7,0.43L1233.26,526.73z"/>
		<path class="st5" d="M1256.5,492.76l4.53-0.5l13.23,36.87l-6.41,0.71l-7.65-24.28l-2.15,25.37l-6.41,0.71L1256.5,492.76z
			 M1256.49,519.02l10.31-1.14l0.67,6.04l-10.32,1.14L1256.49,519.02z"/>
		<path class="st5" d="M1269.68,491.26l18.87-2.84l0.93,6.17l-18.87,2.84L1269.68,491.26z M1276.38,493.49l6.43-0.97l5.2,34.52
			l-6.43,0.97L1276.38,493.49z"/>
		<path class="st5" d="M1290.07,488.13l6.39-1.18l6.93,37.47l-6.39,1.18L1290.07,488.13z M1292.91,487.61l13.81-2.55l1.15,6.24
			l-13.81,2.55L1292.91,487.61z M1295.82,503.35l12.52-2.32l1.15,6.21l-12.52,2.32L1295.82,503.35z M1298.68,518.84l13.81-2.55
			l1.15,6.24l-13.81,2.55L1298.68,518.84z"/>
		<path class="st5" d="M1316.59,482.92l4.45-0.98l17.1,35.24l-6.29,1.39l-10.2-23.32l0.58,25.45l-6.29,1.39L1316.59,482.92z
			 M1319.38,509.04l10.13-2.24l1.31,5.94l-10.13,2.24L1319.38,509.04z"/>
		<path class="st5" d="M1345.12,514.64c-1.52-0.4-2.8-1.2-3.85-2.42c-1.05-1.22-1.83-2.8-2.32-4.75l-7.15-27.98l6.32-1.62l7.2,28.16
			c0.23,0.9,0.63,1.54,1.2,1.93c0.57,0.39,1.24,0.48,2.02,0.28c0.8-0.2,1.35-0.61,1.67-1.23c0.32-0.61,0.37-1.37,0.14-2.27
			l-7.2-28.16l6.32-1.62l7.15,27.98c0.5,1.95,0.57,3.71,0.23,5.28c-0.35,1.58-1.09,2.9-2.23,3.98s-2.63,1.85-4.48,2.32
			C1348.31,515,1346.64,515.03,1345.12,514.64z"/>
		<path class="st5" d="M1370.41,492.07c-0.17-1.71-0.18-3.13-0.05-4.26c0.13-1.13,0.35-2.42,0.66-3.85
			c0.21-0.97,0.36-1.77,0.46-2.39s0.13-1.31,0.09-2.06c-0.04-0.75-0.18-1.56-0.44-2.41l-0.09-0.3c-0.25-0.84-0.62-1.42-1.13-1.76
			c-0.51-0.33-1.12-0.39-1.84-0.18c-0.67,0.2-1.12,0.61-1.35,1.23c-0.23,0.62-0.21,1.39,0.06,2.29l0.72,2.46l-6.08,1.79l-0.72-2.46
			c-0.5-1.69-0.6-3.23-0.31-4.62c0.29-1.39,0.96-2.58,1.99-3.58c1.04-1,2.41-1.75,4.12-2.25c1.76-0.52,3.35-0.66,4.77-0.42
			c1.42,0.24,2.62,0.84,3.62,1.82c1,0.97,1.73,2.27,2.21,3.9l0.09,0.3c0.36,1.22,0.58,2.32,0.65,3.28c0.07,0.96,0.07,1.8-0.02,2.52
			c-0.09,0.72-0.26,1.59-0.5,2.61c-0.3,1.26-0.51,2.38-0.62,3.37c-0.11,0.99-0.09,2.24,0.06,3.75c0.15,1.51,0.53,3.29,1.13,5.34
			l-6.24,1.83C1370.99,495.76,1370.58,493.78,1370.41,492.07z M1372.61,501.27l6.24-1.83l1.83,6.24l-6.24,1.83L1372.61,501.27z"/>
	</g>
</g>
</svg>
