<?xml version="1.0" encoding="utf-8"?>
<!-- Generator: Adobe Illustrator 23.0.1, SVG Export Plug-In . SVG Version: 6.00 Build 0)  -->
<svg version="1.1" id="Calque_1" xmlns="http://www.w3.org/2000/svg" xmlns:xlink="http://www.w3.org/1999/xlink" x="0px" y="0px"
	 viewBox="0 0 1366 768" style="enable-background:new 0 0 1366 768;" xml:space="preserve">
<style type="text/css">
	.st0{fill:#F7931E;}
	.st1{fill:#FFFFFF;}
</style>
<path class="st0" d="M786.5,422h-206c-20.71,0-37.5-16.79-37.5-37.5v0c0-20.71,16.79-37.5,37.5-37.5h206
	c20.71,0,37.5,16.79,37.5,37.5v0C824,405.21,807.21,422,786.5,422z"/>
<g>
	<g>
		<path class="st1" d="M574.85,378.64h2.09v14.91h-2.09V378.64z M576.26,391.56h3.37c1.1,0,1.95-0.29,2.56-0.86
			c0.61-0.57,0.91-1.38,0.91-2.41v-4.39c0-1.04-0.3-1.84-0.91-2.42c-0.6-0.57-1.46-0.86-2.56-0.86h-3.37v-1.99h3.31
			c1.2,0,2.22,0.21,3.07,0.63s1.49,1.03,1.94,1.82c0.44,0.8,0.67,1.76,0.67,2.89v4.22c0,1.13-0.22,2.09-0.67,2.89
			c-0.44,0.8-1.09,1.41-1.94,1.83c-0.85,0.42-1.88,0.63-3.07,0.63h-3.3V391.56z"/>
		<path class="st1" d="M591.3,393.7c0,0-0.35-0.19-1.04-0.55s-1.23-0.91-1.59-1.63c-0.37-0.71-0.55-1.58-0.55-2.59v-1.2
			c0-1.05,0.18-1.95,0.53-2.7c0.35-0.75,0.86-1.31,1.53-1.7c0.67-0.39,1.48-0.58,2.42-0.58c0.89,0,1.65,0.22,2.28,0.67
			s1.11,1.09,1.44,1.93c0.33,0.84,0.5,1.85,0.5,3.03v0.7h-7.18v-1.68h5.19c-0.06-0.87-0.29-1.54-0.67-2.03
			c-0.39-0.48-0.9-0.72-1.55-0.72c-0.79,0-1.41,0.26-1.84,0.78c-0.43,0.52-0.65,1.25-0.65,2.2v1.35c0,0.88,0.23,1.56,0.7,2.03
			s1.12,0.71,1.98,0.71c0.42,0,0.84-0.08,1.26-0.26s0.79-0.41,1.12-0.72l1.38,1.37c-0.53,0.51-1.12,0.9-1.77,1.17
			c-0.66,0.28-1.32,0.42-1.98,0.42C591.79,393.7,591.3,393.7,591.3,393.7z M591.33,379.8l2.93-3.64l1.51,1.25l-3.13,3.45
			L591.33,379.8z"/>
		<path class="st1" d="M599.68,382.9h2.09v10.64h-2.09V382.9z M606.04,387.1c0-0.75-0.18-1.33-0.55-1.74s-0.89-0.62-1.57-0.62
			c-0.68,0-1.21,0.18-1.58,0.54c-0.37,0.36-0.56,0.87-0.56,1.53l-0.21-2.05c0.33-0.64,0.76-1.14,1.29-1.49
			c0.53-0.35,1.12-0.52,1.76-0.52c0.75,0,1.38,0.17,1.91,0.51c0.53,0.34,0.93,0.83,1.21,1.48c0.28,0.65,0.42,1.43,0.42,2.35v6.46
			h-2.09V387.1z M612.4,387.1c0-0.75-0.2-1.33-0.58-1.74c-0.39-0.41-0.94-0.62-1.64-0.62c-0.65,0-1.15,0.2-1.51,0.6
			s-0.53,0.96-0.53,1.68l-0.42-2.05c0.33-0.7,0.78-1.25,1.33-1.64c0.55-0.39,1.16-0.58,1.82-0.58c0.77,0,1.42,0.17,1.96,0.51
			c0.54,0.34,0.96,0.83,1.24,1.48c0.28,0.65,0.43,1.43,0.43,2.35v6.46h-2.09V387.1z"/>
		<path class="st1" d="M618.13,392.89c-0.65-0.54-0.97-1.37-0.97-2.48c0-1.05,0.3-1.84,0.89-2.37c0.6-0.53,1.49-0.79,2.7-0.79h3.03
			l0.14,1.68h-3.16c-0.55,0-0.96,0.12-1.22,0.36c-0.27,0.24-0.41,0.61-0.41,1.11c0,0.54,0.18,0.94,0.54,1.2
			c0.36,0.26,0.9,0.39,1.64,0.39c0.8,0,1.4-0.08,1.79-0.26c0.39-0.17,0.59-0.44,0.59-0.8l0.22,1.5c-0.19,0.29-0.41,0.52-0.68,0.71
			c-0.27,0.19-0.58,0.32-0.94,0.42c-0.36,0.09-0.75,0.14-1.2,0.14C619.76,393.7,618.78,393.43,618.13,392.89z M623.67,386.8
			c0-0.7-0.19-1.24-0.56-1.63c-0.37-0.39-0.9-0.58-1.58-0.58c-0.42,0-0.84,0.06-1.25,0.19c-0.41,0.13-0.77,0.31-1.08,0.54
			l-1.53-1.05c0.4-0.48,0.94-0.86,1.59-1.13c0.66-0.27,1.39-0.4,2.2-0.4c0.88,0,1.64,0.16,2.27,0.47c0.63,0.31,1.11,0.76,1.44,1.35
			c0.33,0.59,0.49,1.3,0.49,2.14v6.84h-1.99V386.8z"/>
		<path class="st1" d="M628.84,382.9h2.09v10.64h-2.09V382.9z M634,384.91c-0.28-0.12-0.61-0.17-0.97-0.17
			c-0.66,0-1.18,0.18-1.54,0.55c-0.37,0.37-0.55,0.87-0.55,1.52l-0.21-2.05c0.33-0.64,0.75-1.13,1.27-1.48
			c0.52-0.35,1.09-0.53,1.72-0.53c0.48,0,0.92,0.07,1.32,0.21c0.39,0.14,0.74,0.35,1.03,0.62l-1.36,1.85
			C634.51,385.2,634.28,385.03,634,384.91z"/>
		<path class="st1" d="M637.8,382.9h2.09v10.64h-2.09V382.9z M642.96,384.91c-0.28-0.12-0.61-0.17-0.97-0.17
			c-0.66,0-1.18,0.18-1.54,0.55c-0.37,0.37-0.55,0.87-0.55,1.52l-0.21-2.05c0.33-0.64,0.75-1.13,1.27-1.48
			c0.52-0.35,1.09-0.53,1.72-0.53c0.48,0,0.92,0.07,1.32,0.21c0.39,0.14,0.74,0.35,1.03,0.62l-1.36,1.85
			C643.47,385.2,643.24,385.03,642.96,384.91z"/>
		<path class="st1" d="M649.65,393.7c0,0-0.35-0.19-1.04-0.55s-1.23-0.91-1.59-1.63c-0.37-0.71-0.55-1.58-0.55-2.59v-1.2
			c0-1.05,0.18-1.95,0.53-2.7c0.35-0.75,0.86-1.31,1.53-1.7c0.67-0.39,1.48-0.58,2.42-0.58c0.89,0,1.65,0.22,2.28,0.67
			s1.11,1.09,1.44,1.93c0.33,0.84,0.5,1.85,0.5,3.03v0.7h-7.18v-1.68h5.19c-0.06-0.87-0.29-1.54-0.67-2.03
			c-0.39-0.48-0.9-0.72-1.55-0.72c-0.79,0-1.41,0.26-1.84,0.78c-0.43,0.52-0.65,1.25-0.65,2.2v1.35c0,0.88,0.23,1.56,0.7,2.03
			s1.12,0.71,1.98,0.71c0.42,0,0.84-0.08,1.26-0.26s0.79-0.41,1.12-0.72l1.38,1.37c-0.53,0.51-1.12,0.9-1.77,1.17
			c-0.66,0.28-1.32,0.42-1.98,0.42C650.14,393.7,649.65,393.7,649.65,393.7z"/>
		<path class="st1" d="M658.03,382.9h2.09v10.64h-2.09V382.9z M663.18,384.91c-0.28-0.12-0.61-0.17-0.97-0.17
			c-0.66,0-1.18,0.18-1.54,0.55c-0.37,0.37-0.55,0.87-0.55,1.52l-0.21-2.05c0.33-0.64,0.75-1.13,1.27-1.48
			c0.52-0.35,1.09-0.53,1.72-0.53c0.48,0,0.92,0.07,1.32,0.21c0.39,0.14,0.74,0.35,1.03,0.62l-1.36,1.85
			C663.7,385.2,663.46,385.03,663.18,384.91z"/>
		<path class="st1" d="M672.67,390.8c0,0.26,0.06,0.46,0.17,0.6c0.11,0.14,0.27,0.21,0.48,0.21h0.98v1.99h-1.23
			c-0.79,0-1.41-0.25-1.84-0.74c-0.43-0.49-0.65-1.19-0.65-2.08v-12.14h2.09V390.8z"/>
		<path class="st1" d="M675.84,378.64h2.09v2.09l-2.09,2.07V378.64z"/>
		<path class="st1" d="M683.27,393.7c0,0-0.35-0.19-1.04-0.55s-1.23-0.91-1.59-1.63c-0.37-0.71-0.55-1.58-0.55-2.59v-1.2
			c0-1.05,0.18-1.95,0.53-2.7c0.35-0.75,0.86-1.31,1.53-1.7c0.67-0.39,1.48-0.58,2.42-0.58c0.89,0,1.65,0.22,2.28,0.67
			s1.11,1.09,1.44,1.93c0.33,0.84,0.5,1.85,0.5,3.03v0.7h-7.18v-1.68h5.19c-0.06-0.87-0.29-1.54-0.67-2.03
			c-0.39-0.48-0.9-0.72-1.55-0.72c-0.79,0-1.41,0.26-1.84,0.78c-0.43,0.52-0.65,1.25-0.65,2.2v1.35c0,0.88,0.23,1.56,0.7,2.03
			s1.12,0.71,1.98,0.71c0.42,0,0.84-0.08,1.26-0.26s0.79-0.41,1.12-0.72l1.38,1.37c-0.53,0.51-1.12,0.9-1.77,1.17
			c-0.66,0.28-1.32,0.42-1.98,0.42C683.76,393.7,683.27,393.7,683.27,393.7z"/>
		<path class="st1" d="M694.64,387.67l1,1.93l-2.71,3.95h-2.32L694.64,387.67z M694.7,388.71l-3.92-5.8h2.33l3.05,4.77l4.03,5.88
			h-2.32L694.7,388.71z M695.38,386.68l2.33-3.77h2.33l-3.77,5.74L695.38,386.68z"/>
		<path class="st1" d="M702.51,382.9h2.09v14.97h-2.09V382.9z M705.54,393.22c-0.49-0.32-0.85-0.77-1.09-1.35l0.14-2.22
			c0,0.46,0.08,0.85,0.25,1.17s0.4,0.57,0.71,0.74c0.31,0.17,0.69,0.26,1.13,0.26c0.69,0,1.23-0.21,1.6-0.63
			c0.38-0.42,0.57-1.01,0.57-1.78v-2.31c0-0.78-0.19-1.38-0.57-1.82c-0.38-0.43-0.91-0.65-1.6-0.65c-0.44,0-0.82,0.08-1.13,0.25
			c-0.31,0.16-0.55,0.4-0.71,0.72c-0.16,0.32-0.25,0.7-0.25,1.14l-0.21-2.05c0.32-0.62,0.74-1.1,1.26-1.44
			c0.52-0.34,1.1-0.51,1.73-0.51c0.75,0,1.4,0.17,1.93,0.51c0.54,0.34,0.94,0.83,1.23,1.48c0.28,0.65,0.42,1.43,0.42,2.35v2.32
			c0,0.9-0.14,1.67-0.43,2.32s-0.71,1.13-1.26,1.47c-0.55,0.34-1.22,0.51-1.99,0.51C706.61,393.7,706.03,393.54,705.54,393.22z"/>
		<path class="st1" d="M716.81,393.7c0,0-0.35-0.19-1.04-0.55s-1.23-0.91-1.59-1.63c-0.37-0.71-0.55-1.58-0.55-2.59v-1.2
			c0-1.05,0.18-1.95,0.53-2.7c0.35-0.75,0.86-1.31,1.53-1.7c0.67-0.39,1.48-0.58,2.42-0.58c0.89,0,1.65,0.22,2.28,0.67
			s1.11,1.09,1.44,1.93c0.33,0.84,0.5,1.85,0.5,3.03v0.7h-7.18v-1.68h5.19c-0.06-0.87-0.29-1.54-0.67-2.03
			c-0.39-0.48-0.9-0.72-1.55-0.72c-0.79,0-1.41,0.26-1.84,0.78c-0.43,0.52-0.65,1.25-0.65,2.2v1.35c0,0.88,0.23,1.56,0.7,2.03
			s1.12,0.71,1.98,0.71c0.42,0,0.84-0.08,1.26-0.26s0.79-0.41,1.12-0.72l1.38,1.37c-0.53,0.51-1.12,0.9-1.77,1.17
			c-0.66,0.28-1.32,0.42-1.98,0.42C717.3,393.7,716.81,393.7,716.81,393.7z M716.84,379.8l2.93-3.64l1.51,1.25l-3.13,3.45
			L716.84,379.8z"/>
		<path class="st1" d="M725.19,382.9h2.09v10.64h-2.09V382.9z M730.35,384.91c-0.28-0.12-0.61-0.17-0.97-0.17
			c-0.66,0-1.18,0.18-1.54,0.55c-0.37,0.37-0.55,0.87-0.55,1.52l-0.21-2.05c0.33-0.64,0.75-1.13,1.27-1.48
			c0.52-0.35,1.09-0.53,1.72-0.53c0.48,0,0.92,0.07,1.32,0.21c0.39,0.14,0.74,0.35,1.03,0.62l-1.36,1.85
			C730.86,385.2,730.63,385.03,730.35,384.91z"/>
		<path class="st1" d="M734.15,378.64h2.09v2.09h-2.09V378.64z M734.15,382.9h2.09v10.64h-2.09V382.9z"/>
		<path class="st1" d="M742.3,393.7c0,0-0.35-0.19-1.04-0.55s-1.23-0.91-1.59-1.63c-0.37-0.71-0.55-1.58-0.55-2.59v-1.2
			c0-1.05,0.18-1.95,0.53-2.7c0.35-0.75,0.86-1.31,1.53-1.7c0.67-0.39,1.48-0.58,2.42-0.58c0.89,0,1.65,0.22,2.28,0.67
			s1.11,1.09,1.44,1.93c0.33,0.84,0.5,1.85,0.5,3.03v0.7h-7.18v-1.68h5.19c-0.06-0.87-0.29-1.54-0.67-2.03
			c-0.39-0.48-0.9-0.72-1.55-0.72c-0.79,0-1.41,0.26-1.84,0.78c-0.43,0.52-0.65,1.25-0.65,2.2v1.35c0,0.88,0.23,1.56,0.7,2.03
			s1.12,0.71,1.98,0.71c0.42,0,0.84-0.08,1.26-0.26s0.79-0.41,1.12-0.72l1.38,1.37c-0.53,0.51-1.12,0.9-1.77,1.17
			c-0.66,0.28-1.32,0.42-1.98,0.42C742.79,393.7,742.3,393.7,742.3,393.7z"/>
		<path class="st1" d="M750.68,382.9h2.09v10.64h-2.09V382.9z M757.14,387.1c0-0.75-0.19-1.33-0.58-1.74
			c-0.39-0.41-0.94-0.62-1.64-0.62c-0.68,0-1.21,0.18-1.58,0.54c-0.37,0.36-0.56,0.87-0.56,1.53l-0.21-2.05
			c0.33-0.64,0.76-1.14,1.29-1.49c0.53-0.35,1.12-0.52,1.76-0.52c1.16,0,2.05,0.38,2.68,1.13c0.63,0.75,0.95,1.82,0.95,3.2v6.46
			h-2.09V387.1z"/>
		<path class="st1" d="M765.25,393.7c0,0-0.34-0.18-1.03-0.54c-0.69-0.36-1.21-0.89-1.57-1.58c-0.36-0.69-0.54-1.52-0.54-2.5v-1.75
			c0-0.96,0.18-1.79,0.54-2.47c0.36-0.68,0.89-1.21,1.57-1.56c0.69-0.36,1.52-0.54,2.49-0.54c0.55,0,1.07,0.07,1.56,0.2
			c0.49,0.13,0.93,0.33,1.32,0.58s0.71,0.56,0.97,0.92l-1.51,1.35c-0.3-0.34-0.65-0.6-1.06-0.79s-0.82-0.28-1.26-0.28
			c-0.81,0-1.43,0.23-1.88,0.68c-0.45,0.45-0.67,1.09-0.67,1.91v1.75c0,0.84,0.22,1.49,0.66,1.95c0.44,0.46,1.07,0.69,1.88,0.69
			c0.44,0,0.87-0.1,1.27-0.3s0.75-0.48,1.05-0.84l1.51,1.46c-0.27,0.36-0.6,0.66-0.98,0.91c-0.39,0.25-0.83,0.44-1.32,0.57
			c-0.49,0.13-1.01,0.2-1.55,0.2C765.73,393.7,765.25,393.7,765.25,393.7z"/>
		<path class="st1" d="M775.75,393.7c0,0-0.35-0.19-1.04-0.55s-1.23-0.91-1.59-1.63c-0.37-0.71-0.55-1.58-0.55-2.59v-1.2
			c0-1.05,0.18-1.95,0.53-2.7c0.35-0.75,0.86-1.31,1.53-1.7c0.67-0.39,1.48-0.58,2.42-0.58c0.89,0,1.65,0.22,2.28,0.67
			s1.11,1.09,1.44,1.93c0.33,0.84,0.5,1.85,0.5,3.03v0.7h-7.18v-1.68h5.19c-0.06-0.87-0.29-1.54-0.67-2.03
			c-0.39-0.48-0.9-0.72-1.55-0.72c-0.79,0-1.41,0.26-1.84,0.78c-0.43,0.52-0.65,1.25-0.65,2.2v1.35c0,0.88,0.23,1.56,0.7,2.03
			s1.12,0.71,1.98,0.71c0.42,0,0.84-0.08,1.26-0.26s0.79-0.41,1.12-0.72l1.38,1.37c-0.53,0.51-1.12,0.9-1.77,1.17
			c-0.66,0.28-1.32,0.42-1.98,0.42C776.24,393.7,775.75,393.7,775.75,393.7z"/>
		<path class="st1" d="M787.41,378.64h2.09v11.08h-2.09V378.64z M787.41,391.46h2.09v2.09h-2.09V391.46z"/>
	</g>
</g>
</svg>
