<?xml version="1.0" encoding="utf-8"?>
<!-- Generator: Adobe Illustrator 23.0.1, SVG Export Plug-In . SVG Version: 6.00 Build 0)  -->
<svg version="1.1" id="Calque_1" xmlns="http://www.w3.org/2000/svg" xmlns:xlink="http://www.w3.org/1999/xlink" x="0px" y="0px"
	 viewBox="0 0 100 100" style="enable-background:new 0 0 100 100;" xml:space="preserve">
<style type="text/css">
	.st0{clip-path:url(#SVGID_2_);}
	.st1{fill:#A49DA0;}
	.st2{clip-path:url(#SVGID_2_);fill:none;}
	.st3{fill:#A66519;}
	.st4{fill:#F5C783;}
	.st5{fill:#D79B56;}
	.st6{fill:#F29885;}
	.st7{fill:#F6B83F;}
	.st8{fill:#E57F82;}
	.st9{opacity:0.5;fill:#A5753E;enable-background:new    ;}
	.st10{fill:#FFFFFF;}
	.st11{fill:#2B2523;}
	.st12{fill:#12110B;}
</style>
<g>
	<defs>
		<rect id="SVGID_1_" x="0.18" width="99.82" height="100"/>
	</defs>
	<clipPath id="SVGID_2_">
		<use xlink:href="#SVGID_1_"  style="overflow:visible;"/>
	</clipPath>
	<rect x="0.18" class="st0" width="99.82" height="100"/>
	<g class="st0">
		<g>
			<g>
				<path class="st1" d="M7.26,68.42c-0.4,0.56-1.1,0.74-1.58,0.4c-0.48-0.34-0.55-1.07-0.15-1.63s1.1-0.74,1.58-0.4
					S7.66,67.86,7.26,68.42z"/>
				<path class="st1" d="M5.94,70.33c-0.46,0.51-1.18,0.6-1.62,0.21c-0.43-0.39-0.41-1.12,0.05-1.63c0.46-0.51,1.18-0.6,1.62-0.21
					C6.42,69.09,6.4,69.82,5.94,70.33z"/>
				<path class="st1" d="M4.75,71.78c-0.46,0.51-1.18,0.6-1.62,0.21s-0.41-1.12,0.05-1.63c0.46-0.51,1.18-0.6,1.62-0.21
					S5.21,71.27,4.75,71.78z"/>
				<path class="st1" d="M3.25,73.07c-0.46,0.51-1.18,0.6-1.62,0.21c-0.43-0.39-0.41-1.12,0.05-1.63c0.46-0.51,1.18-0.6,1.62-0.21
					S3.71,72.57,3.25,73.07z"/>
				<path class="st1" d="M1.93,74.65c-0.46,0.51-1.18,0.6-1.62,0.21c-0.44-0.39-0.41-1.12,0.05-1.63c0.46-0.51,1.18-0.6,1.62-0.21
					C2.41,73.41,2.39,74.14,1.93,74.65z"/>
			</g>
		</g>
	</g>
	<rect x="0.18" class="st2" width="99.82" height="100"/>
	<g class="st0">
		<path class="st3" d="M84.94,38.14c2.37,7.81,6.06,15.27,10.59,20.17c4.53,4.9,11.3,4.86,12.2,10.46
			c1.47,9.12,0.57,15.5-20.16,14.89c-20.72-0.61-42.49-4.97-60.03,5.19C11.19,98.31-8.13,92.04-3.94,77.6
			c1.74-6,15.88-12.39,16.01-21.88s8.07-19.38,22.58-16.09c14.51,3.28,31.19-6.58,35.06-8.36c3.87-1.78,12.95-2.99,14.99,6.28
			L84.94,38.14z"/>
		<path class="st4" d="M84.6,33.87c2.28,7.44,5.87,14.54,10.28,19.2c4.41,4.65,12.72,8.19,12.37,13.62
			c-0.35,5.42,0.02,11.1-20.27,10.6c-20.29-0.5-46.3-3.61-59.51,4.5c-13.21,8.11-38.8,3.99-30.08-9.9
			c3.24-5.16,14.35-11.96,14.52-21.01c0.17-9.06,9.24-18.45,23.43-15.38c14.2,3.07,30.58-6.41,34.37-8.12
			c3.79-1.71,12.69-2.91,14.66,5.93L84.6,33.87z"/>
		<path class="st5" d="M77.92,37.1c1.86,6.07,4.8,11.88,8.4,15.68c3.6,3.8,10.38,6.69,10.1,11.12s0.02,9.06-16.55,8.65
			c-16.57-0.41-37.81-2.95-48.6,3.67c-10.79,6.63-31.69,3.26-24.57-8.08c2.65-4.21,11.72-9.77,11.86-17.16
			c0.14-7.4,7.54-15.07,19.14-12.56s24.97-5.23,28.07-6.63c3.1-1.4,10.36-2.37,11.97,4.84L77.92,37.1z"/>
		<path class="st6" d="M100.34,64.77c-0.66,5.08-6.55,8.43-11.76,7.41c-5.21-1.03-7.26-3.92-13.13,0.82
			c-5.87,4.74-7.41-4.43-10.01,2.26c-2.6,6.69-22.39,16.32-30.37,3.14c-1.1-1.75-9.67-3.39-12.98,1.86
			c-3.31,5.25-9.81,3.01-12.02,1.59c-2.21-1.42-5.57,1.64-7.04-1.34S1.35,64.56,1.35,64.56l20.06-3.24l18.16-5.03l26.24-0.1
			l33.99-0.34"/>
		<path class="st7" d="M30.46,70.11c0.09-3.95,2.86-7.07,5.34-5.51c1.82,1.14,4.6,0.62,7.32-0.65c7.9-3.7,13.19-4.98,18.5-3.08
			c4.19,1.5,4.77-0.79,4.67-1.73c-0.1-0.94-24-2.42-15.63,0.92c8.37,3.34,4.12,1.63,4.07-2.62c-12.39,3.47-16.15,1.43-23.49,4.67
			c-7.34,3.24-31.65,0.92-35.33,0.85c3.39,10.6,6.19,14.66,7.65,12.81c1.46-1.85,2.71-1.54,4.01,0.09c4.9,6.12,6.78,0.44,6.78-1.1
			c-0.01-1.54,4.22-7.89,6.11-0.26c0.46,1.86,3.53,0.89,3.56-3.98C24.04,65.67,30.41,72.16,30.46,70.11z"/>
		<path class="st7" d="M75.28,57.46c0.95,0.48,1.9,0.83,2.82,1.06c11.07,2.82,23.29-8.62,25.19-10.45
			c0.39,11.09-0.64,15.77-2.32,14.43c-1.68-1.34-2.57-0.68-3.13,1.24c-2.09,7.25-5.2,2.38-5.64,0.91c-0.44-1.47-5.59-6.3-4.88,1.52
			c0.17,1.91-2.52,1.87-3.94-2.77c-1.42-4.63-4.56,3.4-5.18,1.46c-1.21-3.74-3.94-0.88-5.44,1.32c-1.67,2.45-5.97,2.48-6.57,1.71
			c-0.2-0.25-0.08-0.65,0.1-1.03C67.68,63.83,73.91,58.6,75.28,57.46z"/>
		<path class="st7" d="M45.25,67.98c-2.14-1.73-5.54-3.71-5.6,0.44c-0.04,3.04-1.87,8.95-2.3,11.41c-1.22,7.15-5.5,2.01-7.47-6.07
			c-1.97-8.08-3.67-2.63-3.61-1.01c0.06,1.62-1.32,7.54-5.66,0.91c-1.15-1.76-2.21-2.13-3.37-0.23s-3.66-2.48-6.88-13.78
			c3.1,0.2,23.61,3.51,29.66,0.35c6.05-3.16,34.1-1.67,44.39-4.89c0.19,4.48,0.68,15.98-6.47,12.16c-7.15-3.82-6.43-0.75-6.32,0.24
			c0.12,0.99,0.38,5.07-2.99,2.82c-6.96-4.66-3.53,2.01-3.3,5.2c0.63,8.62-3.84,7.23-5.76,1.48c-1.93-5.75-1.89-16.28-6.26-15.09
			C50.87,62.59,46.82,69.24,45.25,67.98z"/>
		<path class="st3" d="M81.39,15.87c2.3,7.59,5.9,14.86,10.3,19.62c4.4,4.76,10.99,4.72,11.87,10.17
			c1.43,8.87,0.55,15.08-19.61,14.48c-20.16-0.6-41.33-4.83-58.39,5.05c-15.9,9.2-34.69,3.1-30.62-10.94
			c1.69-5.83,15.44-12.05,15.57-21.28c0.13-9.23,7.85-18.85,21.96-15.66c14.11,3.19,30.34-6.4,34.1-8.13
			c3.76-1.73,12.59-2.91,14.58,6.11L81.39,15.87z"/>
		<path class="st4" d="M81.07,11.71c2.22,7.24,5.71,14.15,10,18.67c4.29,4.53,12.37,7.97,12.03,13.24s0.02,10.79-19.71,10.31
			c-19.74-0.49-45.04-3.52-57.88,4.38c-12.85,7.89-37.74,3.89-29.26-9.63c3.15-5.02,13.96-11.63,14.12-20.44
			c0.16-8.81,8.98-17.95,22.79-14.96S62.9,7.06,66.6,5.39c3.69-1.66,12.34-2.83,14.26,5.76L81.07,11.71z"/>
		<path class="st5" d="M74.57,14.86c1.81,5.91,4.66,11.55,8.17,15.25c3.51,3.7,10.1,6.51,9.83,10.82c-0.28,4.31,0.02,8.82-16.1,8.42
			c-16.12-0.4-36.78-2.87-47.27,3.57c-10.49,6.45-30.82,3.18-23.9-7.86c2.57-4.1,11.4-9.5,11.54-16.69
			c0.13-7.19,7.34-14.66,18.61-12.22c11.28,2.44,24.29-5.09,27.3-6.45c3.01-1.36,10.08-2.31,11.64,4.71L74.57,14.86z"/>
		<path class="st3" d="M67.74,105.35c0.08-2.23-0.81-6.66-0.91-7.3c-0.1-0.63-1.39-0.56-1.37-1.34c0.02-0.79-0.13-2.45-0.5-3.04
			c-0.37-0.59-0.2-2.96-0.55-3.43s-3.61-6.32-3.21-8.33c0.54-2.72,1.19,2.24,0.97,0.86"/>
		<path class="st3" d="M79.87,80.83c-1.44,5.44-0.11,4.06-0.5,7.91"/>
		<path class="st8" d="M47.08,76.19c0.65,4.05,2.09,7.19,3.21,7.01c1.12-0.18,1.5-3.61,0.85-7.67c-0.65-4.05-2.09-7.19-3.21-7.01
			C46.81,68.7,46.42,72.14,47.08,76.19z"/>
		<path class="st3" d="M70.15,123.43c-2.77,1.62-17.31,7.05-19.34,7.9c-3.17,0.9-7.27,4.16-1.29,6.31c1.25,1.49,3.66,2.13,4.87,0.64
			c1.27,0.7,3.5,1.12,4.31-0.11c1.3,0.89,5.02,0.68,5.74-1.12c0.6,1.07,1.69,1.54,2.95-0.48c2.33,0.14,4.72-1.15,7.31-2.09
			c2.59-0.94,2.21-1.53,5.71-1.31c3.8-0.61,5.34-3.59,5.35-7.1c0.01-3.51-5.1-26.31-5.1-26.31c-5.78,2.62-13.75,2.22-13.75,2.22
			c1.04,4.64,2.92,10.53,2.92,10.53C71.39,115.7,70.15,123.43,70.15,123.43z"/>
		<path class="st3" d="M79.87,80.83c-1.44,5.44-0.11,4.06-0.5,7.91c0.59,4.59-1.6,6.14-0.94,6.68c0.67,0.55,2.37,3.13,2.33,3.77
			c-0.05,0.79-0.37,2.31-0.06,2.39c-3.02,1.01-5.79,4.08-12.96,3.78c-1.61-4.86-2.08-6.42-2.18-7.06c-0.1-0.63-0.12-0.8-0.1-1.58
			c0.02-0.79-0.13-2.45-0.5-3.04c-0.37-0.59-0.2-2.96-0.55-3.43c-0.35-0.46-3.61-6.32-3.21-8.33c0.54-2.72,2.38,1.79,2.16,0.41"/>
		<path class="st3" d="M26.62,111.69c0.08-2.23-0.81-6.66-0.91-7.3c-0.1-0.63-1.39-0.56-1.37-1.34c0.02-0.79-0.13-2.45-0.5-3.04
			c-0.37-0.59-0.2-2.96-0.55-3.43c-0.35-0.46-3.61-6.32-3.21-8.33c0.54-2.72,1.78-0.71,1.56-2.09"/>
		<path class="st3" d="M21.63,86.17c0.22,1.38-1.03-0.63-1.56,2.09c-0.4,2.02,2.86,7.87,3.21,8.33c0.35,0.46,0.18,2.83,0.55,3.43
			c0.37,0.59,0.52,2.26,0.5,3.04c-0.02,0.78,0,0.95,0.1,1.58c0.1,0.64,0.57,2.2,2.18,7.06c7.17,0.31,9.94-2.77,12.96-3.78
			c-0.31-0.08,0.01-1.6,0.06-2.39c0.04-0.64-1.66-3.22-2.33-3.77c-0.67-0.54,1.53-2.09,0.94-6.68c0.4-3.84-0.44-2.39,0.5-7.91
			c0.38-2.21,0.03-3.47,0.03-3.47S23.73,85.82,21.63,86.17z"/>
		<path class="st9" d="M67.44,11.79c0.16,0.36-11.78,5.35-26.68,11.14c-14.89,5.8-27.1,10.21-27.25,9.85
			c-0.16-0.36,11.78-5.35,26.68-11.14C55.08,15.84,67.28,11.43,67.44,11.79z"/>
		<path class="st9" d="M73.87,20.11c0.16,0.36-11.78,5.35-26.68,11.14S20.1,41.46,19.94,41.1c-0.16-0.36,11.78-5.35,26.68-11.14
			C61.51,24.16,73.71,19.75,73.87,20.11z"/>
		<path class="st9" d="M82.42,26.72c0.16,0.36-11.78,5.35-26.68,11.14s-27.09,10.21-27.25,9.85c-0.16-0.36,11.78-5.35,26.68-11.14
			S82.26,26.36,82.42,26.72z"/>
		<path class="st9" d="M75.23,28.57c-0.12,0.38-12.68-2.25-28.05-5.86c-15.37-3.61-27.73-6.85-27.61-7.23
			c0.12-0.38,12.68,2.25,28.05,5.86C63,24.96,75.36,28.19,75.23,28.57z"/>
		<path class="st9" d="M74.49,38.88c-0.12,0.38-12.68-2.24-28.05-5.86c-15.37-3.61-27.73-6.85-27.61-7.23
			c0.12-0.38,12.68,2.25,28.05,5.86C62.26,35.27,74.62,38.51,74.49,38.88z"/>
		<path class="st9" d="M76.54,48.99c-0.12,0.38-12.68-2.25-28.05-5.86c-15.37-3.61-27.73-6.85-27.61-7.23
			c0.12-0.38,12.68,2.25,28.05,5.86C64.3,45.38,76.66,48.61,76.54,48.99z"/>
		<path class="st10" d="M59.72,45.38c0.84,5.24,6.25,8.72,12.07,7.78c5.82-0.94,9.86-5.95,9.02-11.19
			c-0.84-5.24-6.25-8.72-12.07-7.78S58.87,40.15,59.72,45.38z"/>
		<path class="st11" d="M63.61,42.52c0.31,1.95,2.32,3.24,4.49,2.89c2.17-0.35,3.67-2.21,3.35-4.16s-2.32-3.24-4.49-2.89
			C64.8,38.71,63.3,40.57,63.61,42.52z"/>
		<path class="st10" d="M63.63,40.97c0.18,1.12,1.33,1.86,2.58,1.66c1.24-0.2,2.1-1.27,1.92-2.39c-0.18-1.12-1.33-1.86-2.58-1.66
			C64.31,38.79,63.45,39.86,63.63,40.97z"/>
		<path class="st10" d="M15.52,51.74c0.84,5.24,6.25,8.72,12.07,7.78s9.86-5.95,9.02-11.19c-0.84-5.24-6.25-8.72-12.07-7.78
			C18.71,41.49,14.67,46.5,15.52,51.74z"/>
		<path class="st11" d="M19.41,48.88c0.31,1.95,2.32,3.24,4.49,2.89c2.17-0.35,3.67-2.21,3.35-4.16c-0.31-1.95-2.32-3.24-4.49-2.89
			C20.59,45.07,19.1,46.93,19.41,48.88z"/>
		<path class="st10" d="M19.43,47.33c0.18,1.12,1.33,1.86,2.58,1.66c1.24-0.2,2.1-1.27,1.92-2.39c-0.18-1.12-1.33-1.86-2.58-1.66
			C20.11,45.14,19.25,46.21,19.43,47.33z"/>
		<path class="st12" d="M36.32,31.8c-4.39-0.76-12.85,0.29-16.59,5.86c-3.74,5.57-5.07,9.42-5.07,9.42
			c1.24,0.44,1.24,0.44,1.24,0.44c3.65-4.97,10.02-12.06,18.16-12.95C36.59,33.2,39.05,33.13,36.32,31.8z"/>
		<path class="st12" d="M79.66,36.2c-4.53-3.08-9.1-10.9-18.97-9.93c-3.12,0.31-3.44,3.38,2.63,3.24
			c3.55,0.51,11.18,5.98,13.96,8.51C80.06,40.55,80.46,40.07,79.66,36.2z"/>
	</g>
</g>
</svg>
