<?xml version="1.0" encoding="utf-8"?>
<!-- Generator: Adobe Illustrator 23.0.1, SVG Export Plug-In . SVG Version: 6.00 Build 0)  -->
<svg version="1.1" xmlns="http://www.w3.org/2000/svg" xmlns:xlink="http://www.w3.org/1999/xlink" x="0px" y="0px"
	 viewBox="0 0 500 500" style="enable-background:new 0 0 500 500;" xml:space="preserve">
<style type="text/css">
	.st0{fill:#39B54A;}
	.st1{clip-path:url(#SVGID_2_);}
	.st2{fill:#A49DA0;}
	.st3{fill:#6C1011;}
	.st4{fill:#1B0B11;}
	.st5{fill:#693A28;}
	.st6{fill:#44312A;}
	.st7{fill:#65493E;}
	.st8{fill:#F1A586;}
	.st9{fill:#FFFFFF;}
	.st10{fill:#876153;}
	.st11{fill:#9F8175;}
	.st12{fill:#3B261E;}
	.st13{fill:#C3B0A9;}
	.st14{fill:#E7DFDD;}
	.st15{fill:#531911;}
	.st16{fill:#F4B79E;}
	.st17{fill:#B57C65;}
	.st18{fill:none;stroke:#000400;stroke-width:2.6779;stroke-miterlimit:10;}
	.st19{fill:none;stroke:#000400;stroke-width:1.9289;stroke-miterlimit:10;}
	.st20{fill:#000200;stroke:#030504;stroke-width:1.339;stroke-miterlimit:10;}
	.st21{fill:#EDEBEC;}
	.st22{fill:#19120F;}
	.st23{fill:#F15A24;}
	.st24{fill:#FF7BAC;}
	.st25{fill:#FFFF00;}
	.st26{clip-path:url(#SVGID_4_);}
	.st27{fill:none;stroke:#000400;stroke-width:2.6884;stroke-miterlimit:10;}
	.st28{fill:none;stroke:#000400;stroke-width:1.9364;stroke-miterlimit:10;}
	.st29{fill:#000200;stroke:#030504;stroke-width:1.3442;stroke-miterlimit:10;}
	.st30{clip-path:url(#SVGID_6_);}
	.st31{clip-path:url(#SVGID_8_);}
	.st32{fill:#A66519;}
	.st33{fill:#F5C783;}
	.st34{fill:#D79B56;}
	.st35{fill:#F29885;}
	.st36{fill:#F6B83F;}
	.st37{fill:#E57F82;}
	.st38{fill:#E2A69C;}
	.st39{opacity:0.5;fill:#A5753E;}
	.st40{fill:#2B2523;}
	.st41{fill:#12110B;}
	.st42{clip-path:url(#SVGID_10_);}
	.st43{fill:#00FFFF;}
	.st44{clip-path:url(#SVGID_12_);}
</style>
<g id="Calque_1">
</g>
<g id="Calque_2">
	<rect width="500" height="500"/>
	<g>
		<defs>
			<rect id="SVGID_5_" x="-520" width="500" height="500"/>
		</defs>
		<clipPath id="SVGID_2_">
			<use xlink:href="#SVGID_5_"  style="overflow:visible;"/>
		</clipPath>
		<g class="st1">
			<path class="st2" d="M-32.08,363.41c-44.9,40.84-77.9,77.68-73.71,82.29c52.54-44.65,55.41-22.14,100.31-62.99
				C39.42,341.87,61,302.41,56.8,297.8C52.61,293.2,12.81,322.56-32.08,363.41z"/>
			<path class="st2" d="M35.47,342.11c-1.98,2.8-5.52,3.71-7.91,2.02c-2.4-1.69-2.73-5.33-0.75-8.13c1.98-2.8,5.52-3.71,7.91-2.02
				C37.11,335.67,37.45,339.31,35.47,342.11z"/>
			<path class="st2" d="M28.86,351.63c-2.3,2.54-5.92,3.02-8.1,1.06c-2.17-1.97-2.06-5.62,0.24-8.17c2.3-2.54,5.92-3.02,8.09-1.06
				C31.27,345.44,31.16,349.09,28.86,351.63z"/>
			<path class="st2" d="M22.89,358.88c-2.3,2.54-5.93,3.02-8.1,1.06c-2.17-1.96-2.07-5.62,0.24-8.16c2.3-2.55,5.92-3.02,8.09-1.06
				C25.29,352.68,25.19,356.34,22.89,358.88z"/>
			<path class="st2" d="M15.39,365.37c-2.3,2.55-5.93,3.02-8.09,1.06c-2.17-1.97-2.07-5.62,0.24-8.16c2.3-2.55,5.92-3.02,8.09-1.06
				C17.8,359.17,17.69,362.83,15.39,365.37z"/>
			<path class="st2" d="M8.76,373.23c-2.3,2.55-5.93,3.02-8.09,1.06c-2.18-1.97-2.07-5.62,0.23-8.16c2.3-2.55,5.92-3.02,8.09-1.06
				C11.17,367.03,11.07,370.68,8.76,373.23z"/>
			<path class="st2" d="M1.25,379.79c-2.3,2.54-5.93,3.02-8.1,1.06c-2.17-1.97-2.06-5.62,0.24-8.16c2.3-2.55,5.92-3.02,8.09-1.06
				C3.65,373.59,3.55,377.24,1.25,379.79z"/>
			<path class="st5" d="M26.82,129.85c1.65,10.35-23.57,22.97-56.31,28.17c-32.75,5.21-60.62,1.03-62.27-9.32
				c-1.65-10.36,14.86-28.35,47.6-33.55C-11.41,109.95,25.18,119.5,26.82,129.85z"/>
			<path class="st10" d="M-404,198.43c18.08-37.59,27.2-55.05,71.6-69.25c44.4-14.21,155.9-52.1,266.46-39.47
				c23.43,2.68,67.61,8.64,94.4,39.47C-80.22,117.17-185.07,98.36-404,198.43z"/>
			<path class="st21" d="M-26.47,366.13c-42.12,36.29-75.68,66.39-74.95,67.22c0.72,0.84,35.45-27.91,77.56-64.2
				c42.11-36.29,75.67-66.38,74.95-67.22C50.37,301.1,15.65,329.84-26.47,366.13z"/>
		</g>
	</g>
	<g>
		<defs>
			<rect id="SVGID_7_" width="500" height="500"/>
		</defs>
		<clipPath id="SVGID_4_">
			<use xlink:href="#SVGID_7_"  style="overflow:visible;"/>
		</clipPath>
		<g class="st26">
			<path class="st32" d="M424.54,190.72c11.85,39.04,30.35,76.36,53.03,100.86c22.68,24.49,56.58,24.28,61.1,52.29
				c7.36,45.6,2.84,77.5-100.97,74.43c-103.8-3.07-212.82-24.83-300.69,25.95C55.16,491.55-41.64,460.2-20.65,388
				c8.72-29.99,79.54-61.96,80.2-109.41c0.66-47.45,40.42-96.89,113.1-80.47c72.68,16.42,156.24-32.9,175.61-41.79
				c19.37-8.88,64.85-14.95,75.1,31.39L424.54,190.72z"/>
			<path class="st33" d="M422.88,169.35c11.44,37.2,29.41,72.72,51.51,95.99c22.11,23.27,63.69,40.96,61.96,68.08
				c-1.74,27.12,0.12,55.48-101.53,52.99c-101.65-2.5-231.91-18.07-298.06,22.5c-66.16,40.57-194.36,19.97-150.69-49.49
				c16.22-25.79,71.89-59.79,72.73-105.07c0.84-45.28,46.26-92.26,117.37-76.9c71.11,15.36,153.16-32.04,172.16-40.6
				c19-8.56,63.56-14.53,73.41,29.63L422.88,169.35z"/>
			<path class="st34" d="M389.42,185.52c9.34,30.37,24.02,59.39,42.07,78.39c18.05,19.01,52.01,33.45,50.59,55.6
				c-1.42,22.15,0.1,45.31-82.91,43.27c-83.02-2.04-189.39-14.76-243.42,18.37c-54.03,33.13-158.73,16.31-123.06-40.41
				c13.25-21.07,58.71-48.84,59.4-85.81c0.69-36.98,37.78-75.34,95.85-62.8c58.07,12.54,125.07-26.17,140.59-33.16
				c15.52-6.99,51.91-11.87,59.95,24.19L389.42,185.52z"/>
			<path class="st35" d="M501.7,323.83c-3.29,25.38-32.8,42.16-58.92,37.03c-26.11-5.13-36.38-19.62-65.76,4.1
				c-29.39,23.72-37.13-22.16-50.15,11.3c-13.02,33.45-112.13,81.61-152.11,15.69c-5.52-8.73-48.44-16.94-65.01,9.32
				c-16.59,26.26-49.13,15.05-60.19,7.94c-11.06-7.12-27.92,8.21-35.28-6.69c-7.36-14.9-8.42-79.74-8.42-79.74l100.5-16.22
				l90.95-25.15l131.45-0.48l170.26-1.68"/>
			<path class="st36" d="M151.67,350.57c0.46-19.76,14.31-35.35,26.74-27.57c9.11,5.69,23.04,3.11,36.65-3.25
				c39.56-18.49,66.05-24.89,92.69-15.41c20.99,7.48,23.88-3.95,23.39-8.64c-0.49-4.69-120.2-12.11-78.28,4.59
				c41.92,16.71,20.62,8.15,20.39-13.08c-62.04,17.35-80.89,7.16-117.64,23.37c-36.75,16.2-158.52,4.59-176.98,4.27
				c16.96,53.01,30.99,73.31,38.31,64.06c7.31-9.25,13.56-7.69,20.08,0.43c24.55,30.59,33.98,2.21,33.94-5.48
				c-0.04-7.7,21.14-39.43,30.62-1.28c2.31,9.31,17.7,4.45,17.81-19.9C119.51,328.35,151.43,360.81,151.67,350.57z"/>
			<path class="st36" d="M376.17,287.29c4.78,2.41,9.52,4.13,14.14,5.3c55.46,14.11,116.64-43.11,126.17-52.25
				c1.95,55.44-3.22,78.84-11.63,72.13c-8.41-6.71-12.88-3.42-15.66,6.19c-10.47,36.24-26.07,11.91-28.25,4.56
				c-2.19-7.35-27.98-31.5-24.43,7.62c0.87,9.54-12.63,9.34-19.73-13.84c-7.11-23.17-22.83,16.98-25.97,7.28
				c-6.06-18.71-19.73-4.39-27.26,6.6c-8.37,12.23-29.88,12.41-32.93,8.56c-1.01-1.27-0.39-3.25,0.49-5.15
				C338.12,319.16,369.32,292.98,376.17,287.29z"/>
			<path class="st36" d="M225.74,339.88c-10.72-8.63-27.74-18.54-28.04,2.19c-0.22,15.2-9.38,44.73-11.5,57.07
				c-6.13,35.74-27.54,10.05-37.41-30.34c-9.87-40.41-18.39-13.14-18.08-5.03c0.31,8.12-6.62,37.7-28.33,4.57
				c-5.76-8.79-11.07-10.65-16.89-1.16c-5.82,9.49-18.33-12.41-34.46-68.91c15.52,1,118.26,17.55,148.57,1.77
				c30.3-15.78,170.81-8.36,222.33-24.45c0.94,22.4,3.43,79.88-32.39,60.78c-35.83-19.1-32.23-3.74-31.66,1.22
				c0.58,4.96,1.88,25.35-14.98,14.09c-34.87-23.3-17.68,10.04-16.52,26c3.14,43.08-19.22,36.15-28.87,7.38
				c-9.66-28.77-9.49-81.38-31.38-75.43C253.93,312.95,233.61,346.22,225.74,339.88z"/>
			<path class="st32" d="M406.8,79.36c11.52,37.97,29.53,74.28,51.58,98.1c22.06,23.82,55.04,23.62,59.44,50.87
				c7.16,44.35,2.76,75.38-98.21,72.39c-100.97-2.99-207.01-24.15-292.48,25.24c-79.62,46.01-173.78,15.51-153.35-54.71
				c8.48-29.17,77.36-60.26,78-106.42c0.65-46.16,39.32-94.25,110.02-78.28c70.69,15.97,151.98-32,170.81-40.65
				c18.84-8.64,63.07-14.54,73.05,30.53L406.8,79.36z"/>
			<path class="st33" d="M405.18,58.57c11.13,36.18,28.6,70.74,50.11,93.37c21.5,22.64,61.95,39.84,60.26,66.22
				c-1.69,26.38,0.12,53.97-98.75,51.54c-98.88-2.43-225.58-17.58-289.94,21.89C62.51,331.06-62.19,311.02-19.7,243.46
				c15.78-25.09,69.92-58.16,70.75-102.2c0.82-44.04,45-89.74,114.17-74.8c69.17,14.94,148.97-31.17,167.46-39.49
				c18.48-8.32,61.83-14.13,71.41,28.82L405.18,58.57z"/>
			<path class="st34" d="M372.64,74.3c9.09,29.55,23.36,57.77,40.92,76.25c17.56,18.49,50.59,32.53,49.22,54.08
				c-1.38,21.54,0.1,44.08-80.65,42.09c-80.75-1.99-184.22-14.35-236.78,17.87C92.8,296.83-9.04,280.47,25.65,225.29
				c12.89-20.49,57.1-47.5,57.78-83.46c0.67-35.97,36.75-73.29,93.24-61.08c56.48,12.2,121.66-25.46,136.75-32.25
				c15.1-6.8,50.49-11.54,58.32,23.53L372.64,74.3z"/>
			<path class="st32" d="M338.42,526.76c0.38-11.13-4.06-33.31-4.58-36.49c-0.51-3.17-6.98-2.78-6.88-6.69
				c0.09-3.93-0.65-12.27-2.52-15.22c-1.87-2.96-1-14.81-2.77-17.13c-1.77-2.32-18.09-31.59-16.1-41.67
				c2.69-13.6,5.96,11.19,4.85,4.29"/>
			<path class="st32" d="M399.17,404.16c-7.21,27.2-0.53,20.32-2.5,39.53"/>
			<path class="st37" d="M234.92,380.95c3.27,20.27,10.48,35.96,16.1,35.05c5.62-0.91,7.53-18.07,4.25-38.34
				c-3.27-20.27-10.48-35.96-16.1-35.05C233.55,343.52,231.64,360.69,234.92,380.95z"/>
			<path class="st32" d="M350.48,617.17c-13.88,8.08-86.69,35.25-96.85,39.49c-15.9,4.51-36.41,20.81-6.47,31.55
				c6.26,7.43,18.35,10.67,24.38,3.2c6.35,3.52,17.53,5.61,21.6-0.57c6.51,4.47,25.13,3.41,28.74-5.61
				c3.03,5.35,8.48,7.72,14.8-2.39c11.68,0.71,23.65-5.77,36.63-10.46c12.98-4.69,11.06-7.63,28.58-6.56
				c19.03-3.07,26.75-17.95,26.81-35.48c0.06-17.53-25.57-131.53-25.57-131.53c-28.97,13.11-68.87,11.12-68.87,11.12
				c5.19,23.18,14.64,52.65,14.64,52.65C356.67,578.48,350.48,617.17,350.48,617.17z"/>
			<path class="st32" d="M399.17,404.16c-7.21,27.2-0.53,20.32-2.5,39.53c2.98,22.96-8.03,30.69-4.69,33.41
				c3.34,2.73,11.88,15.63,11.66,18.84c-0.27,3.96-1.83,11.54-0.3,11.94c-15.12,5.05-29,20.42-64.91,18.89
				c-8.08-24.3-10.42-32.1-10.94-35.28c-0.51-3.17-0.62-3.99-0.52-7.9c0.09-3.93-0.65-12.27-2.52-15.22
				c-1.87-2.96-1-14.81-2.77-17.13c-1.77-2.32-18.09-31.59-16.1-41.67c2.69-13.6,11.92,8.96,10.81,2.07"/>
			<path class="st32" d="M132.44,558.47c0.38-11.13-4.06-33.31-4.58-36.49c-0.51-3.17-6.98-2.78-6.88-6.69
				c0.09-3.93-0.65-12.27-2.52-15.22c-1.87-2.96-1-14.81-2.77-17.13c-1.77-2.32-18.09-31.58-16.1-41.67
				c2.69-13.6,8.94-3.54,7.83-10.44"/>
			<path class="st32" d="M107.44,430.84c1.11,6.9-5.14-3.16-7.83,10.44c-1.99,10.09,14.33,39.35,16.1,41.67
				c1.77,2.32,0.89,14.17,2.77,17.13c1.87,2.96,2.61,11.29,2.52,15.22c-0.1,3.91,0.01,4.73,0.52,7.9
				c0.51,3.18,2.86,10.98,10.94,35.28c35.91,1.53,49.79-13.84,64.91-18.88c-1.53-0.4,0.03-7.98,0.3-11.94
				c0.22-3.21-8.31-16.11-11.66-18.84c-3.34-2.72,7.67-10.45,4.69-33.41c1.98-19.21-2.2-11.96,2.5-39.53
				c1.88-11.04,0.14-17.36,0.14-17.36S117.97,429.11,107.44,430.84z"/>
			<path class="st39" d="M336.92,58.95c0.8,1.79-59.03,26.74-133.62,55.72C128.7,143.65,67.58,165.7,66.79,163.91
				c-0.8-1.79,59.03-26.73,133.62-55.72C275,79.21,336.12,57.16,336.92,58.95z"/>
			<path class="st39" d="M369.13,100.55c0.8,1.79-59.03,26.74-133.62,55.72C160.92,185.25,99.8,207.3,99,205.51
				c-0.8-1.79,59.03-26.73,133.62-55.72C307.22,120.81,368.33,98.76,369.13,100.55z"/>
			<path class="st39" d="M411.92,133.6c0.8,1.79-59.03,26.74-133.62,55.72c-74.59,28.98-135.71,51.03-136.51,49.24
				c-0.8-1.79,59.03-26.73,133.62-55.72C350,153.85,411.12,131.81,411.92,133.6z"/>
			<path class="st39" d="M375.95,142.85c-0.61,1.89-63.51-11.23-140.5-29.3C158.47,95.49,96.56,79.3,97.17,77.41
				c0.61-1.89,63.51,11.23,140.49,29.3C314.65,124.78,376.56,140.96,375.95,142.85z"/>
			<path class="st39" d="M372.24,194.42c-0.61,1.89-63.51-11.22-140.5-29.3c-76.98-18.07-138.89-34.26-138.28-36.14
				c0.61-1.89,63.51,11.23,140.49,29.3C310.94,176.35,372.86,192.53,372.24,194.42z"/>
			<path class="st39" d="M382.48,244.95c-0.61,1.89-63.51-11.23-140.5-29.3C165,197.58,103.09,181.4,103.7,179.51
				c0.61-1.89,63.51,11.23,140.5,29.3C321.18,226.88,383.09,243.06,382.48,244.95z"/>
			<path class="st9" d="M298.23,226.92c4.23,26.19,31.3,43.6,60.48,38.89c29.17-4.71,49.39-29.76,45.17-55.94
				c-4.23-26.19-31.3-43.6-60.48-38.89C314.22,175.69,294,200.74,298.23,226.92z"/>
			<path class="st40" d="M317.73,212.61c1.57,9.74,11.64,16.22,22.49,14.47c10.85-1.75,18.37-11.07,16.8-20.81
				c-1.57-9.74-11.64-16.21-22.49-14.46C323.68,193.56,316.16,202.87,317.73,212.61z"/>
			<path class="st9" d="M317.82,204.87c0.9,5.58,6.68,9.3,12.9,8.3c6.22-1,10.53-6.35,9.63-11.93c-0.9-5.58-6.67-9.29-12.9-8.29
				C321.23,193.95,316.92,199.3,317.82,204.87z"/>
			<path class="st9" d="M76.82,258.7c4.23,26.19,31.31,43.6,60.48,38.89c29.17-4.71,49.39-29.76,45.17-55.95
				c-4.23-26.19-31.3-43.6-60.48-38.89C92.81,207.46,72.59,232.51,76.82,258.7z"/>
			<path class="st40" d="M96.32,244.39c1.57,9.74,11.64,16.22,22.49,14.47c10.85-1.75,18.37-11.07,16.8-20.81
				c-1.57-9.74-11.64-16.22-22.49-14.47C102.26,225.33,94.75,234.64,96.32,244.39z"/>
			<path class="st9" d="M96.41,236.65c0.9,5.58,6.68,9.3,12.9,8.29c6.22-1,10.53-6.35,9.63-11.93c-0.9-5.58-6.68-9.3-12.9-8.29
				C99.82,225.72,95.51,231.06,96.41,236.65z"/>
			<path class="st41" d="M189.83,219.38c-9.38-20.2-37.88-51.99-71.49-51.45c-33.61,0.52-53.26,6.03-53.26,6.03
				c1.74,6.36,1.74,6.36,1.74,6.36c30.85,0.82,78.24,6.79,105.13,37.69C184.87,224.45,192.16,234.36,189.83,219.38z"/>
			<path class="st41" d="M383.31,126.51c-23.64,13.88-68.85,17.75-85.62,64.43c-5.3,14.75,7.92,22.77,20.3-4.95
				c9.91-14.97,51.06-37.7,68.46-44.83C403.85,134.04,402.53,131.23,383.31,126.51z"/>
		</g>
	</g>
	<g>
		<defs>
			
				<rect id="SVGID_9_" x="520" y="2.45" transform="matrix(-1 -4.489266e-11 4.489266e-11 -1 1540 504.9063)" width="500" height="500"/>
		</defs>
		<clipPath id="SVGID_6_">
			<use xlink:href="#SVGID_9_"  style="overflow:visible;"/>
		</clipPath>
		<g class="st30">
			<path class="st32" d="M595.46,193.18c-11.85,39.04-30.35,76.36-53.03,100.86c-22.68,24.49-56.58,24.28-61.1,52.29
				c-7.36,45.6-2.84,77.5,100.97,74.43c103.8-3.07,212.82-24.83,300.69,25.95c81.85,47.3,178.65,15.95,157.66-56.25
				c-8.72-29.99-79.54-61.96-80.2-109.41c-0.66-47.45-40.42-96.89-113.1-80.47c-72.68,16.42-156.24-32.9-175.61-41.79
				c-19.37-8.88-64.85-14.95-75.1,31.39L595.46,193.18z"/>
			<path class="st33" d="M597.12,171.8c-11.44,37.2-29.41,72.72-51.51,95.99c-22.11,23.27-63.69,40.96-61.96,68.08
				c1.74,27.12-0.12,55.48,101.53,52.99c101.65-2.5,231.91-18.07,298.06,22.5c66.16,40.57,194.36,19.97,150.69-49.49
				c-16.22-25.79-71.89-59.79-72.73-105.07c-0.84-45.28-46.26-92.26-117.37-76.9c-71.11,15.36-153.16-32.04-172.16-40.6
				c-19-8.56-63.56-14.53-73.41,29.63L597.12,171.8z"/>
			<path class="st32" d="M613.2,81.81c-11.52,37.97-29.53,74.28-51.58,98.1c-22.06,23.82-55.04,23.62-59.44,50.87
				c-7.16,44.35-2.76,75.38,98.21,72.39c100.97-2.99,207.01-24.15,292.48,25.24c79.62,46.01,173.78,15.51,153.35-54.71
				c-8.48-29.17-77.36-60.26-78-106.42C967.58,121.12,928.9,73.03,858.2,89c-70.69,15.97-151.98-32-170.81-40.65
				c-18.84-8.64-63.07-14.54-73.05,30.53L613.2,81.81z"/>
		</g>
	</g>
</g>
</svg>
