<?xml version="1.0" encoding="utf-8"?>
<!-- Generator: Adobe Illustrator 23.0.1, SVG Export Plug-In . SVG Version: 6.00 Build 0)  -->
<svg version="1.1" xmlns="http://www.w3.org/2000/svg" xmlns:xlink="http://www.w3.org/1999/xlink" x="0px" y="0px"
	 viewBox="0 0 500 500" style="enable-background:new 0 0 500 500;" xml:space="preserve">
<style type="text/css">
	.st0{fill:#39B54A;}
	.st1{clip-path:url(#SVGID_2_);}
	.st2{fill:#A49DA0;}
	.st3{fill:#6C1011;}
	.st4{fill:#1B0B11;}
	.st5{fill:#693A28;}
	.st6{fill:#44312A;}
	.st7{fill:#65493E;}
	.st8{fill:#F1A586;}
	.st9{fill:#FFFFFF;}
	.st10{fill:#876153;}
	.st11{fill:#9F8175;}
	.st12{fill:#3B261E;}
	.st13{fill:#C3B0A9;}
	.st14{fill:#E7DFDD;}
	.st15{fill:#531911;}
	.st16{fill:#F4B79E;}
	.st17{fill:#B57C65;}
	.st18{fill:none;stroke:#000400;stroke-width:2.6779;stroke-miterlimit:10;}
	.st19{fill:none;stroke:#000400;stroke-width:1.9289;stroke-miterlimit:10;}
	.st20{fill:#000200;stroke:#030504;stroke-width:1.339;stroke-miterlimit:10;}
	.st21{fill:#EDEBEC;}
	.st22{fill:#19120F;}
	.st23{fill:#F15A24;}
	.st24{fill:#FF7BAC;}
	.st25{fill:#FFFF00;}
	.st26{clip-path:url(#SVGID_4_);}
	.st27{fill:none;stroke:#000400;stroke-width:2.6884;stroke-miterlimit:10;}
	.st28{fill:none;stroke:#000400;stroke-width:1.9364;stroke-miterlimit:10;}
	.st29{fill:#000200;stroke:#030504;stroke-width:1.3442;stroke-miterlimit:10;}
	.st30{clip-path:url(#SVGID_6_);}
	.st31{clip-path:url(#SVGID_8_);}
	.st32{fill:#A66519;}
	.st33{fill:#F5C783;}
	.st34{fill:#D79B56;}
	.st35{fill:#F29885;}
	.st36{fill:#F6B83F;}
	.st37{fill:#E57F82;}
	.st38{fill:#E2A69C;}
	.st39{opacity:0.5;fill:#A5753E;}
	.st40{fill:#2B2523;}
	.st41{fill:#12110B;}
	.st42{clip-path:url(#SVGID_10_);}
	.st43{fill:#00FFFF;}
	.st44{clip-path:url(#SVGID_12_);}
</style>
<g id="Calque_1">
</g>
<g id="Calque_2">
	<rect x="0" y="0.5" class="st23" width="500" height="500"/>
	<g>
		<defs>
			<rect id="SVGID_7_" x="-520" width="500" height="500"/>
		</defs>
		<clipPath id="SVGID_2_">
			<use xlink:href="#SVGID_7_"  style="overflow:visible;"/>
		</clipPath>
		<g class="st1">
			<path class="st32" d="M-95.46,190.72c11.85,39.04,30.35,76.36,53.03,100.86c22.68,24.49,56.58,24.28,61.1,52.29
				c7.36,45.6,2.84,77.5-100.97,74.43c-103.8-3.07-212.82-24.83-300.69,25.95c-81.85,47.3-178.65,15.95-157.66-56.25
				c8.72-29.99,79.54-61.96,80.2-109.41c0.66-47.45,40.42-96.89,113.1-80.47c72.68,16.42,156.24-32.9,175.61-41.79
				c19.37-8.88,64.85-14.95,75.1,31.39L-95.46,190.72z"/>
			<path class="st33" d="M-97.12,169.35c11.44,37.2,29.41,72.72,51.51,95.99c22.11,23.27,63.69,40.96,61.96,68.08
				c-1.74,27.12,0.12,55.48-101.53,52.99c-101.65-2.5-231.91-18.07-298.06,22.5c-66.16,40.57-194.36,19.97-150.69-49.49
				c16.22-25.79,71.89-59.79,72.73-105.07c0.84-45.28,46.26-92.26,117.37-76.9c71.11,15.36,153.16-32.04,172.16-40.6
				c19-8.56,63.56-14.53,73.41,29.63L-97.12,169.35z"/>
			<path class="st32" d="M-113.2,79.36c11.52,37.97,29.53,74.28,51.58,98.1c22.06,23.82,55.04,23.62,59.44,50.87
				c7.16,44.35,2.76,75.38-98.21,72.39c-100.97-2.99-207.01-24.15-292.48,25.24c-79.62,46.01-173.78,15.51-153.35-54.71
				c8.48-29.17,77.36-60.26,78-106.42c0.65-46.16,39.32-94.25,110.02-78.28c70.69,15.97,151.98-32,170.81-40.65
				c18.84-8.64,63.07-14.54,73.05,30.53L-113.2,79.36z"/>
		</g>
	</g>
	<g>
		<defs>
			
				<rect id="SVGID_9_" x="0" y="2.45" transform="matrix(-1 -4.489266e-11 4.489266e-11 -1 500 504.9063)" width="500" height="500"/>
		</defs>
		<clipPath id="SVGID_4_">
			<use xlink:href="#SVGID_9_"  style="overflow:visible;"/>
		</clipPath>
		<g class="st26">
			<path class="st32" d="M75.46,193.18c-11.85,39.04-30.35,76.36-53.03,100.86c-22.68,24.49-56.58,24.28-61.1,52.29
				c-7.36,45.6-2.84,77.5,100.97,74.43c103.8-3.07,212.82-24.83,300.69,25.95c81.85,47.3,178.65,15.95,157.66-56.25
				c-8.72-29.99-79.54-61.96-80.2-109.41c-0.66-47.45-40.42-96.89-113.1-80.47c-72.68,16.42-156.24-32.9-175.61-41.79
				c-19.37-8.88-64.85-14.95-75.1,31.39L75.46,193.18z"/>
			<path class="st33" d="M77.12,171.8C65.69,209,47.72,244.52,25.62,267.8c-22.11,23.27-63.69,40.96-61.96,68.08
				c1.74,27.12-0.12,55.48,101.53,52.99c101.65-2.5,231.91-18.07,298.06,22.5c66.16,40.57,194.36,19.97,150.69-49.49
				c-16.22-25.79-71.89-59.79-72.73-105.07c-0.84-45.28-46.26-92.26-117.37-76.9c-71.11,15.36-153.16-32.04-172.16-40.6
				c-19-8.56-63.56-14.53-73.41,29.63L77.12,171.8z"/>
			<path class="st34" d="M110.58,187.98c-9.34,30.37-24.02,59.39-42.07,78.39c-18.05,19.01-52.01,33.45-50.59,55.6
				c1.42,22.15-0.1,45.31,82.91,43.27c83.02-2.04,189.39-14.76,243.42,18.37c54.03,33.13,158.73,16.31,123.06-40.41
				c-13.25-21.07-58.71-48.84-59.4-85.81c-0.69-36.98-37.78-75.34-95.85-62.8c-58.07,12.54-125.07-26.17-140.59-33.16
				c-15.52-6.99-51.91-11.87-59.95,24.19L110.58,187.98z"/>
			<path class="st35" d="M-1.7,326.29c3.29,25.38,32.8,42.16,58.92,37.03c26.11-5.13,36.38-19.62,65.76,4.1
				c29.39,23.72,37.13-22.16,50.15,11.3c13.02,33.45,112.13,81.61,152.11,15.69c5.52-8.73,48.44-16.94,65.01,9.32
				c16.59,26.26,49.13,15.05,60.19,7.94c11.06-7.12,27.92,8.21,35.28-6.69c7.36-14.9,8.42-79.74,8.42-79.74l-100.5-16.22
				l-90.95-25.15l-131.45-0.48L0.99,281.7"/>
			<path class="st36" d="M348.33,353.02c-0.46-19.76-14.31-35.35-26.74-27.57c-9.11,5.69-23.04,3.11-36.65-3.25
				c-39.56-18.49-66.05-24.89-92.69-15.41c-20.99,7.48-23.88-3.95-23.39-8.64c0.49-4.69,120.2-12.11,78.28,4.59
				c-41.92,16.71-20.62,8.15-20.39-13.08c62.04,17.35,80.89,7.16,117.64,23.37c36.75,16.2,158.52,4.59,176.98,4.27
				c-16.96,53.01-30.99,73.31-38.31,64.06c-7.31-9.25-13.56-7.69-20.08,0.43c-24.55,30.59-33.98,2.21-33.94-5.48
				c0.04-7.7-21.14-39.43-30.62-1.28c-2.31,9.31-17.7,4.45-17.81-19.9C380.49,330.8,348.57,363.26,348.33,353.02z"/>
			<path class="st36" d="M123.83,289.74c-4.78,2.41-9.52,4.13-14.14,5.3C54.23,309.16-6.95,251.94-16.49,242.8
				c-1.95,55.44,3.22,78.84,11.63,72.13c8.41-6.71,12.88-3.42,15.66,6.19c10.47,36.24,26.07,11.91,28.25,4.56
				c2.19-7.35,27.98-31.5,24.43,7.62c-0.87,9.54,12.63,9.34,19.73-13.84c7.11-23.17,22.83,16.98,25.97,7.28
				c6.06-18.71,19.73-4.39,27.26,6.6c8.37,12.23,29.88,12.41,32.93,8.56c1.01-1.27,0.39-3.25-0.49-5.15
				C161.88,321.62,130.68,295.43,123.83,289.74z"/>
			<path class="st36" d="M274.26,342.34c10.72-8.63,27.74-18.54,28.04,2.19c0.22,15.2,9.38,44.73,11.5,57.07
				c6.13,35.74,27.54,10.05,37.41-30.34c9.87-40.41,18.39-13.14,18.08-5.03c-0.31,8.12,6.62,37.7,28.33,4.57
				c5.76-8.79,11.07-10.65,16.89-1.16c5.82,9.49,18.33-12.41,34.46-68.91c-15.52,1-118.26,17.55-148.57,1.77
				c-30.3-15.78-170.81-8.36-222.33-24.45c-0.94,22.4-3.43,79.88,32.39,60.78c35.83-19.1,32.23-3.74,31.66,1.22
				c-0.58,4.96-1.88,25.35,14.98,14.09c34.87-23.3,17.68,10.04,16.52,26c-3.14,43.08,19.22,36.15,28.87,7.38
				c9.66-28.77,9.49-81.38,31.38-75.43C246.07,315.4,266.39,348.67,274.26,342.34z"/>
			<path class="st32" d="M93.2,81.81c-11.52,37.97-29.53,74.28-51.58,98.1c-22.06,23.82-55.04,23.62-59.44,50.87
				c-7.16,44.35-2.76,75.38,98.21,72.39c100.97-2.99,207.01-24.15,292.48,25.24c79.62,46.01,173.78,15.51,153.35-54.71
				c-8.48-29.17-77.36-60.26-78-106.42C447.58,121.12,408.9,73.03,338.2,89c-70.69,15.97-151.98-32-170.81-40.65
				c-18.84-8.64-63.07-14.54-73.05,30.53L93.2,81.81z"/>
			<path class="st33" d="M94.82,61.02c-11.13,36.18-28.6,70.74-50.11,93.37c-21.5,22.64-61.95,39.84-60.26,66.22
				c1.69,26.38-0.12,53.97,98.75,51.54c98.88-2.43,225.58-17.58,289.94,21.89c64.35,39.46,189.05,19.43,146.57-48.13
				c-15.78-25.09-69.92-58.16-70.75-102.2c-0.82-44.04-45-89.74-114.17-74.8c-69.17,14.94-148.97-31.17-167.46-39.49
				c-18.48-8.32-61.83-14.13-71.41,28.82L94.82,61.02z"/>
			<path class="st34" d="M127.36,76.75c-9.09,29.55-23.36,57.77-40.92,76.25c-17.56,18.49-50.59,32.53-49.22,54.08
				c1.38,21.54-0.1,44.08,80.65,42.09c80.75-1.99,184.22-14.35,236.78,17.87c52.55,32.23,154.39,15.87,119.7-39.31
				c-12.89-20.49-57.1-47.5-57.78-83.46c-0.67-35.97-36.75-73.29-93.24-61.08c-56.48,12.2-121.66-25.46-136.75-32.25
				c-15.1-6.8-50.49-11.54-58.32,23.53L127.36,76.75z"/>
			<path class="st32" d="M161.58,529.22c-0.38-11.13,4.06-33.31,4.58-36.49c0.51-3.17,6.98-2.78,6.88-6.69
				c-0.09-3.93,0.65-12.27,2.52-15.22c1.87-2.96,1-14.81,2.77-17.13c1.77-2.32,18.09-31.59,16.1-41.67
				c-2.69-13.6-5.96,11.19-4.85,4.29"/>
			<path class="st32" d="M100.83,406.61c7.21,27.2,0.53,20.32,2.5,39.53"/>
			<path class="st37" d="M265.08,383.41c-3.27,20.27-10.48,35.96-16.1,35.05c-5.62-0.91-7.53-18.07-4.25-38.34
				c3.27-20.27,10.48-35.96,16.1-35.05C266.45,345.97,268.36,363.14,265.08,383.41z"/>
			<path class="st32" d="M100.83,406.61c7.21,27.2,0.53,20.32,2.5,39.53c-2.98,22.96,8.03,30.69,4.69,33.41
				c-3.34,2.73-11.88,15.63-11.66,18.84c0.27,3.96,1.83,11.54,0.3,11.94c15.12,5.05,29,20.42,64.91,18.89
				c8.08-24.3,10.42-32.1,10.94-35.28c0.51-3.17,0.62-3.99,0.52-7.9c-0.09-3.93,0.65-12.27,2.52-15.22c1.87-2.96,1-14.81,2.77-17.13
				c1.77-2.32,18.09-31.59,16.1-41.67c-2.69-13.6-11.92,8.96-10.81,2.07"/>
			<path class="st32" d="M367.56,560.93c-0.38-11.13,4.06-33.31,4.58-36.49c0.51-3.17,6.98-2.78,6.88-6.69
				c-0.09-3.93,0.65-12.27,2.52-15.22c1.87-2.96,1-14.81,2.77-17.13c1.77-2.32,18.09-31.58,16.1-41.67
				c-2.69-13.6-8.94-3.54-7.83-10.44"/>
			<path class="st32" d="M392.56,433.29c-1.11,6.9,5.14-3.16,7.83,10.44c1.99,10.09-14.33,39.35-16.1,41.67
				c-1.77,2.32-0.89,14.17-2.77,17.13c-1.87,2.96-2.61,11.29-2.52,15.22c0.1,3.91-0.01,4.73-0.52,7.9
				c-0.51,3.18-2.86,10.98-10.94,35.28c-35.91,1.53-49.79-13.84-64.91-18.88c1.53-0.4-0.03-7.98-0.3-11.94
				c-0.22-3.21,8.31-16.11,11.66-18.84c3.34-2.72-7.67-10.45-4.69-33.41c-1.98-19.21,2.2-11.96-2.5-39.53
				c-1.88-11.04-0.14-17.36-0.14-17.36S382.03,431.56,392.56,433.29z"/>
			<path class="st39" d="M163.08,61.41c-0.8,1.79,59.03,26.74,133.62,55.72c74.59,28.98,135.71,51.03,136.51,49.24
				c0.8-1.79-59.03-26.73-133.62-55.72C225,81.66,163.88,59.62,163.08,61.41z"/>
			<path class="st39" d="M130.87,103.01c-0.8,1.79,59.03,26.74,133.62,55.72c74.59,28.98,135.71,51.03,136.51,49.24
				c0.8-1.79-59.03-26.73-133.62-55.72C192.78,123.26,131.67,101.22,130.87,103.01z"/>
			<path class="st39" d="M88.08,136.05c-0.8,1.79,59.03,26.74,133.62,55.72c74.59,28.98,135.71,51.03,136.51,49.24
				c0.8-1.79-59.03-26.73-133.62-55.72C150,156.31,88.88,134.26,88.08,136.05z"/>
			<path class="st39" d="M124.05,145.31c0.61,1.89,63.51-11.23,140.5-29.3c76.98-18.07,138.89-34.26,138.28-36.14
				c-0.61-1.89-63.51,11.23-140.49,29.3C185.35,127.23,123.44,143.42,124.05,145.31z"/>
			<path class="st39" d="M127.76,196.87c0.61,1.89,63.51-11.22,140.5-29.3c76.98-18.07,138.89-34.26,138.28-36.14
				c-0.61-1.89-63.51,11.23-140.49,29.3C189.06,178.8,127.14,194.98,127.76,196.87z"/>
			<path class="st39" d="M117.52,247.4c0.61,1.89,63.51-11.23,140.5-29.3c76.98-18.07,138.9-34.25,138.29-36.14
				c-0.61-1.89-63.51,11.23-140.5,29.3C178.82,229.33,116.91,245.51,117.52,247.4z"/>
			<path class="st9" d="M201.77,229.38c-4.23,26.19-31.3,43.6-60.48,38.89c-29.17-4.71-49.39-29.76-45.17-55.94
				c4.23-26.19,31.3-43.6,60.48-38.89C185.78,178.14,206,203.19,201.77,229.38z"/>
			<path class="st40" d="M182.27,215.07c-1.57,9.74-11.64,16.22-22.49,14.47c-10.85-1.75-18.37-11.07-16.8-20.81
				c1.57-9.74,11.64-16.21,22.49-14.46C176.32,196.01,183.84,205.33,182.27,215.07z"/>
			<path class="st9" d="M182.18,207.33c-0.9,5.58-6.68,9.3-12.9,8.3c-6.22-1-10.53-6.35-9.63-11.93c0.9-5.58,6.67-9.29,12.9-8.29
				C178.77,196.41,183.08,201.75,182.18,207.33z"/>
			<path class="st9" d="M423.18,261.15c-4.23,26.19-31.3,43.6-60.48,38.89c-29.17-4.71-49.39-29.76-45.17-55.95
				c4.23-26.19,31.3-43.6,60.48-38.89C407.19,209.91,427.41,234.96,423.18,261.15z"/>
			<path class="st40" d="M403.68,246.84c-1.57,9.74-11.64,16.22-22.49,14.47c-10.85-1.75-18.37-11.07-16.8-20.81
				c1.57-9.74,11.64-16.22,22.49-14.47C397.74,227.78,405.25,237.1,403.68,246.84z"/>
			<path class="st9" d="M403.59,239.1c-0.9,5.58-6.68,9.3-12.9,8.29c-6.22-1-10.53-6.35-9.63-11.93c0.9-5.58,6.68-9.3,12.9-8.29
				C400.18,228.18,404.49,233.52,403.59,239.1z"/>
			<path class="st41" d="M310.17,221.83c9.38-20.2,37.88-51.99,71.49-51.45c33.61,0.52,53.26,6.03,53.26,6.03
				c-1.74,6.36-1.74,6.36-1.74,6.36c-30.85,0.82-78.24,6.79-105.13,37.69C315.13,226.9,307.84,236.81,310.17,221.83z"/>
			<path class="st41" d="M116.69,128.97c23.64,13.88,68.85,17.75,85.62,64.43c5.3,14.75-7.92,22.77-20.3-4.95
				c-9.91-14.97-51.06-37.7-68.46-44.83C96.15,136.49,97.47,133.69,116.69,128.97z"/>
		</g>
	</g>
	<g>
		<defs>
			<rect id="SVGID_11_" x="524" y="4" width="496" height="496"/>
		</defs>
		<clipPath id="SVGID_6_">
			<use xlink:href="#SVGID_11_"  style="overflow:visible;"/>
		</clipPath>
		<g class="st30">
			<path class="st32" d="M927.55,82.72c11.43,37.67,29.29,73.68,51.17,97.32c21.88,23.63,54.6,23.43,58.96,50.46
				c7.1,44,2.74,74.78-97.43,71.81c-100.16-2.97-205.36-23.96-290.14,25.04c-78.98,45.64-172.39,15.39-152.13-54.28
				c8.41-28.94,76.74-59.78,77.38-105.57c0.64-45.79,39.01-93.5,109.14-77.65c70.13,15.84,150.76-31.75,169.45-40.32
				c18.69-8.57,62.57-14.42,72.46,30.29L927.55,82.72z"/>
			<path class="st33" d="M925.94,62.1c11.04,35.89,28.38,70.17,49.7,92.62c21.33,22.46,61.46,39.52,59.78,65.69
				c-1.68,26.17,0.12,53.54-97.96,51.13c-98.09-2.41-223.78-17.44-287.62,21.71c-63.84,39.15-187.54,19.28-145.39-47.75
				c15.65-24.89,69.36-57.7,70.18-101.38c0.81-43.69,44.64-89.02,113.25-74.2C756.5,84.75,835.67,39.01,854,30.75
				c18.33-8.26,61.33-14.02,70.84,28.59L925.94,62.1z"/>
		</g>
	</g>
</g>
</svg>
