<?xml version="1.0" encoding="utf-8"?>
<!-- Generator: Adobe Illustrator 23.0.1, SVG Export Plug-In . SVG Version: 6.00 Build 0)  -->
<svg version="1.1" xmlns="http://www.w3.org/2000/svg" xmlns:xlink="http://www.w3.org/1999/xlink" x="0px" y="0px"
	 viewBox="0 0 100 100" style="enable-background:new 0 0 100 100;" xml:space="preserve">
<style type="text/css">
	.st0{fill:#F15A24;}
	.st1{clip-path:url(#SVGID_2_);}
	.st2{fill:#A66519;}
	.st3{fill:#F5C783;}
	.st4{fill:#D79B56;}
	.st5{fill:#F29885;}
	.st6{fill:#F6B83F;}
	.st7{fill:#E57F82;}
	.st8{opacity:0.5;fill:#A5753E;enable-background:new    ;}
	.st9{fill:#FFFFFF;}
	.st10{fill:#2B2523;}
	.st11{fill:#12110B;}
</style>
<g id="Calque_2">
	<rect class="st0" width="100" height="99.9"/>
</g>
<g id="Calque_1">
	<g>
		<defs>
			<rect id="SVGID_1_" y="0.1" width="100" height="99.9"/>
		</defs>
		<clipPath id="SVGID_2_">
			<use xlink:href="#SVGID_1_"  style="overflow:visible;"/>
		</clipPath>
		<g class="st1">
			<path class="st2" d="M15.09,38.21c-2.37,7.8-6.07,15.26-10.61,20.15c-4.54,4.89-11.32,4.85-12.22,10.45
				c-1.47,9.11-0.57,15.48,20.19,14.87c20.76-0.61,42.56-4.96,60.14,5.18c16.37,9.45,35.73,3.19,31.53-11.24
				c-1.74-5.99-15.91-12.38-16.04-21.86c-0.13-9.48-8.08-19.36-22.62-16.08s-31.25-6.57-35.12-8.35
				c-3.87-1.77-12.97-2.99-15.02,6.27L15.09,38.21z"/>
			<path class="st3" d="M15.42,33.93c-2.29,7.43-5.88,14.53-10.3,19.18C0.7,57.76-7.61,61.3-7.27,66.72
				c0.35,5.42-0.02,11.08,20.31,10.59c20.33-0.5,46.38-3.61,59.61,4.5c13.23,8.11,38.87,3.99,30.14-9.89
				c-3.24-5.15-14.38-11.95-14.55-20.99s-9.25-18.43-23.47-15.36s-30.63-6.4-34.43-8.11s-12.71-2.9-14.68,5.92L15.42,33.93z"/>
			<path class="st4" d="M22.12,37.17c-1.87,6.07-4.8,11.87-8.41,15.66c-3.61,3.8-10.4,6.68-10.12,11.11
				c0.28,4.43-0.02,9.05,16.58,8.65c16.6-0.41,37.88-2.95,48.68,3.67c10.81,6.62,31.75,3.26,24.61-8.07
				c-2.65-4.21-11.74-9.76-11.88-17.14c-0.14-7.39-7.56-15.05-19.17-12.55s-25.01-5.23-28.12-6.63S23.91,29.49,22.3,36.7
				L22.12,37.17z"/>
			<path class="st5" d="M-0.34,64.8c0.66,5.07,6.56,8.42,11.78,7.4c5.22-1.02,7.28-3.92,13.15,0.82c5.88,4.74,7.43-4.43,10.03,2.26
				c2.6,6.68,22.43,16.31,30.42,3.13c1.1-1.74,9.69-3.38,13,1.86c3.32,5.25,9.83,3.01,12.04,1.59c2.21-1.42,5.58,1.64,7.06-1.34
				c1.47-2.98,1.68-15.93,1.68-15.93l-20.1-3.24l-18.19-5.02l-26.29-0.1L0.2,55.89"/>
			<path class="st6" d="M69.67,70.14c-0.09-3.95-2.86-7.06-5.35-5.51c-1.82,1.14-4.61,0.62-7.33-0.65
				c-7.91-3.69-13.21-4.97-18.54-3.08c-4.2,1.49-4.78-0.79-4.68-1.73c0.1-0.94,24.04-2.42,15.66,0.92
				c-8.38,3.34-4.12,1.63-4.08-2.61c12.41,3.47,16.18,1.43,23.53,4.67c7.35,3.24,31.7,0.92,35.4,0.85
				c-3.39,10.59-6.2,14.65-7.66,12.8c-1.46-1.85-2.71-1.54-4.02,0.09c-4.91,6.11-6.8,0.44-6.79-1.09c0.01-1.54-4.23-7.88-6.12-0.26
				c-0.46,1.86-3.54,0.89-3.56-3.98C76.1,65.7,69.71,72.19,69.67,70.14z"/>
			<path class="st6" d="M24.77,57.5c-0.96,0.48-1.9,0.83-2.83,1.06C10.85,61.38-1.39,49.95-3.3,48.12
				C-3.69,59.2-2.65,63.87-0.97,62.53c1.68-1.34,2.58-0.68,3.13,1.24c2.09,7.24,5.21,2.38,5.65,0.91c0.44-1.47,5.6-6.29,4.89,1.52
				c-0.17,1.91,2.53,1.87,3.95-2.77c1.42-4.63,4.57,3.39,5.19,1.45c1.21-3.74,3.95-0.88,5.45,1.32c1.67,2.44,5.98,2.48,6.59,1.71
				c0.2-0.25,0.08-0.65-0.1-1.03C32.38,63.87,26.14,58.64,24.77,57.5z"/>
			<path class="st6" d="M54.85,68.01c2.14-1.72,5.55-3.7,5.61,0.44c0.04,3.04,1.88,8.94,2.3,11.4c1.23,7.14,5.51,2.01,7.48-6.06
				c1.97-8.07,3.68-2.63,3.62-1c-0.06,1.62,1.32,7.53,5.67,0.91c1.15-1.76,2.21-2.13,3.38-0.23s3.67-2.48,6.89-13.77
				c-3.1,0.2-23.65,3.51-29.71,0.35c-6.06-3.15-34.16-1.67-44.47-4.89c-0.19,4.48-0.69,15.96,6.48,12.14
				c7.17-3.82,6.45-0.75,6.33,0.24c-0.12,0.99-0.38,5.06,3,2.82c6.97-4.66,3.54,2.01,3.3,5.19c-0.63,8.61,3.84,7.22,5.77,1.47
				c1.93-5.75,1.9-16.26,6.28-15.07C49.21,62.63,53.28,69.27,54.85,68.01z"/>
			<path class="st2" d="M18.64,15.95c-2.3,7.59-5.91,14.84-10.32,19.6C3.91,40.31-2.68,40.27-3.56,45.72
				C-5,54.58-4.12,60.78,16.08,60.18c20.19-0.6,41.4-4.83,58.5,5.04c15.92,9.19,34.76,3.1,30.67-10.93
				c-1.7-5.83-15.47-12.04-15.6-21.26s-7.86-18.83-22-15.64C53.5,20.58,37.24,11,33.48,9.27c-3.77-1.73-12.61-2.91-14.61,6.1
				L18.64,15.95z"/>
			<path class="st3" d="M18.96,11.8c-2.23,7.23-5.72,14.13-10.02,18.66c-4.3,4.52-12.39,7.96-12.05,13.23
				c0.34,5.27-0.02,10.78,19.75,10.3c19.78-0.49,45.12-3.51,57.99,4.37c12.87,7.88,37.81,3.88,29.31-9.62
				c-3.16-5.01-13.98-11.62-14.15-20.42c-0.16-8.8-9-17.93-22.83-14.95S37.16,7.15,33.47,5.49c-3.7-1.66-12.37-2.82-14.28,5.76
				L18.96,11.8z"/>
			<path class="st4" d="M25.47,14.94c-1.82,5.9-4.67,11.54-8.18,15.23c-3.51,3.69-10.12,6.5-9.84,10.81
				c0.28,4.3-0.02,8.81,16.13,8.41s36.84-2.87,47.36,3.57c10.51,6.44,30.88,3.17,23.94-7.85c-2.58-4.09-11.42-9.49-11.56-16.68
				c-0.13-7.19-7.35-14.64-18.65-12.2c-11.3,2.44-24.33-5.09-27.35-6.44c-3.02-1.36-10.1-2.31-11.66,4.7L25.47,14.94z"/>
			<path class="st2" d="M32.32,105.35c-0.08-2.22,0.81-6.66,0.92-7.29c0.1-0.63,1.4-0.56,1.38-1.34c-0.02-0.79,0.13-2.45,0.5-3.04
				c0.37-0.59,0.2-2.96,0.55-3.42s3.62-6.31,3.22-8.33c-0.54-2.72-1.19,2.24-0.97,0.86"/>
			<path class="st2" d="M20.17,80.85c1.44,5.43,0.11,4.06,0.5,7.9"/>
			<path class="st7" d="M53.02,76.21c-0.65,4.05-2.1,7.18-3.22,7c-1.12-0.18-1.51-3.61-0.85-7.66c0.65-4.05,2.1-7.18,3.22-7
				C53.29,68.73,53.67,72.16,53.02,76.21z"/>
			<path class="st2" d="M20.17,80.85c1.44,5.43,0.11,4.06,0.5,7.9c-0.6,4.59,1.61,6.13,0.94,6.68c-0.67,0.55-2.38,3.12-2.33,3.76
				c0.05,0.79,0.37,2.31,0.06,2.39c3.02,1.01,5.8,4.08,12.98,3.77c1.62-4.86,2.08-6.41,2.19-7.05c0.1-0.63,0.12-0.8,0.1-1.58
				c-0.02-0.79,0.13-2.45,0.5-3.04c0.37-0.59,0.2-2.96,0.55-3.42s3.62-6.31,3.22-8.33c-0.54-2.72-2.38,1.79-2.16,0.41"/>
			<path class="st2" d="M73.51,111.68c-0.08-2.22,0.81-6.66,0.92-7.29c0.1-0.63,1.4-0.56,1.38-1.34c-0.02-0.79,0.13-2.45,0.5-3.04
				c0.37-0.59,0.2-2.96,0.55-3.42c0.35-0.46,3.62-6.31,3.22-8.33c-0.54-2.72-1.79-0.71-1.57-2.09"/>
			<path class="st2" d="M78.51,86.18c-0.22,1.38,1.03-0.63,1.57,2.09c0.4,2.02-2.87,7.86-3.22,8.33c-0.35,0.46-0.18,2.83-0.55,3.42
				c-0.37,0.59-0.52,2.26-0.5,3.04c0.02,0.78,0,0.95-0.1,1.58c-0.1,0.64-0.57,2.19-2.19,7.05c-7.18,0.31-9.96-2.77-12.98-3.77
				c0.31-0.08-0.01-1.59-0.06-2.39c-0.04-0.64,1.66-3.22,2.33-3.76c0.67-0.54-1.53-2.09-0.94-6.68c-0.4-3.84,0.44-2.39-0.5-7.9
				c-0.38-2.21-0.03-3.47-0.03-3.47S76.41,85.83,78.51,86.18z"/>
			<path class="st8" d="M24.2,20.8c-0.09,0.38,12.58,3.12,28.3,6.13c15.72,3,28.54,5.13,28.63,4.75c0.09-0.38-12.58-3.12-28.3-6.13
				C37.11,22.54,24.29,20.42,24.2,20.8z"/>
			<path class="st8" d="M27.08,16.18c-0.02,0.4,12.65,2.51,28.31,4.71c15.66,2.2,28.37,3.67,28.4,3.27
				c0.02-0.4-12.65-2.5-28.31-4.71C39.82,17.25,27.1,15.78,27.08,16.18z"/>
			<path class="st8" d="M23.42,31.09c-0.01,0.4,12.7,2.23,28.41,4.1c15.7,1.87,28.45,3.06,28.46,2.67c0.01-0.4-12.7-2.23-28.41-4.1
				C36.18,31.88,23.44,30.69,23.42,31.09z"/>
			<path class="st9" d="M40.35,45.44c-0.85,5.23-6.26,8.71-12.1,7.77c-5.83-0.94-9.88-5.95-9.03-11.18
				c0.85-5.23,6.26-8.71,12.1-7.77C37.16,35.2,41.2,40.21,40.35,45.44z"/>
			<path class="st10" d="M36.45,42.58c-0.31,1.95-2.33,3.24-4.5,2.89c-2.17-0.35-3.67-2.21-3.36-4.16c0.31-1.95,2.33-3.24,4.5-2.89
				C35.26,38.77,36.77,40.63,36.45,42.58z"/>
			<path class="st9" d="M36.44,41.03c-0.18,1.11-1.34,1.86-2.58,1.66c-1.24-0.2-2.11-1.27-1.93-2.38c0.18-1.11,1.33-1.86,2.58-1.66
				C35.75,38.85,36.62,39.92,36.44,41.03z"/>
			<path class="st9" d="M84.64,51.79c-0.85,5.23-6.26,8.71-12.1,7.77c-5.83-0.94-9.88-5.95-9.03-11.18
				c0.85-5.23,6.26-8.71,12.1-7.77C81.44,41.55,85.48,46.55,84.64,51.79z"/>
			<path class="st10" d="M80.74,48.93c-0.31,1.95-2.33,3.24-4.5,2.89c-2.17-0.35-3.67-2.21-3.36-4.16c0.31-1.95,2.33-3.24,4.5-2.89
				C79.55,45.12,81.05,46.98,80.74,48.93z"/>
			<path class="st9" d="M80.72,47.38c-0.18,1.11-1.34,1.86-2.58,1.66c-1.24-0.2-2.11-1.27-1.93-2.38c0.18-1.11,1.34-1.86,2.58-1.66
				C80.04,45.2,80.9,46.27,80.72,47.38z"/>
			<path class="st11" d="M62.03,43.93c1.88-4.04,7.58-10.39,14.3-10.28c6.72,0.1,10.65,1.2,10.65,1.2
				c-0.35,1.27-0.35,1.27-0.35,1.27c-6.17,0.16-15.65,1.36-21.03,7.53C63.03,44.94,61.57,46.92,62.03,43.93z"/>
			<path class="st11" d="M23.34,25.38c4.73,2.77,13.77,3.55,17.12,12.87c1.06,2.95-1.58,4.55-4.06-0.99
				c-1.98-2.99-10.21-7.53-13.69-8.96C19.23,26.88,19.49,26.32,23.34,25.38z"/>
		</g>
	</g>
</g>
</svg>
