<?xml version="1.0" encoding="utf-8"?>
<!-- Generator: Adobe Illustrator 23.0.1, SVG Export Plug-In . SVG Version: 6.00 Build 0)  -->
<svg version="1.1" xmlns="http://www.w3.org/2000/svg" xmlns:xlink="http://www.w3.org/1999/xlink" x="0px" y="0px"
	 viewBox="0 0 500 500" style="enable-background:new 0 0 500 500;" xml:space="preserve">
<style type="text/css">
	.st0{fill:#39B54A;}
	.st1{clip-path:url(#SVGID_2_);}
	.st2{fill:#A49DA0;}
	.st3{fill:#6C1011;}
	.st4{fill:#1B0B11;}
	.st5{fill:#693A28;}
	.st6{fill:#44312A;}
	.st7{fill:#65493E;}
	.st8{fill:#F1A586;}
	.st9{fill:#FFFFFF;}
	.st10{fill:#876153;}
	.st11{fill:#9F8175;}
	.st12{fill:#3B261E;}
	.st13{fill:#C3B0A9;}
	.st14{fill:#E7DFDD;}
	.st15{fill:#531911;}
	.st16{fill:#F4B79E;}
	.st17{fill:#B57C65;}
	.st18{fill:none;stroke:#000400;stroke-width:2.6779;stroke-miterlimit:10;}
	.st19{fill:none;stroke:#000400;stroke-width:1.9289;stroke-miterlimit:10;}
	.st20{fill:#000200;stroke:#030504;stroke-width:1.339;stroke-miterlimit:10;}
	.st21{fill:#EDEBEC;}
	.st22{fill:#19120F;}
	.st23{fill:#F15A24;}
	.st24{fill:#FF7BAC;}
	.st25{fill:#FFFF00;}
	.st26{clip-path:url(#SVGID_4_);}
	.st27{fill:none;stroke:#000400;stroke-width:2.6884;stroke-miterlimit:10;}
	.st28{fill:none;stroke:#000400;stroke-width:1.9364;stroke-miterlimit:10;}
	.st29{fill:#000200;stroke:#030504;stroke-width:1.3442;stroke-miterlimit:10;}
	.st30{clip-path:url(#SVGID_6_);}
	.st31{clip-path:url(#SVGID_8_);}
	.st32{fill:#A66519;}
	.st33{fill:#F5C783;}
	.st34{fill:#D79B56;}
	.st35{fill:#F29885;}
	.st36{fill:#F6B83F;}
	.st37{fill:#E57F82;}
	.st38{fill:#E2A69C;}
	.st39{opacity:0.5;fill:#A5753E;}
	.st40{fill:#2B2523;}
	.st41{fill:#12110B;}
	.st42{clip-path:url(#SVGID_10_);}
	.st43{fill:#00FFFF;}
	.st44{clip-path:url(#SVGID_12_);}
</style>
<g id="Calque_1">
</g>
<g id="Calque_2">
	<g>
		<defs>
			
				<rect id="SVGID_9_" x="-520" y="2.45" transform="matrix(-1 -4.489266e-11 4.489266e-11 -1 -540 504.9063)" width="500" height="500"/>
		</defs>
		<clipPath id="SVGID_2_">
			<use xlink:href="#SVGID_9_"  style="overflow:visible;"/>
		</clipPath>
		<g class="st1">
			<path class="st32" d="M-444.54,193.18c-11.85,39.04-30.35,76.36-53.03,100.86c-22.68,24.49-56.58,24.28-61.1,52.29
				c-7.36,45.6-2.84,77.5,100.97,74.43c103.8-3.07,212.82-24.83,300.69,25.95C-75.16,494,21.64,462.65,0.65,390.45
				c-8.72-29.99-79.54-61.96-80.2-109.41c-0.66-47.45-40.42-96.89-113.1-80.47c-72.68,16.42-156.24-32.9-175.61-41.79
				c-19.37-8.88-64.85-14.95-75.1,31.39L-444.54,193.18z"/>
			<path class="st33" d="M-442.88,171.8c-11.44,37.2-29.41,72.72-51.51,95.99c-22.11,23.27-63.69,40.96-61.96,68.08
				c1.74,27.12-0.12,55.48,101.53,52.99c101.65-2.5,231.91-18.07,298.06,22.5c66.16,40.57,194.36,19.97,150.69-49.49
				c-16.22-25.79-71.89-59.79-72.73-105.07c-0.84-45.28-46.26-92.26-117.37-76.9c-71.11,15.36-153.16-32.04-172.16-40.6
				c-19-8.56-63.56-14.53-73.41,29.63L-442.88,171.8z"/>
			<path class="st36" d="M-171.67,353.02c-0.46-19.76-14.31-35.35-26.74-27.57c-9.11,5.69-23.04,3.11-36.65-3.25
				c-39.56-18.49-66.05-24.89-92.69-15.41c-20.99,7.48-23.88-3.95-23.39-8.64c0.49-4.69,120.2-12.11,78.28,4.59
				c-41.92,16.71-20.62,8.15-20.39-13.08c62.04,17.35,80.89,7.16,117.64,23.37c36.75,16.2,158.52,4.59,176.98,4.27
				c-16.96,53.01-30.99,73.31-38.31,64.06c-7.31-9.25-13.56-7.69-20.08,0.43c-24.55,30.59-33.98,2.21-33.94-5.48
				c0.04-7.7-21.14-39.43-30.62-1.28c-2.31,9.31-17.7,4.45-17.81-19.9C-139.51,330.8-171.43,363.26-171.67,353.02z"/>
			<path class="st32" d="M-426.8,81.81c-11.52,37.97-29.53,74.28-51.58,98.1c-22.06,23.82-55.04,23.62-59.44,50.87
				c-7.16,44.35-2.76,75.38,98.21,72.39c100.97-2.99,207.01-24.15,292.48,25.24c79.62,46.01,173.78,15.51,153.35-54.71
				c-8.48-29.17-77.36-60.26-78-106.42C-72.42,121.12-111.1,73.03-181.8,89c-70.69,15.97-151.98-32-170.81-40.65
				c-18.84-8.64-63.07-14.54-73.05,30.53L-426.8,81.81z"/>
			<path class="st33" d="M-425.18,61.02c-11.13,36.18-28.6,70.74-50.11,93.37c-21.5,22.64-61.95,39.84-60.26,66.22
				c1.69,26.38-0.12,53.97,98.75,51.54c98.88-2.43,225.58-17.58,289.94,21.89c64.35,39.46,189.05,19.43,146.57-48.13
				c-15.78-25.09-69.92-58.16-70.75-102.2c-0.82-44.04-45-89.74-114.17-74.8c-69.17,14.94-148.97-31.17-167.46-39.49
				c-18.48-8.32-61.83-14.13-71.41,28.82L-425.18,61.02z"/>
		</g>
	</g>
	<rect x="4" y="4" class="st43" width="496" height="496"/>
	<g>
		<defs>
			<rect id="SVGID_11_" x="4" y="4" width="496" height="496"/>
		</defs>
		<clipPath id="SVGID_4_">
			<use xlink:href="#SVGID_11_"  style="overflow:visible;"/>
		</clipPath>
		<g class="st26">
			<path class="st32" d="M425.14,193.2c11.75,38.73,30.11,75.75,52.6,100.05c22.49,24.29,56.13,24.09,60.61,51.88
				c7.3,45.24,2.82,76.88-100.16,73.83c-102.97-3.04-211.12-24.63-298.29,25.75c-81.2,46.92-177.22,15.82-156.4-55.8
				c8.65-29.75,78.9-61.46,79.56-108.54c0.65-47.07,40.1-96.12,112.2-79.83c72.1,16.29,154.99-32.64,174.2-41.45
				c19.21-8.81,64.33-14.83,74.5,31.14L425.14,193.2z"/>
			<path class="st33" d="M423.49,171.99c11.35,36.9,29.17,72.14,51.1,95.23c21.93,23.09,63.18,40.63,61.46,67.54
				c-1.73,26.9,0.12,55.04-100.72,52.56c-100.84-2.48-230.05-17.92-295.68,22.32C74.02,449.89-53.15,429.46-9.83,360.55
				c16.09-25.59,71.31-59.31,72.15-104.22c0.84-44.91,45.89-91.52,116.43-76.29c70.54,15.24,151.93-31.79,170.78-40.28
				c18.85-8.49,63.06-14.41,72.83,29.39L423.49,171.99z"/>
			<path class="st34" d="M390.3,188.04c9.27,30.13,23.82,58.92,41.73,77.76c17.9,18.85,51.59,33.18,50.19,55.15
				c-1.41,21.97,0.1,44.95-82.24,42.93c-82.35-2.03-187.88-14.64-241.48,18.22c-53.6,32.87-157.46,16.18-122.07-40.08
				c13.14-20.9,58.24-48.45,58.93-85.12c0.68-36.68,37.48-74.74,95.08-62.3c57.61,12.44,124.07-25.96,139.47-32.89
				c15.39-6.93,51.5-11.77,59.47,24L390.3,188.04z"/>
			<path class="st35" d="M501.69,325.24c-3.27,25.17-32.54,41.82-58.44,36.73c-25.9-5.09-36.09-19.47-65.24,4.06
				c-29.15,23.53-36.83-21.98-49.75,11.21c-12.92,33.19-111.23,80.96-150.9,15.57c-5.48-8.66-48.05-16.8-64.49,9.25
				c-16.45,26.05-48.74,14.93-59.71,7.87c-10.97-7.06-27.7,8.15-35-6.64c-7.3-14.78-8.35-79.11-8.35-79.11l99.69-16.09l90.23-24.95
				l130.4-0.48l168.89-1.66"/>
			<path class="st36" d="M154.45,351.76c0.46-19.61,14.2-35.06,26.53-27.35c9.04,5.65,22.86,3.09,36.36-3.22
				c39.24-18.34,65.52-24.69,91.95-15.28c20.82,7.42,23.69-3.92,23.2-8.57c-0.48-4.65-119.24-12.01-77.65,4.56
				c41.59,16.57,20.45,8.09,20.23-12.98c-61.55,17.21-80.25,7.11-116.7,23.18c-36.46,16.07-157.25,4.56-175.56,4.24
				c16.83,52.58,30.74,72.73,38,63.55c7.25-9.17,13.46-7.63,19.92,0.43c24.35,30.34,33.71,2.2,33.67-5.44
				c-0.04-7.63,20.97-39.12,30.37-1.27c2.29,9.23,17.56,4.42,17.67-19.74C122.56,329.72,154.22,361.93,154.45,351.76z"/>
			<path class="st36" d="M377.16,288.99c4.75,2.39,9.45,4.09,14.03,5.26c55.02,14,115.7-42.77,125.16-51.84
				c1.94,54.99-3.2,78.21-11.54,71.55c-8.34-6.66-12.78-3.4-15.54,6.14c-10.39,35.95-25.86,11.82-28.03,4.52
				c-2.17-7.29-27.76-31.25-24.23,7.55c0.86,9.46-12.53,9.27-19.58-13.73c-7.05-22.99-22.65,16.84-25.77,7.22
				c-6.01-18.56-19.57-4.36-27.04,6.55c-8.3,12.13-29.64,12.31-32.67,8.49c-1-1.26-0.38-3.23,0.49-5.11
				C339.42,320.61,370.37,294.63,377.16,288.99z"/>
			<path class="st36" d="M227.93,341.16c-10.64-8.56-27.52-18.39-27.82,2.18c-0.21,15.08-9.31,44.37-11.41,56.62
				c-6.08,35.46-27.32,9.97-37.11-30.1c-9.79-40.08-18.24-13.04-17.93-4.99c0.31,8.05-6.57,37.39-28.1,4.54
				c-5.72-8.72-10.98-10.57-16.75-1.15c-5.77,9.41-18.18-12.31-34.18-68.36c15.4,0.99,117.31,17.41,147.38,1.76
				c30.06-15.65,169.45-8.29,220.55-24.26c0.94,22.22,3.4,79.25-32.13,60.3c-35.54-18.95-31.98-3.71-31.4,1.21
				c0.57,4.92,1.86,25.15-14.86,13.97c-34.59-23.11-17.54,9.96-16.38,25.79c3.11,42.73-19.06,35.86-28.64,7.32
				c-9.58-28.54-9.42-80.72-31.13-74.83C255.9,314.45,235.74,347.45,227.93,341.16z"/>
			<path class="st32" d="M407.55,82.72c11.43,37.67,29.29,73.68,51.17,97.32c21.88,23.63,54.6,23.43,58.96,50.46
				c7.1,44,2.74,74.78-97.43,71.81c-100.16-2.97-205.36-23.96-290.14,25.04C51.13,373-42.28,342.74-22.02,273.08
				c8.41-28.94,76.74-59.78,77.38-105.57C56,121.72,94.37,74.01,164.5,89.86c70.13,15.84,150.76-31.75,169.45-40.32
				c18.69-8.57,62.57-14.42,72.46,30.29L407.55,82.72z"/>
			<path class="st33" d="M405.94,62.1c11.04,35.89,28.38,70.17,49.7,92.62c21.33,22.46,61.46,39.52,59.78,65.69
				c-1.68,26.17,0.12,53.54-97.96,51.13c-98.09-2.41-223.78-17.44-287.62,21.71c-63.84,39.15-187.54,19.28-145.39-47.75
				c15.65-24.89,69.36-57.7,70.18-101.38c0.81-43.69,44.64-89.02,113.25-74.2C236.5,84.75,315.67,39.01,334,30.75
				c18.33-8.26,61.33-14.02,70.84,28.59L405.94,62.1z"/>
			<path class="st34" d="M373.66,77.71c9.02,29.31,23.17,57.31,40.59,75.64c17.42,18.34,50.19,32.27,48.82,53.64
				c-1.37,21.37,0.1,43.73-80,41.76c-80.1-1.97-182.75-14.24-234.88,17.73C96.05,298.45-4.97,282.22,29.45,227.49
				c12.78-20.33,56.65-47.12,57.31-82.79c0.67-35.68,36.46-72.7,92.49-60.59c56.03,12.1,120.68-25.25,135.66-32
				c14.98-6.74,50.09-11.45,57.85,23.35L373.66,77.71z"/>
			<path class="st32" d="M339.71,526.55c0.38-11.04-4.03-33.04-4.54-36.2c-0.51-3.15-6.92-2.76-6.82-6.63
				c0.09-3.9-0.64-12.17-2.5-15.1c-1.86-2.94-0.99-14.69-2.74-16.99c-1.75-2.3-17.95-31.33-15.97-41.34
				c2.67-13.49,5.91,11.1,4.81,4.25"/>
			<path class="st32" d="M399.97,404.93c-7.15,26.98-0.52,20.15-2.48,39.21"/>
			<path class="st37" d="M237.04,381.91c3.25,20.1,10.4,35.67,15.97,34.77c5.58-0.9,7.47-17.93,4.22-38.03
				c-3.25-20.1-10.4-35.67-15.97-34.77C235.68,344.77,233.79,361.8,237.04,381.91z"/>
			<path class="st32" d="M351.68,616.24c-13.77,8.02-85.99,34.97-96.07,39.17c-15.77,4.48-36.12,20.64-6.42,31.3
				c6.21,7.37,18.2,10.58,24.18,3.18c6.3,3.49,17.39,5.56,21.43-0.56c6.45,4.43,24.93,3.38,28.51-5.57
				c3.01,5.31,8.41,7.66,14.68-2.37c11.59,0.7,23.46-5.72,36.34-10.37s10.97-7.57,28.36-6.51c18.87-3.05,26.53-17.8,26.59-35.2
				c0.06-17.39-25.37-130.47-25.37-130.47c-28.74,13.01-68.31,11.03-68.31,11.03c5.15,22.99,14.53,52.22,14.53,52.22
				C357.82,577.85,351.68,616.24,351.68,616.24z"/>
			<path class="st32" d="M399.97,404.93c-7.15,26.98-0.52,20.15-2.48,39.21c2.96,22.77-7.96,30.44-4.65,33.14
				c3.32,2.7,11.78,15.5,11.57,18.69c-0.27,3.93-1.81,11.44-0.3,11.84c-15,5.01-28.77,20.25-64.39,18.74
				c-8.02-24.11-10.34-31.84-10.85-35c-0.51-3.15-0.61-3.96-0.51-7.83c0.09-3.9-0.64-12.17-2.5-15.1
				c-1.86-2.94-0.99-14.69-2.74-16.99c-1.75-2.3-17.95-31.33-15.97-41.34c2.67-13.49,11.83,8.89,10.72,2.05"/>
			<path class="st32" d="M135.38,558.01c0.38-11.04-4.03-33.04-4.54-36.2c-0.51-3.15-6.92-2.76-6.82-6.64
				c0.09-3.9-0.64-12.17-2.5-15.1c-1.86-2.94-0.99-14.69-2.74-16.99c-1.75-2.3-17.95-31.33-15.97-41.34
				c2.67-13.49,8.87-3.51,7.77-10.35"/>
			<path class="st32" d="M110.58,431.39c1.1,6.84-5.1-3.14-7.77,10.35c-1.98,10.01,14.22,39.03,15.97,41.34
				c1.75,2.3,0.89,14.05,2.74,16.99c1.85,2.93,2.59,11.2,2.5,15.1c-0.1,3.88,0.01,4.69,0.51,7.84c0.51,3.16,2.83,10.89,10.85,35
				c35.63,1.52,49.4-13.73,64.4-18.73c-1.52-0.4,0.03-7.91,0.3-11.85c0.22-3.19-8.25-15.98-11.56-18.69
				c-3.31-2.69,7.61-10.37,4.65-33.14c1.96-19.06-2.19-11.86,2.48-39.21c1.87-10.95,0.14-17.22,0.14-17.22
				S121.02,429.68,110.58,431.39z"/>
			<path class="st39" d="M338.22,62.48c0.79,1.78-58.55,26.52-132.55,55.27c-74,28.75-134.62,50.62-135.41,48.84
				c-0.79-1.77,58.55-26.52,132.55-55.27C276.8,82.57,337.43,60.71,338.22,62.48z"/>
			<path class="st39" d="M370.18,103.75c0.79,1.77-58.55,26.52-132.55,55.27c-74,28.75-134.62,50.62-135.41,48.84
				c-0.79-1.78,58.55-26.52,132.55-55.27C308.76,123.84,369.39,101.97,370.18,103.75z"/>
			<path class="st39" d="M412.62,136.53c0.79,1.77-58.55,26.52-132.55,55.27c-74,28.75-134.62,50.62-135.41,48.84
				c-0.79-1.78,58.55-26.52,132.55-55.27C351.2,156.62,411.83,134.75,412.62,136.53z"/>
			<path class="st39" d="M376.94,145.71c-0.61,1.88-63.01-11.14-139.38-29.06C161.2,98.72,99.78,82.67,100.39,80.79
				c0.6-1.88,63,11.14,139.37,29.06C316.13,127.78,377.55,143.84,376.94,145.71z"/>
			<path class="st39" d="M373.26,196.86c-0.6,1.88-63.01-11.13-139.38-29.06c-76.37-17.93-137.78-33.98-137.18-35.86
				c0.6-1.88,63,11.14,139.37,29.06C312.45,178.94,373.87,194.99,373.26,196.86z"/>
			<path class="st39" d="M383.42,246.99c-0.61,1.87-63-11.14-139.37-29.06c-76.37-17.93-137.79-33.98-137.18-35.86
				c0.61-1.87,63.01,11.14,139.37,29.06C322.61,229.06,384.03,245.11,383.42,246.99z"/>
			<path class="st9" d="M299.84,229.11c4.19,25.98,31.05,43.25,59.99,38.58c28.94-4.67,49-29.52,44.8-55.5
				c-4.19-25.98-31.05-43.25-59.99-38.58C315.71,178.29,295.65,203.13,299.84,229.11z"/>
			<path class="st40" d="M319.19,214.91c1.56,9.66,11.55,16.09,22.31,14.35s18.23-10.98,16.67-20.64
				c-1.56-9.66-11.55-16.09-22.31-14.35S317.63,205.25,319.19,214.91z"/>
			<path class="st9" d="M319.28,207.24c0.89,5.54,6.62,9.23,12.79,8.23c6.17-1,10.45-6.3,9.55-11.84
				c-0.89-5.53-6.62-9.22-12.79-8.22C322.66,196.4,318.39,201.7,319.28,207.24z"/>
			<path class="st9" d="M80.2,260.63c4.19,25.98,31.05,43.25,60,38.58c28.94-4.67,49-29.52,44.8-55.5
				c-4.19-25.98-31.05-43.25-59.99-38.58C96.07,209.8,76.01,234.65,80.2,260.63z"/>
			<path class="st40" d="M99.55,246.43c1.56,9.66,11.55,16.09,22.31,14.35c10.76-1.74,18.23-10.98,16.67-20.64
				c-1.56-9.67-11.55-16.09-22.31-14.35C105.45,227.53,97.99,236.77,99.55,246.43z"/>
			<path class="st9" d="M99.64,238.76c0.89,5.54,6.62,9.22,12.8,8.23c6.17-1,10.45-6.29,9.55-11.83c-0.89-5.54-6.62-9.22-12.79-8.23
				C103.02,227.92,98.74,233.22,99.64,238.76z"/>
			<path class="st41" d="M192.31,221.62c-9.31-20.04-37.58-51.58-70.92-51.04c-33.35,0.52-52.83,5.98-52.83,5.98
				c1.73,6.31,1.73,6.31,1.73,6.31c30.6,0.81,77.61,6.73,104.29,37.38C187.39,226.65,194.63,236.48,192.31,221.62z"/>
			<path class="st41" d="M384.24,129.5c-23.45,13.77-68.3,17.61-84.94,63.91c-5.26,14.64,7.85,22.59,20.14-4.91
				c9.83-14.85,50.65-37.4,67.91-44.47C404.62,136.96,403.31,134.19,384.24,129.5z"/>
		</g>
	</g>
</g>
</svg>
