<?xml version="1.0" encoding="utf-8"?>
<!-- Generator: Adobe Illustrator 23.0.1, SVG Export Plug-In . SVG Version: 6.00 Build 0)  -->
<svg version="1.1" id="Calque_1" xmlns="http://www.w3.org/2000/svg" xmlns:xlink="http://www.w3.org/1999/xlink" x="0px" y="0px"
	 viewBox="0 0 100 100" style="enable-background:new 0 0 100 100;" xml:space="preserve">
<style type="text/css">
	.st0{fill:#00FFFF;}
	.st1{clip-path:url(#SVGID_2_);}
	.st2{fill:#A66519;}
	.st3{fill:#F5C783;}
	.st4{fill:#D79B56;}
	.st5{fill:#F29885;}
	.st6{fill:#F6B83F;}
	.st7{fill:#E57F82;}
	.st8{opacity:0.5;fill:#A5753E;enable-background:new    ;}
	.st9{fill:#FFFFFF;}
	.st10{fill:#2B2523;}
	.st11{fill:#12110B;}
</style>
<g>
	<rect class="st0" width="100" height="100"/>
	<g>
		<g>
			<defs>
				<rect id="SVGID_1_" width="100" height="100"/>
			</defs>
			<clipPath id="SVGID_2_">
				<use xlink:href="#SVGID_1_"  style="overflow:visible;"/>
			</clipPath>
			<g class="st1">
				<path class="st2" d="M84.91,38.15c2.37,7.81,6.07,15.27,10.6,20.17c4.53,4.9,11.32,4.86,12.22,10.46
					c1.47,9.12,0.57,15.5-20.19,14.89c-20.76-0.61-42.56-4.97-60.14,5.19C11.03,98.31-8.33,92.04-4.13,77.6
					c1.74-6,15.91-12.39,16.04-21.88c0.13-9.49,8.08-19.38,22.62-16.09c14.54,3.28,31.25-6.58,35.12-8.36
					c3.87-1.78,12.97-2.99,15.02,6.28L84.91,38.15z"/>
				<path class="st3" d="M84.57,33.87c2.29,7.44,5.88,14.54,10.3,19.2s12.74,8.19,12.39,13.62c-0.35,5.42,0.02,11.1-20.31,10.6
					c-20.33-0.5-46.38-3.61-59.61,4.5c-13.23,8.11-38.87,4-30.14-9.9c3.24-5.16,14.38-11.96,14.55-21.01s9.25-18.45,23.47-15.38
					c14.22,3.07,30.63-6.41,34.43-8.12c3.8-1.71,12.71-2.91,14.68,5.93L84.57,33.87z"/>
				<path class="st4" d="M77.88,37.1c1.87,6.07,4.8,11.88,8.41,15.68c3.61,3.8,10.4,6.69,10.12,11.12
					c-0.28,4.43,0.02,9.06-16.58,8.66c-16.6-0.41-37.88-2.95-48.69,3.67C20.34,82.86-0.6,79.49,6.54,68.15
					c2.65-4.21,11.74-9.77,11.88-17.16c0.14-7.4,7.56-15.07,19.17-12.56c11.61,2.51,25.01-5.23,28.12-6.63
					c3.1-1.4,10.38-2.37,11.99,4.84L77.88,37.1z"/>
				<path class="st5" d="M100.34,64.77c-0.66,5.07-6.56,8.43-11.78,7.41c-5.22-1.03-7.28-3.93-13.15,0.82
					c-5.88,4.74-7.43-4.43-10.03,2.26c-2.6,6.69-22.43,16.32-30.42,3.14c-1.1-1.75-9.69-3.39-13,1.86
					c-3.32,5.25-9.83,3.01-12.04,1.59c-2.21-1.42-5.58,1.64-7.06-1.34c-1.47-2.98-1.68-15.95-1.68-15.95l20.1-3.24l18.19-5.03
					l26.29-0.1l34.05-0.33"/>
				<path class="st6" d="M30.33,70.11c0.09-3.95,2.86-7.07,5.35-5.51c1.82,1.14,4.61,0.62,7.33-0.65c7.91-3.7,13.21-4.98,18.54-3.08
					c4.2,1.5,4.78-0.79,4.68-1.73c-0.1-0.94-24.04-2.42-15.66,0.92c8.39,3.34,4.12,1.63,4.08-2.62
					c-12.41,3.47-16.18,1.43-23.53,4.67c-7.35,3.24-31.7,0.92-35.4,0.85c3.39,10.6,6.2,14.66,7.66,12.81
					c1.46-1.85,2.71-1.54,4.02,0.09c4.91,6.12,6.8,0.44,6.79-1.1c-0.01-1.54,4.23-7.89,6.12-0.26c0.46,1.86,3.54,0.89,3.56-3.98
					C23.9,65.67,30.29,72.16,30.33,70.11z"/>
				<path class="st6" d="M75.23,57.46c0.96,0.48,1.91,0.82,2.83,1.06c11.09,2.82,23.33-8.62,25.23-10.45
					c0.39,11.09-0.65,15.77-2.33,14.43c-1.68-1.34-2.58-0.69-3.13,1.24c-2.09,7.25-5.21,2.38-5.65,0.91
					c-0.44-1.47-5.6-6.3-4.89,1.52c0.17,1.91-2.53,1.87-3.95-2.77c-1.42-4.64-4.57,3.4-5.2,1.46c-1.21-3.74-3.95-0.88-5.45,1.32
					c-1.67,2.45-5.98,2.48-6.59,1.71c-0.2-0.25-0.08-0.65,0.1-1.03C67.63,63.83,73.86,58.59,75.23,57.46z"/>
				<path class="st6" d="M45.15,67.98c-2.15-1.73-5.55-3.71-5.61,0.44c-0.04,3.04-1.88,8.95-2.3,11.42
					c-1.23,7.15-5.51,2.01-7.48-6.07c-1.97-8.08-3.68-2.63-3.61-1.01c0.06,1.62-1.32,7.54-5.67,0.92c-1.15-1.76-2.21-2.13-3.38-0.23
					c-1.16,1.9-3.67-2.48-6.89-13.78c3.1,0.2,23.65,3.51,29.71,0.35c6.06-3.16,34.16-1.67,44.47-4.89
					c0.19,4.48,0.69,15.98-6.48,12.16c-7.17-3.82-6.45-0.75-6.33,0.24c0.11,0.99,0.38,5.07-3,2.82c-6.97-4.66-3.54,2.01-3.3,5.2
					c0.63,8.61-3.84,7.23-5.77,1.48c-1.93-5.75-1.9-16.27-6.28-15.09C50.79,62.59,46.72,69.24,45.15,67.98z"/>
				<path class="st2" d="M81.36,15.87c2.3,7.59,5.91,14.85,10.32,19.62c4.41,4.76,11.01,4.72,11.89,10.17
					c1.43,8.87,0.55,15.08-19.64,14.48c-20.19-0.6-41.4-4.83-58.5,5.05C9.5,74.4-9.33,68.29-5.25,54.25
					c1.7-5.83,15.47-12.05,15.6-21.28s7.86-18.85,22-15.66c14.14,3.19,30.4-6.4,34.16-8.13c3.77-1.73,12.61-2.91,14.61,6.11
					L81.36,15.87z"/>
				<path class="st3" d="M81.04,11.71c2.23,7.24,5.72,14.15,10.02,18.67c4.3,4.53,12.39,7.97,12.05,13.24s0.02,10.79-19.75,10.31
					c-19.78-0.49-45.12-3.52-57.99,4.38s-37.81,3.89-29.31-9.63c3.16-5.02,13.98-11.63,14.15-20.44c0.16-8.81,9-17.95,22.83-14.96
					c13.83,2.99,29.8-6.23,33.49-7.9c3.7-1.67,12.36-2.83,14.28,5.76L81.04,11.71z"/>
				<path class="st4" d="M74.53,14.86c1.82,5.91,4.67,11.55,8.18,15.25c3.51,3.7,10.12,6.51,9.84,10.81s0.02,8.82-16.13,8.42
					c-16.15-0.4-36.84-2.87-47.35,3.57c-10.51,6.45-30.88,3.17-23.94-7.86c2.58-4.1,11.42-9.5,11.55-16.69
					c0.14-7.19,7.35-14.66,18.65-12.22c11.3,2.44,24.33-5.09,27.35-6.45c3.02-1.36,10.1-2.31,11.66,4.71L74.53,14.86z"/>
				<path class="st2" d="M67.68,105.35c0.08-2.23-0.81-6.66-0.92-7.3c-0.1-0.64-1.4-0.56-1.38-1.34c0.02-0.79-0.13-2.45-0.5-3.04
					c-0.37-0.59-0.2-2.96-0.55-3.43c-0.35-0.46-3.62-6.32-3.22-8.33c0.54-2.72,1.19,2.24,0.97,0.86"/>
				<path class="st2" d="M79.83,80.83c-1.44,5.44-0.1,4.06-0.5,7.91"/>
				<path class="st7" d="M46.98,76.19c0.66,4.05,2.1,7.19,3.22,7.01c1.13-0.18,1.51-3.61,0.85-7.67s-2.1-7.19-3.22-7.01
					C46.71,68.7,46.33,72.14,46.98,76.19z"/>
				<path class="st2" d="M70.1,123.44c-2.78,1.62-17.34,7.05-19.37,7.9c-3.18,0.9-7.28,4.16-1.29,6.31
					c1.25,1.49,3.67,2.13,4.88,0.64c1.27,0.7,3.51,1.12,4.32-0.11c1.3,0.89,5.03,0.68,5.75-1.12c0.61,1.07,1.7,1.54,2.96-0.48
					c2.34,0.14,4.73-1.15,7.33-2.09c2.6-0.94,2.21-1.53,5.72-1.31c3.8-0.61,5.35-3.59,5.36-7.1c0.01-3.51-5.11-26.3-5.11-26.3
					c-5.79,2.62-13.77,2.22-13.77,2.22c1.04,4.64,2.93,10.53,2.93,10.53C71.33,115.7,70.1,123.44,70.1,123.44z"/>
				<path class="st2" d="M79.83,80.83c-1.44,5.44-0.1,4.06-0.5,7.91c0.6,4.59-1.6,6.14-0.94,6.68c0.67,0.54,2.38,3.13,2.33,3.77
					c-0.05,0.79-0.36,2.31-0.06,2.39c-3.02,1.01-5.8,4.08-12.98,3.78c-1.62-4.86-2.08-6.42-2.19-7.06c-0.1-0.64-0.12-0.8-0.1-1.58
					c0.02-0.79-0.13-2.45-0.5-3.04c-0.37-0.59-0.2-2.96-0.55-3.43s-3.62-6.32-3.22-8.33c0.54-2.72,2.39,1.79,2.16,0.41"/>
				<path class="st2" d="M26.49,111.7c0.08-2.23-0.81-6.66-0.92-7.3c-0.1-0.64-1.4-0.56-1.38-1.34c0.02-0.79-0.13-2.45-0.5-3.04
					c-0.38-0.59-0.2-2.96-0.55-3.43c-0.35-0.46-3.62-6.32-3.22-8.33c0.54-2.72,1.79-0.71,1.57-2.09"/>
				<path class="st2" d="M21.49,86.17c0.22,1.38-1.03-0.63-1.57,2.09c-0.4,2.02,2.87,7.87,3.22,8.33c0.35,0.46,0.18,2.83,0.55,3.43
					c0.37,0.59,0.52,2.26,0.5,3.04c-0.02,0.78,0,0.95,0.1,1.58c0.1,0.64,0.57,2.2,2.19,7.06c7.18,0.31,9.96-2.77,12.98-3.78
					c-0.31-0.08,0.01-1.59,0.06-2.39c0.04-0.64-1.66-3.22-2.33-3.77c-0.67-0.54,1.53-2.09,0.94-6.68c0.4-3.84-0.44-2.39,0.5-7.91
					c0.38-2.21,0.03-3.47,0.03-3.47S23.59,85.82,21.49,86.17z"/>
				<path class="st8" d="M67.38,11.79c0.16,0.36-11.8,5.35-26.72,11.14s-27.14,10.21-27.3,9.85c-0.16-0.36,11.8-5.35,26.72-11.14
					C55,15.84,67.22,11.43,67.38,11.79z"/>
				<path class="st8" d="M73.83,20.11c0.16,0.36-11.8,5.35-26.72,11.14S19.96,41.46,19.8,41.1c-0.16-0.36,11.8-5.35,26.72-11.14
					C61.44,24.16,73.67,19.75,73.83,20.11z"/>
				<path class="st8" d="M82.38,26.72c0.16,0.36-11.8,5.35-26.72,11.14s-27.14,10.21-27.3,9.85c-0.16-0.36,11.8-5.35,26.72-11.14
					C70,30.77,82.22,26.36,82.38,26.72z"/>
				<path class="st8" d="M75.19,28.57c-0.12,0.38-12.7-2.25-28.1-5.86c-15.4-3.61-27.78-6.85-27.66-7.23
					c0.12-0.38,12.7,2.25,28.1,5.86C62.93,24.96,75.31,28.19,75.19,28.57z"/>
				<path class="st8" d="M74.45,38.88c-0.12,0.38-12.7-2.24-28.1-5.86s-27.78-6.85-27.66-7.23s12.7,2.25,28.1,5.86
					C62.19,35.27,74.57,38.51,74.45,38.88z"/>
				<path class="st8" d="M76.5,48.99c-0.12,0.38-12.7-2.25-28.1-5.86C33,39.52,20.62,36.28,20.74,35.9
					c0.12-0.38,12.7,2.25,28.1,5.86C64.24,45.38,76.62,48.61,76.5,48.99z"/>
				<path class="st9" d="M59.65,45.39c0.84,5.24,6.26,8.72,12.09,7.78c5.83-0.94,9.88-5.95,9.03-11.19
					c-0.84-5.24-6.26-8.72-12.09-7.78C62.84,35.14,58.8,40.15,59.65,45.39z"/>
				<path class="st10" d="M63.55,42.52c0.31,1.95,2.33,3.24,4.5,2.89s3.68-2.21,3.36-4.16c-0.31-1.95-2.33-3.24-4.5-2.89
					C64.74,38.71,63.23,40.57,63.55,42.52z"/>
				<path class="st9" d="M63.56,40.98c0.18,1.12,1.33,1.86,2.58,1.66c1.24-0.2,2.11-1.27,1.93-2.39c-0.18-1.11-1.33-1.86-2.58-1.66
					C64.25,38.79,63.39,39.86,63.56,40.98z"/>
				<path class="st9" d="M15.36,51.74c0.84,5.24,6.26,8.72,12.1,7.78c5.83-0.94,9.88-5.95,9.03-11.19
					c-0.84-5.24-6.26-8.72-12.09-7.78C18.56,41.49,14.52,46.5,15.36,51.74z"/>
				<path class="st10" d="M19.26,48.88c0.31,1.95,2.33,3.24,4.5,2.89s3.68-2.21,3.36-4.16c-0.31-1.95-2.33-3.24-4.5-2.89
					C20.45,45.07,18.95,46.93,19.26,48.88z"/>
				<path class="st9" d="M19.28,47.33c0.18,1.12,1.33,1.86,2.58,1.66c1.24-0.2,2.11-1.27,1.93-2.39c-0.18-1.12-1.33-1.86-2.58-1.66
					C19.96,45.15,19.1,46.21,19.28,47.33z"/>
				<path class="st11" d="M37.97,43.88c-1.88-4.04-7.58-10.4-14.3-10.29c-6.72,0.1-10.65,1.21-10.65,1.21
					c0.35,1.27,0.35,1.27,0.35,1.27c6.17,0.16,15.65,1.36,21.03,7.54C36.97,44.89,38.43,46.87,37.97,43.88z"/>
				<path class="st11" d="M76.66,25.3c-4.73,2.78-13.77,3.55-17.12,12.89c-1.06,2.95,1.58,4.55,4.06-0.99
					c1.98-2.99,10.21-7.54,13.69-8.97C80.77,26.81,80.51,26.25,76.66,25.3z"/>
			</g>
		</g>
	</g>
</g>
</svg>
