<?xml version="1.0" encoding="utf-8"?>
<!-- Generator: Adobe Illustrator 23.0.1, SVG Export Plug-In . SVG Version: 6.00 Build 0)  -->
<svg version="1.1" id="Calque_1" xmlns="http://www.w3.org/2000/svg" xmlns:xlink="http://www.w3.org/1999/xlink" x="0px" y="0px"
	 viewBox="0 0 100 100" style="enable-background:new 0 0 100 100;" xml:space="preserve">
<style type="text/css">
	.st0{fill:#FCEE21;}
	.st1{clip-path:url(#SVGID_2_);fill:#ADA3A4;}
	.st2{clip-path:url(#SVGID_4_);fill:#ADA3A4;}
	.st3{clip-path:url(#SVGID_6_);fill:#ADA3A4;}
	.st4{clip-path:url(#SVGID_8_);fill:#ADA3A4;}
	.st5{clip-path:url(#SVGID_10_);fill:#ADA3A4;}
	.st6{clip-path:url(#SVGID_12_);fill:#ADA3A4;}
	.st7{clip-path:url(#SVGID_14_);fill:#ADA3A4;}
	.st8{clip-path:url(#SVGID_16_);fill:#ADA3A4;}
	.st9{clip-path:url(#SVGID_18_);fill:#4E514A;}
	.st10{clip-path:url(#SVGID_20_);fill:#E89B6C;}
	.st11{clip-path:url(#SVGID_22_);fill:#4C1E14;}
	.st12{clip-path:url(#SVGID_24_);fill:#4C1E14;}
	.st13{clip-path:url(#SVGID_26_);fill:#FFFFFF;}
	.st14{clip-path:url(#SVGID_28_);fill:#12110B;}
	.st15{clip-path:url(#SVGID_30_);fill:#FFFFFF;}
	.st16{clip-path:url(#SVGID_32_);fill:#12110B;}
	.st17{clip-path:url(#SVGID_34_);fill:#FFFFFF;}
	.st18{clip-path:url(#SVGID_36_);fill:#FFFFFF;}
	.st19{clip-path:url(#SVGID_38_);fill:#422B20;}
	.st20{clip-path:url(#SVGID_40_);fill:#3C3F3B;}
	.st21{clip-path:url(#SVGID_42_);fill:#F6D8C3;}
	.st22{clip-path:url(#SVGID_44_);fill:#BB7F63;}
	.st23{clip-path:url(#SVGID_46_);fill:#BB7F63;}
	.st24{clip-path:url(#SVGID_48_);fill:#12110B;}
	.st25{clip-path:url(#SVGID_50_);fill:#12110B;}
	.st26{clip-path:url(#SVGID_52_);fill:#F2F1F2;}
	.st27{clip-path:url(#SVGID_54_);fill:#E89B6C;}
	.st28{clip-path:url(#SVGID_56_);fill:#221E1F;}
	.st29{clip-path:url(#SVGID_58_);fill:#241C17;}
	.st30{clip-path:url(#SVGID_60_);fill:#F1C4A5;}
	.st31{clip-path:url(#SVGID_62_);fill:#1D1D1B;}
	.st32{clip-path:url(#SVGID_64_);fill:#4C1E14;}
	.st33{clip-path:url(#SVGID_66_);fill:#985F53;}
	.st34{clip-path:url(#SVGID_68_);fill:#C34037;}
	.st35{clip-path:url(#SVGID_70_);fill:#D3B289;}
	.st36{clip-path:url(#SVGID_72_);fill:#1D1D1B;}
	.st37{clip-path:url(#SVGID_74_);fill:#CCC2B8;}
	.st38{clip-path:url(#SVGID_76_);fill:#1D1D1B;}
	.st39{clip-path:url(#SVGID_78_);fill:#CCC2B8;}
	.st40{clip-path:url(#SVGID_80_);fill:#1D1D1B;}
	.st41{clip-path:url(#SVGID_82_);fill:#1D1D1B;}
	.st42{clip-path:url(#SVGID_84_);fill:#51332B;}
	.st43{clip-path:url(#SVGID_86_);fill:none;stroke:#51332B;stroke-width:0.3001;stroke-miterlimit:10;}
</style>
<g>
	<rect class="st0" width="100" height="100"/>
</g>
<g>
	<g>
		<g>
			<defs>
				<rect id="SVGID_1_" width="100" height="100"/>
			</defs>
			<clipPath id="SVGID_2_">
				<use xlink:href="#SVGID_1_"  style="overflow:visible;"/>
			</clipPath>
			<path class="st1" d="M90.78,73.56c-9.3,8.46-16.14,16.09-15.28,17.05c10.89-9.25,11.48-4.59,20.78-13.05
				c9.31-8.46,13.78-16.64,12.91-17.59C108.33,59.02,100.09,65.1,90.78,73.56z"/>
		</g>
		<g>
			<defs>
				<rect id="SVGID_3_" width="100" height="100"/>
			</defs>
			<clipPath id="SVGID_4_">
				<use xlink:href="#SVGID_3_"  style="overflow:visible;"/>
			</clipPath>
			<path class="st2" d="M100.62,73.97c-0.47,0.52-1.23,0.63-1.67,0.22c-0.45-0.41-0.42-1.16,0.05-1.69
				c0.47-0.53,1.23-0.63,1.67-0.22C101.12,72.69,101.09,73.44,100.62,73.97z"/>
		</g>
		<g>
			<defs>
				<rect id="SVGID_5_" width="100" height="100"/>
			</defs>
			<clipPath id="SVGID_6_">
				<use xlink:href="#SVGID_5_"  style="overflow:visible;"/>
			</clipPath>
			<path class="st3" d="M99.24,75.6c-0.47,0.53-1.23,0.63-1.67,0.22c-0.45-0.41-0.43-1.16,0.05-1.69c0.47-0.53,1.23-0.63,1.67-0.22
				C99.74,74.31,99.72,75.07,99.24,75.6z"/>
		</g>
		<g>
			<defs>
				<rect id="SVGID_7_" width="100" height="100"/>
			</defs>
			<clipPath id="SVGID_8_">
				<use xlink:href="#SVGID_7_"  style="overflow:visible;"/>
			</clipPath>
			<path class="st4" d="M97.69,76.96c-0.47,0.53-1.23,0.63-1.67,0.22c-0.45-0.41-0.42-1.16,0.05-1.69c0.47-0.52,1.23-0.63,1.67-0.22
				C98.19,75.68,98.16,76.43,97.69,76.96z"/>
		</g>
		<g>
			<defs>
				<rect id="SVGID_9_" width="100" height="100"/>
			</defs>
			<clipPath id="SVGID_10_">
				<use xlink:href="#SVGID_9_"  style="overflow:visible;"/>
			</clipPath>
			<path class="st5" d="M96.12,78.36c-0.47,0.53-1.23,0.63-1.67,0.22c-0.45-0.41-0.42-1.16,0.05-1.69s1.23-0.63,1.67-0.22
				C96.62,77.08,96.59,77.84,96.12,78.36z"/>
		</g>
		<g>
			<defs>
				<rect id="SVGID_11_" width="100" height="100"/>
			</defs>
			<clipPath id="SVGID_12_">
				<use xlink:href="#SVGID_11_"  style="overflow:visible;"/>
			</clipPath>
			<path class="st6" d="M94.52,79.88c-0.47,0.53-1.23,0.63-1.67,0.22c-0.45-0.41-0.42-1.16,0.05-1.69c0.47-0.53,1.23-0.63,1.67-0.22
				C95.02,78.59,94.99,79.35,94.52,79.88z"/>
		</g>
		<g>
			<defs>
				<rect id="SVGID_13_" width="100" height="100"/>
			</defs>
			<clipPath id="SVGID_14_">
				<use xlink:href="#SVGID_13_"  style="overflow:visible;"/>
			</clipPath>
			<path class="st7" d="M93.03,80.98c-0.47,0.53-1.22,0.63-1.67,0.22c-0.45-0.41-0.43-1.16,0.05-1.69s1.23-0.63,1.67-0.22
				C93.53,79.7,93.51,80.46,93.03,80.98z"/>
		</g>
		<g>
			<defs>
				<rect id="SVGID_15_" width="100" height="100"/>
			</defs>
			<clipPath id="SVGID_16_">
				<use xlink:href="#SVGID_15_"  style="overflow:visible;"/>
			</clipPath>
			<path class="st8" d="M91.01,82.4c-0.56,0.44-1.32,0.4-1.69-0.08c-0.37-0.48-0.21-1.22,0.35-1.66c0.56-0.44,1.32-0.4,1.69,0.08
				C91.73,81.23,91.58,81.97,91.01,82.4z"/>
		</g>
		<g>
			<defs>
				<rect id="SVGID_17_" width="100" height="100"/>
			</defs>
			<clipPath id="SVGID_18_">
				<use xlink:href="#SVGID_17_"  style="overflow:visible;"/>
			</clipPath>
			<path class="st9" d="M63.24,89.75c0-25.17-17.9-45.57-39.98-45.57c-0.25,0-0.51,0-0.76,0.01C0.77,44.64-18.92,64.97-16.72,89.75
				c0.43,4.83,0.99,6.49,0.99,6.49c7.03,3.7,15.91,5.92,28.11,6.29c12.21,0.37,24.1,5.82,46.14,3.14
				C62.87,93.84,63.94,98.24,63.24,89.75z"/>
		</g>
		<g>
			<defs>
				<rect id="SVGID_19_" width="100" height="100"/>
			</defs>
			<clipPath id="SVGID_20_">
				<use xlink:href="#SVGID_19_"  style="overflow:visible;"/>
			</clipPath>
			<path class="st10" d="M82.57,25.32c2.86,5.73,6.11,11.47,0,22.56c2.13,11.65,6.11,23.21-12.95,33.84
				c-3.98,2.87-20.71,4.63-25.99-4.44C35.59,69.43,30.5,62.4,30.96,54.68c-4.53-0.04-0.47-4.49-2.77-13.55
				c4.34,4.9,9.62,13.96,7.58,1.94c0.74-5.17,0.92-6.19,0.92-6.19c1.39-1.76,13.11-9.8,17.51-8.23c1.08,2.77,8.01,6.38,10.78,0.65
				C69.53,26.52,70.27,24.21,82.57,25.32z"/>
		</g>
		<g>
			<defs>
				<rect id="SVGID_21_" width="100" height="100"/>
			</defs>
			<clipPath id="SVGID_22_">
				<use xlink:href="#SVGID_21_"  style="overflow:visible;"/>
			</clipPath>
			<path class="st11" d="M67.4,42.47c1.29-3.86,4.81-9.71,8.42-9.09c3.61,0.61,5.64,2.01,5.64,2.01c-0.28,1.23-0.28,1.23-0.28,1.23
				c-3.33-0.31-8.51,0.16-11.84,5.86C67.86,43.55,66.94,45.4,67.4,42.47z"/>
		</g>
		<g>
			<defs>
				<rect id="SVGID_23_" width="100" height="100"/>
			</defs>
			<clipPath id="SVGID_24_">
				<use xlink:href="#SVGID_23_"  style="overflow:visible;"/>
			</clipPath>
			<path class="st12" d="M40.72,36.27c2.96,0.8,7.57-1.99,11.38,5.59c1.2,2.4,0.28,4.96-2.22,0.64c-1.66-2.08-6.75-3.2-8.78-3.2
				C39.06,39.31,39.06,38.67,40.72,36.27z"/>
		</g>
		<g>
			<defs>
				<rect id="SVGID_25_" width="100" height="100"/>
			</defs>
			<clipPath id="SVGID_26_">
				<use xlink:href="#SVGID_25_"  style="overflow:visible;"/>
			</clipPath>
			<path class="st13" d="M79.53,42.92c0,2.46-2.13,4.46-4.74,4.46s-4.74-1.99-4.74-4.46c0-2.46,2.13-4.46,4.74-4.46
				C77.4,38.46,79.53,40.46,79.53,42.92z"/>
		</g>
		<g>
			<defs>
				<rect id="SVGID_27_" width="100" height="100"/>
			</defs>
			<clipPath id="SVGID_28_">
				<use xlink:href="#SVGID_27_"  style="overflow:visible;"/>
			</clipPath>
			<path class="st14" d="M78.41,41.61c0,1.28-1.04,2.31-2.31,2.31c-1.28,0-2.31-1.04-2.31-2.31s1.04-2.31,2.31-2.31
				C77.37,39.3,78.41,40.34,78.41,41.61z"/>
		</g>
		<g>
			<defs>
				<rect id="SVGID_29_" width="100" height="100"/>
			</defs>
			<clipPath id="SVGID_30_">
				<use xlink:href="#SVGID_29_"  style="overflow:visible;"/>
			</clipPath>
			<path class="st15" d="M51.26,46.34c-0.63,2.24-3.47,3.39-6.34,2.58c-2.87-0.81-4.68-3.29-4.05-5.53
				c0.64-2.24,3.47-3.39,6.34-2.58C50.09,41.63,51.89,44.1,51.26,46.34z"/>
		</g>
		<g>
			<defs>
				<rect id="SVGID_31_" width="100" height="100"/>
			</defs>
			<clipPath id="SVGID_32_">
				<use xlink:href="#SVGID_31_"  style="overflow:visible;"/>
			</clipPath>
			<path class="st16" d="M50.98,45.01c-0.39,1.4-1.85,2.21-3.24,1.81c-1.4-0.4-2.21-1.85-1.81-3.25c0.39-1.4,1.85-2.21,3.25-1.81
				C50.57,42.16,51.38,43.61,50.98,45.01z"/>
		</g>
		<g>
			<defs>
				<rect id="SVGID_33_" width="100" height="100"/>
			</defs>
			<clipPath id="SVGID_34_">
				<use xlink:href="#SVGID_33_"  style="overflow:visible;"/>
			</clipPath>
			<path class="st17" d="M50.29,43.52c-0.1,0.35-0.46,0.56-0.82,0.46c-0.35-0.1-0.56-0.46-0.46-0.82c0.1-0.35,0.47-0.56,0.82-0.46
				C50.19,42.81,50.39,43.18,50.29,43.52z"/>
		</g>
		<g>
			<defs>
				<rect id="SVGID_35_" width="100" height="100"/>
			</defs>
			<clipPath id="SVGID_36_">
				<use xlink:href="#SVGID_35_"  style="overflow:visible;"/>
			</clipPath>
			<path class="st18" d="M77.52,40.7c0,0.32-0.26,0.58-0.58,0.58c-0.32,0-0.58-0.26-0.58-0.58s0.26-0.58,0.58-0.58
				C77.26,40.12,77.52,40.38,77.52,40.7z"/>
		</g>
		<g>
			<defs>
				<rect id="SVGID_37_" width="100" height="100"/>
			</defs>
			<clipPath id="SVGID_38_">
				<use xlink:href="#SVGID_37_"  style="overflow:visible;"/>
			</clipPath>
			<path class="st19" d="M58.72,106.33c-9.66,17.46-14.51,26.72-36.11,26.72s-39.11-19.16-39.11-42.79"/>
		</g>
		<g>
			<defs>
				<rect id="SVGID_39_" width="100" height="100"/>
			</defs>
			<clipPath id="SVGID_40_">
				<use xlink:href="#SVGID_39_"  style="overflow:visible;"/>
			</clipPath>
			<path class="st20" d="M22.12,72.98c-1.61-6.71-7.23-11.1-12.56-9.82c-5.32,1.28-8.86,7.9-6.71,14.45
				c3.79,11.6,9.52,25.29,14.34,29.72c21.82,1.11,32.28,0.28,54.24-2.54C69.91,98.89,67.4,93,67.4,93
				c-13.22,3.79-25.99-1.02-38.75,1.94C24.58,81.63,22.24,81.34,22.12,72.98z"/>
		</g>
		<g>
			<defs>
				<rect id="SVGID_41_" width="100" height="100"/>
			</defs>
			<clipPath id="SVGID_42_">
				<use xlink:href="#SVGID_41_"  style="overflow:visible;"/>
			</clipPath>
			<path class="st21" d="M67.49,48.19c0.88,1.91,1.92,4.11-1.69,4.26c-1.19,2.94-4.72,6.58-7.04,0.49
				c-6.86,3.99-3.84-4.34-2.27-6.22c0.81-2.91,1.7-6.08,1.94-10.1c0.24-4.02,4.32-5.35,5.38,0.38
				C64.86,42.72,65.17,45.05,67.49,48.19z"/>
		</g>
		<g>
			<defs>
				<rect id="SVGID_43_" width="100" height="100"/>
			</defs>
			<clipPath id="SVGID_44_">
				<use xlink:href="#SVGID_43_"  style="overflow:visible;"/>
			</clipPath>
			<path class="st22" d="M65.79,52.57c3.61-0.15,2.57-2.34,1.69-4.26c-2.32-3.14-2.63-5.47-3.68-11.19
				C64.21,46.74,64.76,49.74,65.79,52.57z"/>
		</g>
		<g>
			<defs>
				<rect id="SVGID_45_" width="100" height="100"/>
			</defs>
			<clipPath id="SVGID_46_">
				<use xlink:href="#SVGID_45_"  style="overflow:visible;"/>
			</clipPath>
			<path class="st23" d="M58.43,36.63c-0.24,4.02-1.13,7.19-1.94,10.1c-1.56,1.88-4.59,10.21,2.27,6.22
				C58.71,47.13,58.43,36.63,58.43,36.63z"/>
		</g>
		<g>
			<defs>
				<rect id="SVGID_47_" width="100" height="100"/>
			</defs>
			<clipPath id="SVGID_48_">
				<use xlink:href="#SVGID_47_"  style="overflow:visible;"/>
			</clipPath>
			<path class="st24" d="M58.87,52.73c-0.56-1.26-1.65-4.1-2.99-1.11C56.47,53.72,56.35,53.9,58.87,52.73z"/>
		</g>
		<g>
			<defs>
				<rect id="SVGID_49_" width="100" height="100"/>
			</defs>
			<clipPath id="SVGID_50_">
				<use xlink:href="#SVGID_49_"  style="overflow:visible;"/>
			</clipPath>
			<path class="st25" d="M66.01,51.66c0.28-0.94,0.78-3.02,1.92-1.2C67.71,51.98,67.8,52.08,66.01,51.66z"/>
		</g>
		<g>
			<defs>
				<rect id="SVGID_51_" width="100" height="100"/>
			</defs>
			<clipPath id="SVGID_52_">
				<use xlink:href="#SVGID_51_"  style="overflow:visible;"/>
			</clipPath>
			<path class="st26" d="M91.95,74.13c-8.73,7.52-15.68,13.76-15.53,13.93c0.15,0.17,7.34-5.78,16.07-13.3
				c8.73-7.52,15.68-13.76,15.53-13.92C107.87,60.66,100.68,66.61,91.95,74.13z"/>
		</g>
		<g>
			<defs>
				<rect id="SVGID_53_" width="100" height="100"/>
			</defs>
			<clipPath id="SVGID_54_">
				<use xlink:href="#SVGID_53_"  style="overflow:visible;"/>
			</clipPath>
			<path class="st27" d="M67.4,93.01c2.78,6.52,2.64,5.41,4.03,11.79c7.08-2.22,12.48-0.69,15.95-5.89
				c1.53-1.74,2.08-3.61-0.49-4.16c0.21-2.15,1.46-4.37-2.08-4.44c0.28-1.59,0.63-3.12-2.22-2.84c-0.14-1.11-0.49-2.78-2.71-1.46
				s-2.5,1.81-2.5,1.81c0.63-2.71,1.32-11.24-5.82-1.46C67.75,92.87,69.13,90.92,67.4,93.01z"/>
		</g>
		<g>
			<defs>
				<rect id="SVGID_55_" width="100" height="100"/>
			</defs>
			<clipPath id="SVGID_56_">
				<use xlink:href="#SVGID_55_"  style="overflow:visible;"/>
			</clipPath>
			<path class="st28" d="M61.34,94.21c1.01,5.78,1.55,10.8,2.09,12.21c1.02,1.41,1.88,1.18,2.74,0.67c0.86-0.51,1.53-0.83,2.68-0.67
				s2.83,0.57,2.96-0.6c0.13-1.17-2.13-8.8-4.41-12.81c-2.28-4.01-1.8-1.04-2.47-0.47c-0.67,0.57-1.91,0.29-2.48,0.09
				C61.88,92.44,60.52,92.34,61.34,94.21z"/>
		</g>
		<g>
			<defs>
				<rect id="SVGID_57_" width="100" height="100"/>
			</defs>
			<clipPath id="SVGID_58_">
				<use xlink:href="#SVGID_57_"  style="overflow:visible;"/>
			</clipPath>
			<path class="st29" d="M-16.67,90.33c5.35,1.28,24.19,4.44,26.71,5.69c1.25,2.54,1.59,3.19,1.59,3.19
				c-9.76-1.64-22.89-4.44-27.98-5.33C-18.01,91.58-16.67,90.33-16.67,90.33z"/>
		</g>
		<g>
			<defs>
				<rect id="SVGID_59_" width="100" height="100"/>
			</defs>
			<clipPath id="SVGID_60_">
				<use xlink:href="#SVGID_59_"  style="overflow:visible;"/>
			</clipPath>
			<path class="st30" d="M65.79,52.47c-1.6,4.07-6.18,6.52-7.04,0.49"/>
		</g>
		<g>
			<defs>
				<rect id="SVGID_61_" width="100" height="100"/>
			</defs>
			<clipPath id="SVGID_62_">
				<use xlink:href="#SVGID_61_"  style="overflow:visible;"/>
			</clipPath>
			<path class="st31" d="M29.57,54.36c-1.15,7.17,0.93,26.72,17.79,36.58c4.37-5.13,5.5-7.56,5.5-7.56
				c1.09,3.26,3.72,7.56,3.72,7.56c6.64-2.5,9.42-5.69,12.27-8.74c-9.09,1.84-16.29,4.16-24.76-4.3
				c-7.54-9.01-12.59-12.37-13.13-23.21C29.57,54.36,31.07,55.17,29.57,54.36z"/>
		</g>
		<g>
			<defs>
				<rect id="SVGID_63_" width="100" height="100"/>
			</defs>
			<clipPath id="SVGID_64_">
				<use xlink:href="#SVGID_63_"  style="overflow:visible;"/>
			</clipPath>
			<path class="st32" d="M36.7,36.88c2.17-1.86,26.94,0.46,29.83-5.4c4.15-2.69,12.99-3.11,16.13-6.16
				c1.21,2.84,5.14,14.8-0.09,22.56c1.67,7.49,2.26,15.15,1.22,18.39c10.33,3.48,7.39-34.79,1.74-43
				c-8.61-0.26-37.08-11.14-56.82,9.81c-0.81,3.71-3.27,24.86-0.52,27.75c2.14,2.13,6.74,7.16,8.07,2.16
				C38.31,64.71,36.19,39.67,36.7,36.88z"/>
		</g>
		<g>
			<defs>
				<rect id="SVGID_65_" width="100" height="100"/>
			</defs>
			<clipPath id="SVGID_66_">
				<use xlink:href="#SVGID_65_"  style="overflow:visible;"/>
			</clipPath>
			<path class="st33" d="M68.28,65.39c-0.18,3.63-5.21,6.32-11.24,6.04c-6.03-0.29-12.95-7.62-12.78-11.24
				c0.17-3.63,7.53,0.12,13.56,0.41C63.85,60.88,68.45,61.76,68.28,65.39z"/>
		</g>
		<g>
			<defs>
				<rect id="SVGID_67_" width="100" height="100"/>
			</defs>
			<clipPath id="SVGID_68_">
				<use xlink:href="#SVGID_67_"  style="overflow:visible;"/>
			</clipPath>
			<path class="st34" d="M47.54,66.27c4.17-3.07,10.93-5.46,15.28,4.12C60.61,71.24,54.59,73.57,47.54,66.27z"/>
		</g>
		<g>
			<defs>
				<rect id="SVGID_69_" width="100" height="100"/>
			</defs>
			<clipPath id="SVGID_70_">
				<use xlink:href="#SVGID_69_"  style="overflow:visible;"/>
			</clipPath>
			<path class="st35" d="M34.48,17.08C32.33,6.03,40.19-5.08,52.52-7.84c12.34-2.76,24.53,3.86,26.63,14.92
				c0.32,1.71,1.38,4.5,1.82,4.79c4.41,1.03,10.53,1.21,12.21,3c1.68,1.79,2.47,3.93-0.75,6.06c-11.84,7.85-38.13,19.39-68.39,11.6
				c-2.09-0.54-4.16-1.69-3.78-5.9c0.16-1.74,3.47-4.73,14.53-7.44C34.44,17.64,34.61,17.75,34.48,17.08z"/>
		</g>
		<g>
			<defs>
				<rect id="SVGID_71_" width="100" height="100"/>
			</defs>
			<clipPath id="SVGID_72_">
				<use xlink:href="#SVGID_71_"  style="overflow:visible;"/>
			</clipPath>
			<path class="st36" d="M66.24,6.79c0.17,0.82,0.93,1.34,1.68,1.18C68.67,7.8,69.14,7,68.97,6.18c-0.18-0.82-0.93-1.34-1.68-1.17
				C66.53,5.18,66.07,5.98,66.24,6.79z"/>
		</g>
		<g>
			<defs>
				<rect id="SVGID_73_" width="100" height="100"/>
			</defs>
			<clipPath id="SVGID_74_">
				<use xlink:href="#SVGID_73_"  style="overflow:visible;"/>
			</clipPath>
			<path class="st37" d="M66.53,6.73c0.17,0.82,0.93,1.34,1.68,1.18c0.75-0.17,1.22-0.97,1.04-1.79s-0.93-1.34-1.68-1.18
				S66.36,5.91,66.53,6.73z"/>
		</g>
		<g>
			<defs>
				<rect id="SVGID_75_" width="100" height="100"/>
			</defs>
			<clipPath id="SVGID_76_">
				<use xlink:href="#SVGID_75_"  style="overflow:visible;"/>
			</clipPath>
			<path class="st38" d="M76.64,4.05c0.34,0.69,0.92,1.09,1.28,0.9c0.36-0.19,0.38-0.9,0.03-1.59c-0.34-0.69-0.92-1.09-1.28-0.9
				C76.3,2.66,76.29,3.37,76.64,4.05z"/>
		</g>
		<g>
			<defs>
				<rect id="SVGID_77_" width="100" height="100"/>
			</defs>
			<clipPath id="SVGID_78_">
				<use xlink:href="#SVGID_77_"  style="overflow:visible;"/>
			</clipPath>
			<path class="st39" d="M76.88,4.05c0.35,0.69,0.92,1.09,1.28,0.89c0.36-0.19,0.38-0.9,0.03-1.59c-0.34-0.69-0.92-1.09-1.28-0.89
				C76.54,2.65,76.53,3.36,76.88,4.05z"/>
		</g>
		<g>
			<defs>
				<rect id="SVGID_79_" width="100" height="100"/>
			</defs>
			<clipPath id="SVGID_80_">
				<use xlink:href="#SVGID_79_"  style="overflow:visible;"/>
			</clipPath>
			<path class="st40" d="M77.16,3.89c0.19,0.38,0.51,0.61,0.72,0.5c0.2-0.11,0.21-0.51,0.01-0.89c-0.19-0.38-0.51-0.61-0.72-0.5
				C76.97,3.11,76.97,3.51,77.16,3.89z"/>
		</g>
		<g>
			<defs>
				<rect id="SVGID_81_" width="100" height="100"/>
			</defs>
			<clipPath id="SVGID_82_">
				<use xlink:href="#SVGID_81_"  style="overflow:visible;"/>
			</clipPath>
			<path class="st41" d="M67.16,6.49c0.1,0.48,0.51,0.79,0.9,0.71c0.39-0.09,0.63-0.55,0.53-1.03c-0.1-0.48-0.51-0.79-0.9-0.71
				C67.29,5.56,67.06,6.01,67.16,6.49z"/>
		</g>
		<g>
			<defs>
				<rect id="SVGID_83_" width="100" height="100"/>
			</defs>
			<clipPath id="SVGID_84_">
				<use xlink:href="#SVGID_83_"  style="overflow:visible;"/>
			</clipPath>
			<path class="st42" d="M71.22,30.64c-1.29-1.57-2.72-2.92-5.45-3.94c-2.73-1.02-10.89-3.96-17.1-5.05s-15.64-1.97-25.66,1.87
				c-1.36,0.99-2.31,2.02-2.31,2.02c7.73-1.6,12.92-4.62,29.06-0.76c1.93,0.46,12.04,3.43,14.06,4.72c2.03,1.29,2.12,1.54,2.82,2.51
				C70.26,31.18,71.22,30.64,71.22,30.64z"/>
		</g>
		<g>
			<defs>
				<rect id="SVGID_85_" width="100" height="100"/>
			</defs>
			<clipPath id="SVGID_86_">
				<use xlink:href="#SVGID_85_"  style="overflow:visible;"/>
			</clipPath>
			<path class="st43" d="M81.02,12.06c-1.3,1.74-13.6,7.72-36.4,9.81"/>
		</g>
	</g>
</g>
</svg>
