<?xml version="1.0" encoding="utf-8"?>
<!-- Generator: Adobe Illustrator 23.0.1, SVG Export Plug-In . SVG Version: 6.00 Build 0)  -->
<svg version="1.1" xmlns="http://www.w3.org/2000/svg" xmlns:xlink="http://www.w3.org/1999/xlink" x="0px" y="0px"
	 viewBox="0 0 500 500" style="enable-background:new 0 0 500 500;" xml:space="preserve">
<style type="text/css">
	.st0{fill:#39B54A;}
	.st1{clip-path:url(#SVGID_2_);}
	.st2{fill:#A49DA0;}
	.st3{fill:#6C1011;}
	.st4{fill:#1B0B11;}
	.st5{fill:#693A28;}
	.st6{fill:#44312A;}
	.st7{fill:#65493E;}
	.st8{fill:#F1A586;}
	.st9{fill:#FFFFFF;}
	.st10{fill:#876153;}
	.st11{fill:#9F8175;}
	.st12{fill:#3B261E;}
	.st13{fill:#C3B0A9;}
	.st14{fill:#E7DFDD;}
	.st15{fill:#531911;}
	.st16{fill:#F4B79E;}
	.st17{fill:#B57C65;}
	.st18{fill:none;stroke:#000400;stroke-width:2.6779;stroke-miterlimit:10;}
	.st19{fill:none;stroke:#000400;stroke-width:1.9289;stroke-miterlimit:10;}
	.st20{fill:#000200;stroke:#030504;stroke-width:1.339;stroke-miterlimit:10;}
	.st21{fill:#EDEBEC;}
	.st22{fill:#19120F;}
	.st23{fill:#F15A24;}
	.st24{fill:#FF7BAC;}
	.st25{fill:#FFFF00;}
	.st26{clip-path:url(#SVGID_4_);}
	.st27{fill:none;stroke:#000400;stroke-width:2.6884;stroke-miterlimit:10;}
	.st28{fill:none;stroke:#000400;stroke-width:1.9364;stroke-miterlimit:10;}
	.st29{fill:#000200;stroke:#030504;stroke-width:1.3442;stroke-miterlimit:10;}
	.st30{clip-path:url(#SVGID_6_);}
	.st31{clip-path:url(#SVGID_8_);}
	.st32{fill:#A66519;}
	.st33{fill:#F5C783;}
	.st34{fill:#D79B56;}
	.st35{fill:#F29885;}
	.st36{fill:#F6B83F;}
	.st37{fill:#E57F82;}
	.st38{fill:#E2A69C;}
	.st39{opacity:0.5;fill:#A5753E;}
	.st40{fill:#2B2523;}
	.st41{fill:#12110B;}
	.st42{clip-path:url(#SVGID_10_);}
	.st43{fill:#00FFFF;}
	.st44{clip-path:url(#SVGID_12_);}
</style>
<g id="Calque_1">
	<g>
		<defs>
			<rect id="SVGID_1_" x="-520" y="0" width="500" height="500"/>
		</defs>
		<clipPath id="SVGID_2_">
			<use xlink:href="#SVGID_1_"  style="overflow:visible;"/>
		</clipPath>
		<g class="st1">
			<path class="st2" d="M-32.08,363.41c-44.9,40.84-77.9,77.68-73.71,82.29c52.54-44.65,55.41-22.14,100.31-62.99
				C39.42,341.87,61,302.41,56.8,297.8C52.61,293.2,12.81,322.56-32.08,363.41z"/>
			<path class="st2" d="M35.47,342.11c-1.98,2.8-5.52,3.71-7.91,2.02c-2.4-1.69-2.73-5.33-0.75-8.13c1.98-2.8,5.52-3.71,7.91-2.02
				C37.11,335.67,37.45,339.31,35.47,342.11z"/>
			<path class="st2" d="M28.86,351.63c-2.3,2.54-5.92,3.02-8.1,1.06c-2.17-1.97-2.06-5.62,0.24-8.17c2.3-2.54,5.92-3.02,8.09-1.06
				C31.27,345.44,31.16,349.09,28.86,351.63z"/>
			<path class="st2" d="M22.89,358.88c-2.3,2.54-5.93,3.02-8.1,1.06c-2.17-1.96-2.07-5.62,0.24-8.16c2.3-2.55,5.92-3.02,8.09-1.06
				C25.29,352.68,25.19,356.34,22.89,358.88z"/>
			<path class="st2" d="M15.39,365.37c-2.3,2.55-5.93,3.02-8.09,1.06c-2.17-1.97-2.07-5.62,0.24-8.16c2.3-2.55,5.92-3.02,8.09-1.06
				C17.8,359.17,17.69,362.83,15.39,365.37z"/>
			<path class="st2" d="M8.76,373.23c-2.3,2.55-5.93,3.02-8.09,1.06c-2.18-1.97-2.07-5.62,0.23-8.16c2.3-2.55,5.92-3.02,8.09-1.06
				C11.17,367.03,11.07,370.68,8.76,373.23z"/>
			<path class="st2" d="M1.25,379.79c-2.3,2.54-5.93,3.02-8.1,1.06c-2.17-1.97-2.06-5.62,0.24-8.16c2.3-2.55,5.92-3.02,8.09-1.06
				C3.65,373.59,3.55,377.24,1.25,379.79z"/>
			<path class="st5" d="M26.82,129.85c1.65,10.35-23.57,22.97-56.31,28.17c-32.75,5.21-60.62,1.03-62.27-9.32
				c-1.65-10.36,14.86-28.35,47.6-33.55C-11.41,109.95,25.18,119.5,26.82,129.85z"/>
			<path class="st10" d="M-404,198.43c18.08-37.59,27.2-55.05,71.6-69.25c44.4-14.21,155.9-52.1,266.46-39.47
				c23.43,2.68,67.61,8.64,94.4,39.47C-80.22,117.17-185.07,98.36-404,198.43z"/>
			<path class="st21" d="M-26.47,366.13c-42.12,36.29-75.68,66.39-74.95,67.22c0.72,0.84,35.45-27.91,77.56-64.2
				c42.11-36.29,75.67-66.38,74.95-67.22C50.37,301.1,15.65,329.84-26.47,366.13z"/>
		</g>
	</g>
</g>
<g id="Calque_2">
	<rect y="-0.05" class="st25" width="500" height="500"/>
	<g>
		<defs>
			<rect id="SVGID_3_" y="-2" width="500" height="503.91"/>
		</defs>
		<clipPath id="SVGID_4_">
			<use xlink:href="#SVGID_3_"  style="overflow:visible;"/>
		</clipPath>
		<g class="st26">
			<path class="st2" d="M487.92,364.25c-44.9,41.16-77.9,78.29-73.71,82.93c52.54-45,55.41-22.32,100.31-63.48
				c44.91-41.16,66.48-80.93,62.29-85.58C572.61,293.49,532.81,323.08,487.92,364.25z"/>
			<path class="st2" d="M505.95,394.95c-2.3,2.56-5.93,3.04-8.09,1.06c-2.18-1.98-2.07-5.66,0.24-8.22c2.3-2.57,5.92-3.04,8.09-1.07
				C508.35,388.7,508.25,392.38,505.95,394.95z"/>
			<path class="st2" d="M498.77,400.34c-2.3,2.56-5.93,3.04-8.1,1.06c-2.17-1.98-2.07-5.66,0.24-8.23c2.3-2.57,5.92-3.05,8.09-1.07
				C501.17,394.08,501.07,397.76,498.77,400.34z"/>
			<path class="st2" d="M489.02,407.24c-2.72,2.12-6.36,1.94-8.15-0.4c-1.79-2.34-1.04-5.94,1.68-8.05
				c2.71-2.12,6.36-1.94,8.15,0.39C492.49,401.51,491.74,405.12,489.02,407.24z"/>
			<path class="st5" d="M234.65,178.55c1.65,10.43-23.56,23.14-56.31,28.39c-32.75,5.24-60.62,1.04-62.27-9.4
				c10.23-13.33,23.57-23.14,56.31-28.39C205.13,163.9,233.01,168.11,234.65,178.55z"/>
			<path class="st5" d="M546.82,128.87c1.65,10.43-23.57,23.15-56.31,28.39c-32.75,5.25-60.62,1.04-62.27-9.39
				c-1.65-10.44,14.86-28.57,47.6-33.81C508.59,108.8,545.18,118.43,546.82,128.87z"/>
			<path class="st7" d="M354.97,442.99c0-122.42-86.39-221.66-192.96-221.66c-1.22,0-2.43,0.01-3.64,0.04
				C53.49,223.6-41.56,322.44-30.94,442.99c2.07,23.49,4.75,31.58,4.75,31.58c33.92,17.99,76.77,28.79,135.68,30.59
				c58.92,1.8,116.32,28.29,222.71,15.29C353.19,462.88,358.33,484.3,354.97,442.99z"/>
			<path class="st8" d="M448.26,129.57c13.83,27.89,29.46,55.78,0,109.75c10.27,56.67,29.46,112.9-62.49,164.63
				c-19.19,13.94-99.98,22.49-125.42-21.59c-38.83-38.23-63.38-72.42-61.15-109.98c-21.87-0.22-73.2-62.75-13.39-65.9
				c20.98,23.84,46.42,67.92,36.6,9.45c3.57-25.19,4.46-30.14,4.46-30.14c6.7-8.54,63.28-47.68,84.53-40.03
				c5.18,13.5,38.66,31.04,52.04,3.15C385.32,135.41,388.9,124.17,448.26,129.57z"/>
			<path d="M375.06,195.24c6.25-11.25,23.21-28.34,40.61-26.54c17.4,1.8,27.23,5.85,27.23,5.85c-1.34,3.6-1.34,3.6-1.34,3.6
				c-16.06-0.9-41.06,0.45-57.13,17.09C377.29,198.39,372.83,203.78,375.06,195.24z"/>
			<path d="M239.82,188.04c14.28,2.25,36.54-5.6,54.9,15.74c5.8,6.75,1.34,13.95-10.71,1.8c-8.03-5.85-32.58-9-42.4-9
				C231.79,196.59,231.79,194.79,239.82,188.04z"/>
			<ellipse class="st9" cx="407.94" cy="225.31" rx="22.91" ry="29.76"/>
			<path d="M428.17,232.57c0,6.21-5,11.25-11.16,11.25c-6.16,0-11.16-5.04-11.16-11.25c0-6.21,5-11.25,11.16-11.25
				C423.17,221.33,428.17,226.36,428.17,232.57z"/>
			<path class="st9" d="M301.22,236.55c0,16.44-10.25,29.76-22.91,29.76c-12.65,0-22.91-13.32-22.91-29.76
				c0-16.43,10.26-29.76,22.91-29.76C290.96,206.79,301.22,220.12,301.22,236.55z"/>
			<path d="M298.54,243.82c0,6.21-5,11.25-11.16,11.25c-6.17,0-11.16-5.04-11.16-11.25c0-6.21,4.99-11.25,11.16-11.25
				C293.55,232.57,298.54,237.61,298.54,243.82z"/>
			<path class="st9" d="M294.01,238.53c0,1.56-1.26,2.83-2.81,2.83s-2.81-1.26-2.81-2.83s1.25-2.83,2.81-2.83
				S294.01,236.97,294.01,238.53z"/>
			<path class="st9" d="M423.91,228.14c0,1.56-1.26,2.83-2.81,2.83c-1.55,0-2.81-1.26-2.81-2.83s1.25-2.83,2.81-2.83
				C422.65,225.31,423.91,226.57,423.91,228.14z"/>
			<path class="st9" d="M285.66,310.43c7.93,1.15,15.68,1.83,23.07,1.63c12.94-0.34,24.78-3.36,34.53-11.17
				c4.06,6.81,24.3,12.75,31.19-0.41c16.8,1.36,28.09,1.17,43.85,6.01c-38.29-1.06-77.93,11.2-98.64,33.44
				c-20.73,22.24-27.27,14.98-41.34,13.17C282.71,329.04,285.66,310.43,285.66,310.43z"/>
			<path class="st10" d="M430.85,51.3c-6.13-44.66-55.19-92.44-152.54-80.29C179.49-16.66,174.1,49.82,180.24,94.48
				C231.12,74.24,306.55,34.43,430.85,51.3z"/>
			<path class="st11" d="M278.31-28.99C179.49-16.66,174.1,49.82,180.24,94.48c40.78-10.92,57.37-8.13,73.04-2.56
				C247.29,28.74,248.03,19.66,278.31-28.99z"/>
			<path class="st10" d="M116,197.98c18.08-37.88,27.2-55.48,71.6-69.79c44.4-14.32,155.9-52.51,266.46-39.78
				c23.43,2.7,67.61,8.71,94.4,39.78C439.78,116.08,334.93,97.13,116,197.98z"/>
			<path d="M224.56,237.34c-1.84-19.5-0.1-37.95,2.31-51.54c10.46-9.03,69.97-49.04,84.53-40.03c7.41,15.75,38.11,31.68,52.04,3.15
				c20.04-13.06,60.25-22.48,85.25-19.34c10.27,24.29,24.03,43.16,12.38,79.62c16.19-13.95,28.74-49.65,1.49-89.6
				c-41.54-1.23-156.53-9.03-274.22,47.7c-3.88,18.05-17.93,24.66-4.69,38.7c10.33,10.36,20.68,21.9,28.83,33.01
				C222.42,247.42,225.82,250.64,224.56,237.34z"/>
			<path class="st12" d="M333.2,523.63c-46.62,84.89-70.05,129.96-174.3,129.96c-104.24,0-188.75-93.18-188.75-208.13"/>
			<path class="st10" d="M192.47,270.81c-5.54,34.86,4.49,130,85.84,177.9c21.09-24.97,26.53-36.79,26.53-36.79
				c5.27,15.87,17.99,36.79,17.99,36.79c32.05-12.15,45.46-27.68,59.22-42.52c-43.87,8.95-78.63,20.25-119.47-20.91
				c-40.84-41.16-60.76-60.17-63.38-112.9C192.47,270.81,199.72,274.8,192.47,270.81z"/>
			<path class="st13" d="M180.24,94.48c-9.37,17.54-10.04,27.6,4.69,33.71c34.82-8.74,155.95-51.06,269.14-39.78
				c-2.68-17.54,1.28-34.45-23.21-37.11C406.36,48.64,313.77,27.57,180.24,94.48z"/>
			<path class="st14" d="M232.68,114.78c-21.35,5.83-37.97,10.95-47.76,13.4c-14.73-6.1-14.06-16.16-4.69-33.71
				c13.78-6.91,27.12-12.87,40-18.02c9.66-3.74,23.01-8.68,30.78-11.09c-0.58,17.64-3.07,27.32,2.32,43.97
				C235.7,113.96,238.21,114.04,232.68,114.78z"/>
			<path class="st10" d="M156.5,361.4c-7.79-32.61-34.91-53.99-60.59-47.77c-25.68,6.23-42.74,38.44-32.4,70.32
				c18.31,56.43,45.98,123.01,69.19,144.6c105.33,5.4,155.77,1.35,261.77-12.37c-7.3-28.7-19.41-57.35-19.41-57.35
				c-63.82,18.44-125.42-4.95-187.01,9.44C168.41,403.5,157.09,402.07,156.5,361.4z"/>
			<path class="st16" d="M388.45,255.07c5.8,9.44,12.72,20.24-11.23,20.99c1.16,57.77-40.99,32.19-46.68,2.42
				c-45.53,19.7-25.44-21.39-15.07-30.68c5.35-14.32,11.28-29.98,12.84-49.82c1.55-19.83,28.67-26.38,35.7,1.86
				C371.04,228.08,373.05,239.55,388.45,255.07z"/>
			<path class="st17" d="M377.22,276.64c23.95-0.75,17.03-11.55,11.23-20.99c-15.4-15.52-17.4-26.99-24.44-55.23
				C366.69,247.87,370.35,262.68,377.22,276.64z"/>
			<path class="st17" d="M328.31,197.98c-1.56,19.83-7.49,35.49-12.84,49.82c-10.38,9.29-30.46,50.39,15.07,30.68
				C330.2,249.8,328.31,197.98,328.31,197.98z"/>
			<path d="M331.28,277.45c-3.71-6.23-10.93-20.23-19.87-5.49C315.33,282.32,314.57,283.2,331.28,277.45z"/>
			<path d="M378.65,272.17c1.82-4.63,5.17-14.91,12.78-5.91C389.91,273.71,390.52,274.23,378.65,272.17z"/>
			<polygon class="st29" points="306.99,351.12 306.1,351.71 305.93,312.49 306.99,312.56 			"/>
			<polygon class="st29" points="327.41,332.59 326.58,333.26 326.35,309.81 327.41,309.48 			"/>
			<polygon class="st29" points="346.1,321.08 345.27,321.61 345.06,303.69 346.1,304.77 			"/>
			<polygon class="st29" points="367.17,313.14 366.33,313.42 366.12,295.5 367.17,296.59 			"/>
			<polygon class="st29" points="383.63,309.43 382.79,309.48 382.58,301.64 383.63,301.71 			"/>
			<path class="st16" d="M377.22,276.15c1.16,57.77-40.99,32.19-46.68,2.42"/>
			<path class="st11" d="M253.34,109.34c-19.05,5.21-107.77,15.95-126.75,67.37c-5.8,11.36-10.58,21.27-10.58,21.27
				c38.44-16.99,118.29-51.63,146.43-58.82C258.73,123.2,252.78,118.48,253.34,109.34z"/>
			<path class="st17" d="M189.22,221.33c-10.47-7.77-27.77-5.68-13.82,17.2c13.95,22.88,20.41,23.08,24.09,22.05
				C203.19,259.55,189.22,221.33,189.22,221.33z"/>
			<path class="st21" d="M493.53,366.99c-42.12,36.58-75.68,66.91-74.95,67.75c0.72,0.84,35.45-28.12,77.56-64.7
				c42.11-36.57,75.67-66.9,74.95-67.74C570.37,301.45,535.65,330.41,493.53,366.99z"/>
			<path class="st8" d="M375.06,458.83c13.39,31.71,12.72,26.31,19.41,57.35c34.14-10.8,60.25-3.37,76.99-28.68
				c7.37-8.44,10.04-17.55-2.34-20.24c1-10.46,7.03-21.26-10.04-21.59c1.34-7.76,3.01-15.18-10.71-13.83
				c-0.67-5.4-2.34-13.49-13.06-7.08c-10.71,6.41-12.05,8.77-12.05,8.77c3.01-13.16,6.36-54.65-28.12-7.09
				C376.73,458.15,383.43,448.71,375.06,458.83z"/>
			<path class="st7" d="M345.82,464.65c4.88,28.12,7.48,52.54,10.1,59.38c4.92,6.84,9.07,5.7,13.22,3.25
				c4.15-2.45,7.39-4.05,12.91-3.25c5.52,0.8,13.67,2.77,14.28-2.92c0.62-5.69-10.29-42.8-21.28-62.28
				c-10.99-19.48-8.68-5.08-11.91-2.29c-3.22,2.79-9.22,1.39-11.98,0.47C348.4,456.07,341.87,455.58,345.82,464.65z"/>
			<path class="st22" d="M-30.68,445.82C-4.86,452.01,86.1,467.4,98.2,473.48c6.02,12.35,7.66,15.51,7.66,15.51
				c-47.12-7.99-110.47-21.61-135.04-25.95C-37.14,451.89-30.68,445.82-30.68,445.82z"/>
		</g>
	</g>
	<g>
		<defs>
			<rect id="SVGID_5_" x="520" width="500" height="500"/>
		</defs>
		<clipPath id="SVGID_6_">
			<use xlink:href="#SVGID_5_"  style="overflow:visible;"/>
		</clipPath>
		<g class="st30">
			<path class="st7" d="M874.97,441.54c0-121.47-86.39-219.94-192.96-219.94c-1.22,0-2.43,0.01-3.64,0.04
				c-104.89,2.21-199.94,100.29-189.31,219.9c2.07,23.31,4.75,31.34,4.75,31.34c33.92,17.85,76.77,28.56,135.68,30.35
				c58.92,1.79,116.32,28.07,222.71,15.18C873.19,461.27,878.33,482.53,874.97,441.54z"/>
			<path class="st12" d="M853.2,521.56c-46.62,84.24-70.05,128.96-174.3,128.96c-104.24,0-188.75-92.46-188.75-206.51"/>
			<path class="st22" d="M489.32,444.35c25.82,6.15,116.77,21.42,128.88,27.45c6.02,12.25,7.66,15.39,7.66,15.39
				c-47.12-7.92-110.47-21.44-135.04-25.74C482.86,450.38,489.32,444.35,489.32,444.35z"/>
		</g>
	</g>
</g>
</svg>
