<?xml version="1.0" encoding="utf-8"?>
<!-- Generator: Adobe Illustrator 23.0.1, SVG Export Plug-In . SVG Version: 6.00 Build 0)  -->
<svg version="1.1" xmlns="http://www.w3.org/2000/svg" xmlns:xlink="http://www.w3.org/1999/xlink" x="0px" y="0px"
	 viewBox="0 0 500 500" style="enable-background:new 0 0 500 500;" xml:space="preserve">
<style type="text/css">
	.st0{fill:#39B54A;}
	.st1{clip-path:url(#SVGID_2_);}
	.st2{fill:#A49DA0;}
	.st3{fill:#6C1011;}
	.st4{fill:#1B0B11;}
	.st5{fill:#693A28;}
	.st6{fill:#44312A;}
	.st7{fill:#65493E;}
	.st8{fill:#F1A586;}
	.st9{fill:#FFFFFF;}
	.st10{fill:#876153;}
	.st11{fill:#9F8175;}
	.st12{fill:#3B261E;}
	.st13{fill:#C3B0A9;}
	.st14{fill:#E7DFDD;}
	.st15{fill:#531911;}
	.st16{fill:#F4B79E;}
	.st17{fill:#B57C65;}
	.st18{fill:none;stroke:#000400;stroke-width:2.6779;stroke-miterlimit:10;}
	.st19{fill:none;stroke:#000400;stroke-width:1.9289;stroke-miterlimit:10;}
	.st20{fill:#000200;stroke:#030504;stroke-width:1.339;stroke-miterlimit:10;}
	.st21{fill:#EDEBEC;}
	.st22{fill:#19120F;}
	.st23{fill:#F15A24;}
	.st24{fill:#FF7BAC;}
	.st25{fill:#FFFF00;}
	.st26{clip-path:url(#SVGID_4_);}
	.st27{fill:none;stroke:#000400;stroke-width:2.6884;stroke-miterlimit:10;}
	.st28{fill:none;stroke:#000400;stroke-width:1.9364;stroke-miterlimit:10;}
	.st29{fill:#000200;stroke:#030504;stroke-width:1.3442;stroke-miterlimit:10;}
	.st30{clip-path:url(#SVGID_6_);}
	.st31{clip-path:url(#SVGID_8_);}
	.st32{fill:#A66519;}
	.st33{fill:#F5C783;}
	.st34{fill:#D79B56;}
	.st35{fill:#F29885;}
	.st36{fill:#F6B83F;}
	.st37{fill:#E57F82;}
	.st38{fill:#E2A69C;}
	.st39{opacity:0.5;fill:#A5753E;}
	.st40{fill:#2B2523;}
	.st41{fill:#12110B;}
	.st42{clip-path:url(#SVGID_10_);}
	.st43{fill:#00FFFF;}
	.st44{clip-path:url(#SVGID_12_);}
</style>
<g id="Calque_1">
</g>
<g id="Calque_2">
	<rect class="st24" width="500" height="500"/>
	<g>
		<defs>
			<rect id="SVGID_3_" x="-520" y="-2" width="500" height="503.91"/>
		</defs>
		<clipPath id="SVGID_2_">
			<use xlink:href="#SVGID_3_"  style="overflow:visible;"/>
		</clipPath>
		<g class="st1">
			<path class="st2" d="M-32.08,364.25c-44.9,41.16-77.9,78.29-73.71,82.93c52.54-45,55.41-22.32,100.31-63.48
				C39.42,342.54,61,302.77,56.8,298.13C52.61,293.49,12.81,323.08-32.08,364.25z"/>
			<path class="st2" d="M35.47,342.78c-1.98,2.82-5.52,3.74-7.91,2.04c-2.4-1.7-2.73-5.37-0.75-8.19c1.98-2.83,5.52-3.74,7.91-2.04
				C37.11,336.29,37.45,339.96,35.47,342.78z"/>
			<path class="st2" d="M28.86,352.38c-2.3,2.56-5.92,3.04-8.1,1.07c-2.17-1.98-2.06-5.66,0.24-8.23c2.3-2.56,5.92-3.04,8.09-1.07
				C31.27,346.13,31.16,349.81,28.86,352.38z"/>
			<path class="st2" d="M22.89,359.69c-2.3,2.56-5.93,3.04-8.1,1.06c-2.17-1.98-2.07-5.66,0.24-8.22c2.3-2.57,5.92-3.05,8.09-1.07
				C25.29,353.44,25.19,357.12,22.89,359.69z"/>
			<path class="st2" d="M15.39,366.23c-2.3,2.57-5.93,3.04-8.09,1.07c-2.17-1.98-2.07-5.66,0.24-8.23c2.3-2.57,5.92-3.05,8.09-1.07
				C17.8,359.98,17.69,363.66,15.39,366.23z"/>
			<path class="st2" d="M8.76,374.14c-2.3,2.57-5.93,3.05-8.09,1.07c-2.18-1.98-2.07-5.66,0.23-8.23c2.3-2.57,5.92-3.05,8.09-1.07
				C11.17,367.89,11.07,371.58,8.76,374.14z"/>
			<path class="st2" d="M1.25,380.76c-2.3,2.56-5.93,3.04-8.1,1.06c-2.17-1.98-2.06-5.66,0.24-8.23c2.3-2.57,5.92-3.05,8.09-1.07
				C3.65,374.51,3.55,378.19,1.25,380.76z"/>
			<path class="st5" d="M26.82,128.87c1.65,10.43-23.57,23.15-56.31,28.39c-32.75,5.25-60.62,1.04-62.27-9.39
				c-1.65-10.44,14.86-28.57,47.6-33.81C-11.41,108.8,25.18,118.43,26.82,128.87z"/>
			<path class="st10" d="M-404,197.98c18.08-37.88,27.2-55.48,71.6-69.79c44.4-14.32,155.9-52.51,266.46-39.78
				c23.43,2.7,67.61,8.71,94.4,39.78C-80.22,116.08-185.07,97.13-404,197.98z"/>
			<path class="st21" d="M-26.47,366.99c-42.12,36.58-75.68,66.91-74.95,67.75c0.72,0.84,35.45-28.12,77.56-64.7
				c42.11-36.57,75.67-66.9,74.95-67.74C50.37,301.45,15.65,330.41-26.47,366.99z"/>
		</g>
	</g>
	<g>
		<defs>
			<rect id="SVGID_5_" width="500" height="500"/>
		</defs>
		<clipPath id="SVGID_4_">
			<use xlink:href="#SVGID_5_"  style="overflow:visible;"/>
		</clipPath>
		<g class="st26">
			<path class="st2" d="M487.92,363.41c-44.9,40.84-77.9,77.68-73.71,82.29c52.54-44.65,55.41-22.14,100.31-62.99
				c44.91-40.84,66.48-80.3,62.29-84.92C572.61,293.2,532.81,322.56,487.92,363.41z"/>
			<path class="st2" d="M505.95,393.87c-2.3,2.54-5.93,3.01-8.09,1.05c-2.18-1.96-2.07-5.61,0.24-8.16c2.3-2.55,5.92-3.02,8.09-1.06
				C508.35,387.67,508.25,391.32,505.95,393.87z"/>
			<path class="st2" d="M498.77,399.22c-2.3,2.54-5.93,3.01-8.1,1.06c-2.17-1.96-2.07-5.62,0.24-8.16c2.3-2.55,5.92-3.02,8.09-1.06
				C501.17,393.01,501.07,396.66,498.77,399.22z"/>
			<path class="st2" d="M489.02,406.06c-2.72,2.1-6.36,1.93-8.15-0.39c-1.79-2.32-1.04-5.9,1.68-7.99c2.71-2.1,6.36-1.93,8.15,0.39
				C492.49,400.39,491.74,403.96,489.02,406.06z"/>
			<path class="st5" d="M234.65,179.15c1.65,10.35-23.56,22.96-56.31,28.17c-32.75,5.2-60.62,1.03-62.27-9.32
				c10.23-13.23,23.57-22.96,56.31-28.17C205.13,164.62,233.01,168.79,234.65,179.15z"/>
			<path class="st5" d="M546.82,129.85c1.65,10.35-23.57,22.97-56.31,28.17c-32.75,5.21-60.62,1.03-62.27-9.32
				c-1.65-10.36,14.86-28.35,47.6-33.55C508.59,109.95,545.18,119.5,546.82,129.85z"/>
			<path class="st7" d="M354.97,441.54c0-121.47-86.39-219.94-192.96-219.94c-1.22,0-2.43,0.01-3.64,0.04
				C53.49,223.85-41.56,321.92-30.94,441.54c2.07,23.31,4.75,31.34,4.75,31.34c33.92,17.85,76.77,28.56,135.68,30.35
				c58.92,1.79,116.32,28.07,222.71,15.18C353.19,461.27,358.33,482.53,354.97,441.54z"/>
			<path class="st8" d="M448.26,130.55c13.83,27.67,29.46,55.35,0,108.9c10.27,56.23,29.46,112.03-62.49,163.35
				c-19.19,13.84-99.98,22.31-125.42-21.43c-38.83-37.94-63.38-71.85-61.15-109.12c-21.87-0.22-73.2-62.26-13.39-65.39
				c20.98,23.66,46.42,67.4,36.6,9.37c3.57-24.99,4.46-29.9,4.46-29.9c6.7-8.48,63.28-47.31,84.53-39.72
				c5.18,13.39,38.66,30.8,52.04,3.12C385.32,136.35,388.9,125.19,448.26,130.55z"/>
			<path d="M375.06,195.71c6.25-11.16,23.21-28.12,40.61-26.33c17.4,1.78,27.23,5.8,27.23,5.8c-1.34,3.57-1.34,3.57-1.34,3.57
				c-16.06-0.89-41.06,0.44-57.13,16.96C377.29,198.84,372.83,204.19,375.06,195.71z"/>
			<path d="M239.82,188.57c14.28,2.23,36.54-5.56,54.9,15.62c5.8,6.69,1.34,13.84-10.71,1.79c-8.03-5.81-32.58-8.93-42.4-8.93
				C231.79,197.05,231.79,195.27,239.82,188.57z"/>
			<ellipse class="st9" cx="407.94" cy="225.54" rx="22.91" ry="29.53"/>
			<path d="M428.17,232.76c0,6.16-5,11.16-11.16,11.16c-6.16,0-11.16-5-11.16-11.16c0-6.16,5-11.16,11.16-11.16
				C423.17,221.6,428.17,226.59,428.17,232.76z"/>
			<path class="st9" d="M301.22,236.7c0,16.31-10.25,29.53-22.91,29.53c-12.65,0-22.91-13.22-22.91-29.53
				c0-16.31,10.26-29.53,22.91-29.53C290.96,207.18,301.22,220.4,301.22,236.7z"/>
			<path d="M298.54,243.91c0,6.16-5,11.16-11.16,11.16c-6.17,0-11.16-5-11.16-11.16c0-6.16,4.99-11.16,11.16-11.16
				C293.55,232.76,298.54,237.75,298.54,243.91z"/>
			<path class="st9" d="M294.01,238.67c0,1.55-1.26,2.8-2.81,2.8s-2.81-1.25-2.81-2.8c0-1.55,1.25-2.81,2.81-2.81
				S294.01,237.12,294.01,238.67z"/>
			<path class="st9" d="M423.91,228.35c0,1.55-1.26,2.8-2.81,2.8c-1.55,0-2.81-1.25-2.81-2.8c0-1.55,1.25-2.81,2.81-2.81
				C422.65,225.54,423.91,226.8,423.91,228.35z"/>
			<path class="st9" d="M285.66,310c7.93,1.14,15.68,1.81,23.07,1.62c12.94-0.34,24.78-3.34,34.53-11.08
				c4.06,6.75,24.3,12.65,31.19-0.41c16.8,1.35,28.09,1.16,43.85,5.97c-38.29-1.05-77.93,11.11-98.64,33.18
				c-20.73,22.07-27.27,14.86-41.34,13.06C282.71,328.47,285.66,310,285.66,310z"/>
			<path class="st10" d="M430.85,52.89c-6.13-44.32-55.19-91.72-152.54-79.67c-98.83,12.24-104.21,78.2-98.08,122.52
				C231.12,75.65,306.55,36.15,430.85,52.89z"/>
			<path class="st11" d="M278.31-26.78c-98.83,12.24-104.21,78.2-98.08,122.52c40.78-10.84,57.37-8.07,73.04-2.54
				C247.29,30.5,248.03,21.5,278.31-26.78z"/>
			<path class="st10" d="M116,198.43c18.08-37.59,27.2-55.05,71.6-69.25c44.4-14.21,155.9-52.1,266.46-39.47
				c23.43,2.68,67.61,8.64,94.4,39.47C439.78,117.17,334.93,98.36,116,198.43z"/>
			<path d="M224.56,237.48c-1.84-19.35-0.1-37.66,2.31-51.14c10.46-8.96,69.97-48.66,84.53-39.72c7.41,15.63,38.11,31.43,52.04,3.12
				c20.04-12.96,60.25-22.31,85.25-19.19c10.27,24.1,24.03,42.82,12.38,79c16.19-13.84,28.74-49.26,1.49-88.9
				c-41.54-1.22-156.53-8.96-274.22,47.33c-3.88,17.91-17.93,24.47-4.69,38.4c10.33,10.28,20.68,21.73,28.83,32.75
				C222.42,247.49,225.82,250.68,224.56,237.48z"/>
			<path class="st12" d="M333.2,521.56c-46.62,84.24-70.05,128.96-174.3,128.96C54.66,650.51-29.85,558.05-29.85,444"/>
			<path class="st10" d="M192.47,270.69c-5.54,34.59,4.49,128.99,85.84,176.52c21.09-24.77,26.53-36.5,26.53-36.5
				c5.27,15.74,17.99,36.5,17.99,36.5c32.05-12.05,45.46-27.46,59.22-42.19c-43.87,8.88-78.63,20.09-119.47-20.75
				c-40.84-40.84-60.76-59.7-63.38-112.03C192.47,270.69,199.72,274.66,192.47,270.69z"/>
			<path class="st13" d="M180.24,95.73c-9.37,17.41-10.04,27.39,4.69,33.44c34.82-8.67,155.95-50.66,269.14-39.47
				c-2.68-17.4,1.28-34.18-23.21-36.82C406.36,50.25,313.77,29.34,180.24,95.73z"/>
			<path class="st14" d="M232.68,115.88c-21.35,5.78-37.97,10.86-47.76,13.3c-14.73-6.06-14.06-16.04-4.69-33.44
				c13.78-6.85,27.12-12.77,40-17.88c9.66-3.71,23.01-8.61,30.78-11.01c-0.58,17.5-3.07,27.11,2.32,43.63
				C235.7,115.06,238.21,115.14,232.68,115.88z"/>
			<path class="st10" d="M156.5,360.59c-7.79-32.35-34.91-53.58-60.59-47.4c-25.68,6.18-42.74,38.14-32.4,69.77
				c18.31,56,45.98,122.06,69.19,143.48c105.33,5.35,155.77,1.34,261.77-12.28c-7.3-28.48-19.41-56.91-19.41-56.91
				c-63.82,18.3-125.42-4.91-187.01,9.37C168.41,402.36,157.09,400.94,156.5,360.59z"/>
			<path class="st16" d="M388.45,255.07c5.8,9.37,12.72,20.08-11.23,20.83c1.16,57.32-40.99,31.94-46.68,2.4
				c-45.53,19.55-25.44-21.22-15.07-30.44c5.35-14.21,11.28-29.75,12.84-49.43c1.55-19.68,28.67-26.17,35.7,1.84
				C371.04,228.29,373.05,239.67,388.45,255.07z"/>
			<path class="st17" d="M377.22,276.48c23.95-0.75,17.03-11.46,11.23-20.83c-15.4-15.4-17.4-26.78-24.44-54.8
				C366.69,247.93,370.35,262.63,377.22,276.48z"/>
			<path class="st17" d="M328.31,198.43c-1.56,19.68-7.49,35.22-12.84,49.43c-10.38,9.22-30.46,50,15.07,30.44
				C330.2,249.85,328.31,198.43,328.31,198.43z"/>
			<path d="M331.28,277.28c-3.71-6.18-10.93-20.07-19.87-5.45C315.33,282.12,314.57,282.99,331.28,277.28z"/>
			<path d="M378.65,272.04c1.82-4.59,5.17-14.8,12.78-5.87C389.91,273.57,390.52,274.09,378.65,272.04z"/>
			<polygon class="st20" points="306.99,350.38 306.1,350.97 305.93,312.05 306.99,312.12 			"/>
			<polygon class="st20" points="327.41,332 326.58,332.67 326.35,309.4 327.41,309.07 			"/>
			<polygon class="st20" points="346.1,320.57 345.27,321.1 345.06,303.32 346.1,304.39 			"/>
			<polygon class="st20" points="367.17,312.7 366.33,312.97 366.12,295.19 367.17,296.27 			"/>
			<polygon class="st20" points="383.63,309.02 382.79,309.07 382.58,301.28 383.63,301.35 			"/>
			<path class="st16" d="M377.22,276c1.16,57.32-40.99,31.94-46.68,2.4"/>
			<path class="st11" d="M253.34,110.48c-19.05,5.17-107.77,15.83-126.75,66.85c-5.8,11.27-10.58,21.11-10.58,21.11
				c38.44-16.85,118.29-51.23,146.43-58.36C258.73,124.23,252.78,119.54,253.34,110.48z"/>
			<path class="st17" d="M189.22,221.6c-10.47-7.71-27.77-5.63-13.82,17.07c13.95,22.7,20.41,22.9,24.09,21.88
				C203.19,259.52,189.22,221.6,189.22,221.6z"/>
			<path class="st21" d="M493.53,366.13c-42.12,36.29-75.68,66.39-74.95,67.22c0.72,0.84,35.45-27.91,77.56-64.2
				c42.11-36.29,75.67-66.38,74.95-67.22C570.37,301.1,535.65,329.84,493.53,366.13z"/>
			<path class="st8" d="M375.06,457.26c13.39,31.46,12.72,26.11,19.41,56.91c34.14-10.71,60.25-3.35,76.99-28.45
				c7.37-8.37,10.04-17.41-2.34-20.09c1-10.38,7.03-21.09-10.04-21.43c1.34-7.7,3.01-15.06-10.71-13.73
				c-0.67-5.36-2.34-13.39-13.06-7.03c-10.71,6.36-12.05,8.7-12.05,8.7c3.01-13.05,6.36-54.23-28.12-7.03
				C376.73,456.59,383.43,447.21,375.06,457.26z"/>
			<path class="st7" d="M345.82,463.03c4.88,27.91,7.48,52.13,10.1,58.92c4.92,6.79,9.07,5.66,13.22,3.22
				c4.15-2.43,7.39-4.02,12.91-3.22c5.52,0.79,13.67,2.75,14.28-2.89c0.62-5.64-10.29-42.47-21.28-61.8
				c-10.99-19.33-8.68-5.04-11.91-2.28c-3.22,2.77-9.22,1.38-11.98,0.46C348.4,454.52,341.87,454.03,345.82,463.03z"/>
			<path class="st22" d="M-30.68,444.35c25.82,6.15,116.77,21.42,128.88,27.45c6.02,12.25,7.66,15.39,7.66,15.39
				c-47.12-7.92-110.47-21.44-135.04-25.74C-37.14,450.38-30.68,444.35-30.68,444.35z"/>
		</g>
	</g>
	<g>
		<defs>
			<rect id="SVGID_7_" x="520" width="500" height="500"/>
		</defs>
		<clipPath id="SVGID_6_">
			<use xlink:href="#SVGID_7_"  style="overflow:visible;"/>
		</clipPath>
		<g class="st30">
			<path class="st32" d="M944.54,190.72c11.85,39.04,30.35,76.36,53.03,100.86c22.68,24.49,56.58,24.28,61.1,52.29
				c7.36,45.6,2.84,77.5-100.97,74.43c-103.8-3.07-212.82-24.83-300.69,25.95c-81.85,47.3-178.65,15.95-157.66-56.25
				c8.72-29.99,79.54-61.96,80.2-109.41c0.66-47.45,40.42-96.89,113.1-80.47c72.68,16.42,156.24-32.9,175.61-41.79
				c19.37-8.88,64.85-14.95,75.1,31.39L944.54,190.72z"/>
			<path class="st33" d="M942.88,169.35c11.44,37.2,29.41,72.72,51.51,95.99c22.11,23.27,63.69,40.96,61.96,68.08
				c-1.74,27.12,0.12,55.48-101.53,52.99c-101.65-2.5-231.91-18.07-298.06,22.5c-66.16,40.57-194.36,19.97-150.69-49.49
				c16.22-25.79,71.89-59.79,72.73-105.07c0.84-45.28,46.26-92.26,117.37-76.9c71.11,15.36,153.16-32.04,172.16-40.6
				c19-8.56,63.56-14.53,73.41,29.63L942.88,169.35z"/>
			<path class="st36" d="M671.67,350.57c0.46-19.76,14.31-35.35,26.74-27.57c9.11,5.69,23.04,3.11,36.65-3.25
				c39.56-18.49,66.05-24.89,92.69-15.41c20.99,7.48,23.88-3.95,23.39-8.64c-0.49-4.69-120.2-12.11-78.28,4.59
				c41.92,16.71,20.62,8.15,20.39-13.08c-62.04,17.35-80.89,7.16-117.64,23.37c-36.75,16.2-158.52,4.59-176.98,4.27
				c16.96,53.01,30.99,73.31,38.31,64.06c7.31-9.25,13.56-7.69,20.08,0.43c24.55,30.59,33.98,2.21,33.94-5.48
				c-0.04-7.7,21.14-39.43,30.62-1.28c2.31,9.31,17.7,4.45,17.81-19.9C639.51,328.35,671.43,360.81,671.67,350.57z"/>
			<path class="st32" d="M926.8,79.36c11.52,37.97,29.53,74.28,51.58,98.1c22.06,23.82,55.04,23.62,59.44,50.87
				c7.16,44.35,2.76,75.38-98.21,72.39c-100.97-2.99-207.01-24.15-292.48,25.24c-79.62,46.01-173.78,15.51-153.35-54.71
				c8.48-29.17,77.36-60.26,78-106.42c0.65-46.16,39.32-94.25,110.02-78.28c70.69,15.97,151.98-32,170.81-40.65
				c18.84-8.64,63.07-14.54,73.05,30.53L926.8,79.36z"/>
			<path class="st33" d="M925.18,58.57c11.13,36.18,28.6,70.74,50.11,93.37c21.5,22.64,61.95,39.84,60.26,66.22
				c-1.69,26.38,0.12,53.97-98.75,51.54c-98.88-2.43-225.58-17.58-289.94,21.89c-64.35,39.46-189.05,19.43-146.57-48.13
				c15.78-25.09,69.92-58.16,70.75-102.2c0.82-44.04,45-89.74,114.17-74.8c69.17,14.94,148.97-31.17,167.46-39.49
				c18.48-8.32,61.83-14.13,71.41,28.82L925.18,58.57z"/>
		</g>
	</g>
</g>
</svg>
