<?xml version="1.0" encoding="utf-8"?>
<!-- Generator: Adobe Illustrator 23.0.1, SVG Export Plug-In . SVG Version: 6.00 Build 0)  -->
<svg version="1.1" id="Calque_1" xmlns="http://www.w3.org/2000/svg" xmlns:xlink="http://www.w3.org/1999/xlink" x="0px" y="0px"
	 viewBox="0 0 100 100" style="enable-background:new 0 0 100 100;" xml:space="preserve">
<style type="text/css">
	.st0{fill:#FF7BAC;}
	.st1{clip-path:url(#SVGID_2_);}
	.st2{fill:#ADA3A4;}
	.st3{fill:#221E1F;}
	.st4{fill:#F1AA89;}
	.st5{fill:#6B230C;}
	.st6{fill:#FFFFFF;}
	.st7{fill:#12110B;}
	.st8{fill:#422B20;}
	.st9{fill:#423C3D;}
	.st10{fill:#F3BDA4;}
	.st11{fill:#BB7F63;}
	.st12{fill:#F2F1F2;}
	.st13{fill:#4D372C;}
	.st14{fill:#241C17;}
	.st15{fill:#985F53;}
	.st16{fill:#7B453F;}
	.st17{opacity:0.4;fill:#6B230C;enable-background:new    ;}
	.st18{fill:#CE9641;}
	.st19{fill:#1B1717;}
</style>
<g>
	<rect class="st0" width="100" height="100"/>
</g>
<g>
	<g>
		<g>
			<defs>
				<rect id="SVGID_1_" width="100" height="100"/>
			</defs>
			<clipPath id="SVGID_2_">
				<use xlink:href="#SVGID_1_"  style="overflow:visible;"/>
			</clipPath>
			<g class="st1">
				<path class="st2" d="M88.56,68.28c-8.25,7.5-14.31,14.27-13.54,15.12c9.65-8.21,10.18-4.07,18.43-11.58
					c8.25-7.51,12.21-14.76,11.44-15.6C104.11,55.38,96.8,60.77,88.56,68.28z"/>
				<path class="st2" d="M100.96,64.37c-0.36,0.51-1.01,0.68-1.46,0.37c-0.44-0.31-0.5-0.98-0.14-1.49s1.01-0.68,1.46-0.37
					C101.27,63.18,101.32,63.85,100.96,64.37z"/>
				<path class="st2" d="M99.75,66.11c-0.42,0.47-1.09,0.56-1.49,0.19c-0.4-0.36-0.38-1.03,0.04-1.5c0.42-0.47,1.09-0.56,1.49-0.19
					C100.19,64.97,100.18,65.65,99.75,66.11z"/>
				<path class="st2" d="M98.66,67.45c-0.42,0.47-1.09,0.56-1.49,0.19c-0.4-0.36-0.38-1.03,0.04-1.5c0.42-0.47,1.09-0.56,1.49-0.19
					C99.09,66.31,99.08,66.98,98.66,67.45z"/>
				<path class="st2" d="M97.28,68.64c-0.42,0.47-1.09,0.56-1.49,0.19c-0.4-0.36-0.38-1.03,0.04-1.5c0.42-0.47,1.09-0.56,1.49-0.19
					C97.72,67.5,97.7,68.18,97.28,68.64z"/>
				<path class="st2" d="M96.06,70.08c-0.42,0.47-1.09,0.56-1.49,0.19c-0.4-0.36-0.38-1.03,0.04-1.5c0.42-0.47,1.09-0.56,1.49-0.19
					C96.5,68.94,96.48,69.61,96.06,70.08z"/>
				<path class="st2" d="M94.67,71.29c-0.42,0.47-1.09,0.56-1.49,0.19s-0.38-1.03,0.04-1.5c0.42-0.47,1.09-0.56,1.49-0.19
					C95.12,70.15,95.1,70.82,94.67,71.29z"/>
				<path class="st2" d="M93.28,72.54c-0.42,0.47-1.09,0.56-1.49,0.19s-0.38-1.03,0.04-1.5c0.42-0.47,1.09-0.56,1.49-0.19
					S93.71,72.07,93.28,72.54z"/>
				<path class="st2" d="M91.87,73.88c-0.42,0.47-1.09,0.56-1.49,0.19c-0.4-0.36-0.38-1.03,0.04-1.5c0.42-0.47,1.09-0.56,1.49-0.19
					C92.31,72.74,92.29,73.41,91.87,73.88z"/>
				<path class="st2" d="M90.55,74.86c-0.42,0.47-1.09,0.56-1.49,0.19s-0.38-1.03,0.04-1.5c0.42-0.47,1.09-0.56,1.49-0.19
					C90.99,73.72,90.97,74.39,90.55,74.86z"/>
				<path class="st2" d="M88.76,76.11c-0.5,0.39-1.17,0.36-1.5-0.08c-0.33-0.43-0.19-1.08,0.31-1.47c0.5-0.39,1.17-0.36,1.5,0.07
					C89.39,75.08,89.26,75.73,88.76,76.11z"/>
				<path class="st3" d="M64.13,82.63c0-22.32-15.87-40.41-35.45-40.41c-0.23,0-0.44,0-0.67,0.01C8.74,42.64-8.72,60.66-6.77,82.63
					c0.38,4.28,0.88,5.76,0.88,5.76c6.23,3.28,14.11,5.25,24.93,5.57c10.83,0.33,21.37,5.16,40.92,2.79
					C63.8,86.26,64.74,90.16,64.13,82.63z"/>
				<path class="st4" d="M81.27,25.49c2.54,5.09,5.41,10.17,0,20.01c1.89,10.33,5.41,20.58-11.48,30.01
					c-3.53,2.54-18.37,4.1-23.04-3.94c-7.14-6.97-11.64-13.2-11.23-20.05c-4.02-0.04-13.45-11.44-2.46-12.01
					c3.86,4.34,8.53,12.38,6.72,1.73c0.66-4.59,0.82-5.49,0.82-5.49c1.23-1.56,11.63-8.69,15.53-7.3c0.95,2.46,7.1,5.66,9.56,0.57
					C69.71,26.56,70.36,24.51,81.27,25.49z"/>
				<path class="st5" d="M67.82,37.47c1.15-2.05,4.26-5.17,7.46-4.84c3.2,0.33,5,1.07,5,1.07c-0.24,0.66-0.24,0.66-0.24,0.66
					c-2.95-0.16-7.54,0.08-10.5,3.12C68.23,38.04,67.41,39.02,67.82,37.47z"/>
				<path class="st5" d="M42.98,36.16c2.62,0.41,6.71-1.02,10.09,2.87c1.07,1.23,0.25,2.54-1.97,0.33
					c-1.47-1.07-5.99-1.64-7.79-1.64C41.49,37.71,41.49,37.39,42.98,36.16z"/>
				<path class="st6" d="M78.57,39.69c0,1.4-1.88,2.54-4.21,2.54c-2.32,0-4.21-1.14-4.21-2.54c0-1.4,1.89-2.54,4.21-2.54
					C76.69,37.15,78.57,38.29,78.57,39.69z"/>
				<circle class="st7" cx="75.52" cy="39.94" r="2.05"/>
				<path class="st6" d="M53.68,43.53c-0.47,1.65-2.91,2.4-5.45,1.68c-2.54-0.72-4.23-2.64-3.76-4.29s2.91-2.4,5.46-1.68
					C52.46,39.96,54.15,41.88,53.68,43.53z"/>
				<path class="st7" d="M53.26,42.96c-0.35,1.24-1.64,1.96-2.88,1.61c-1.24-0.35-1.96-1.64-1.61-2.88
					c0.35-1.24,1.64-1.96,2.88-1.61C52.89,40.42,53.61,41.72,53.26,42.96z"/>
				<path class="st6" d="M52.65,41.64c-0.09,0.31-0.41,0.49-0.73,0.41s-0.49-0.41-0.41-0.73s0.41-0.49,0.73-0.41
					S52.74,41.33,52.65,41.64z"/>
				<path class="st6" d="M76.79,39.14c0,0.29-0.23,0.51-0.52,0.51s-0.52-0.23-0.52-0.51c0-0.29,0.23-0.52,0.52-0.52
					C76.56,38.62,76.79,38.85,76.79,39.14z"/>
				<path class="st5" d="M40.17,45.14c-0.34-3.56-0.02-6.92,0.43-9.39c1.92-1.64,23.89,0.41,26.46-4.79
					c3.68-2.38,11.52-2.76,14.3-5.46c1.89,4.43,4.41,7.87,2.27,14.51c2.97-2.54,5.28-9.05,0.28-16.33
					c-7.63-0.23-32.88-9.88-50.38,8.69c-0.71,3.29-3.29,4.49-0.86,7.06c1.9,1.89,3.8,3.99,5.29,6.02
					C39.78,46.98,40.4,47.57,40.17,45.14z"/>
				<path class="st8" d="M60.13,97.34c-8.56,15.47-12.87,23.69-32.03,23.69c-19.15,0-34.68-16.99-34.68-37.94"/>
				<path class="st6" d="M34.28,51.24c-1.02,6.36,0.82,23.7,15.78,32.43c3.87-4.55,4.88-6.71,4.88-6.71
					c0.97,2.89,3.31,6.71,3.31,6.71c5.89-2.21,8.36-5.04,10.88-7.75c-8.06,1.63-14.44,3.69-21.95-3.81
					C40.47,64.12,36,61.14,35.52,51.53C34.28,51.24,35.61,51.98,34.28,51.24z"/>
				<path class="st9" d="M27.66,67.76c-1.43-5.94-6.41-9.84-11.13-8.71c-4.72,1.14-7.85,7.01-5.95,12.82
					c3.36,10.29,8.45,22.43,12.71,26.36c19.35,0.98,28.62,0.24,48.09-2.26c-1.34-5.23-3.57-10.46-3.57-10.46
					c-11.72,3.36-23.04-0.9-34.36,1.72C29.85,75.44,27.77,75.18,27.66,67.76z"/>
				<path class="st10" d="M69.29,48.79c0.89,1.16,1.96,2.49-1.73,2.59c-2.36,5.34-3.58,9.33-7.17,0.3
					c-6.99,2.42-3.91-2.63-2.31-3.78c0.83-1.76,1.73-3.69,1.98-6.14c0.24-2.44,4.41-3.25,5.49,0.23
					C66.62,45.47,66.93,46.88,69.29,48.79z"/>
				<path class="st11" d="M67.57,51.45c3.68-0.09,2.62-1.42,1.73-2.59c-2.37-1.91-2.68-3.33-3.76-6.8
					C65.95,47.91,66.51,49.73,67.57,51.45z"/>
				<path class="st11" d="M60.05,41.76c-0.24,2.44-1.15,4.37-1.98,6.14c-1.59,1.14-4.68,6.21,2.31,3.78
					C60.34,48.14,60.05,41.76,60.05,41.76z"/>
				<path class="st7" d="M60.51,51.55c-0.57-0.77-1.68-2.49-3.05-0.68C58.06,52.15,57.94,52.26,60.51,51.55z"/>
				<path class="st7" d="M67.79,50.9c0.28-0.57,0.79-1.84,1.96-0.73C69.52,51.09,69.61,51.16,67.79,50.9z"/>
				<path class="st11" d="M33.67,42.22c-1.92-1.42-5.1-1.04-2.54,3.14c2.56,4.17,3.75,4.21,4.42,4.02
					C36.24,49.19,33.67,42.22,33.67,42.22z"/>
				<path class="st12" d="M89.59,68.78c-7.74,6.67-13.91,12.2-13.77,12.35c0.13,0.16,6.51-5.13,14.25-11.79
					c7.74-6.67,13.9-12.19,13.77-12.35C103.71,56.83,97.32,62.11,89.59,68.78z"/>
				<path class="st4" d="M67.82,85.52c2.46,5.78,2.34,4.79,3.57,10.46c6.28-1.97,11.07-0.61,14.14-5.22
					c1.36-1.54,1.84-3.2-0.43-3.69c0.18-1.91,1.29-3.88-1.84-3.94c0.24-1.41,0.55-2.77-1.97-2.52c-0.13-0.98-0.43-2.46-2.4-1.29
					c-1.97,1.17-2.21,1.6-2.21,1.6c0.55-2.4,1.17-9.96-5.17-1.29C68.13,85.4,69.36,83.68,67.82,85.52z"/>
				<path class="st13" d="M24.26,106.82c0,4.87-3.78,8.82-8.45,8.82s-8.45-3.95-8.45-8.82c0-4.87,3.78-8.82,8.45-8.82
					S24.26,101.95,24.26,106.82z"/>
				<path class="st3" d="M62.45,86.58c0.89,5.12,1.38,9.57,1.86,10.82c0.91,1.24,1.67,1.04,2.43,0.59c0.76-0.44,1.36-0.74,2.38-0.59
					c1.01,0.14,2.51,0.51,2.63-0.53c0.11-1.04-1.89-7.8-3.91-11.36c-2.02-3.55-1.59-0.93-2.19-0.42c-0.59,0.51-1.69,0.26-2.2,0.09
					C62.92,85.02,61.72,84.93,62.45,86.58z"/>
				<path class="st14" d="M-6.73,83.15c4.74,1.13,21.46,3.94,23.68,5.04c1.11,2.25,1.41,2.83,1.41,2.83
					c-8.66-1.46-20.29-3.94-24.81-4.73C-7.91,84.26-6.73,83.15-6.73,83.15z"/>
				<path class="st15" d="M51.02,56.03c6.67,2.35,8.93-1.16,11.84,2.41c1.52-0.57,3.19-1,5.37-1.01c2.17,0,4.87,0.66,5.77-0.7
					c0.91-1.36,0.32,0.89-1.01,2.67C71.64,61.17,63.07,71.67,51.02,56.03z"/>
				<path class="st10" d="M67.57,51.39c-1.63,2.47-6.3,3.96-7.17,0.3"/>
				<path class="st16" d="M49.83,54.62c6.67,4.53,19.92,9.33,24.54,1.69C73.65,60.93,63.45,73.23,49.83,54.62z"/>
				<circle class="st17" cx="44.48" cy="47.55" r="0.5"/>
				<path class="st17" d="M49.58,49.44c0,0.28-0.23,0.5-0.5,0.5s-0.5-0.22-0.5-0.5s0.22-0.5,0.5-0.5
					C49.35,48.94,49.58,49.16,49.58,49.44z"/>
				<path class="st17" d="M47.13,51.99c0,0.28-0.22,0.5-0.5,0.5s-0.5-0.23-0.5-0.5s0.23-0.5,0.5-0.5S47.13,51.71,47.13,51.99z"/>
				<path class="st17" d="M54.76,47.55c0,0.28-0.22,0.5-0.5,0.5s-0.5-0.22-0.5-0.5s0.22-0.5,0.5-0.5
					C54.53,47.04,54.76,47.27,54.76,47.55z"/>
				<path class="st17" d="M53.85,52.49c0,0.28-0.23,0.5-0.5,0.5s-0.5-0.22-0.5-0.5s0.22-0.5,0.5-0.5S53.85,52.21,53.85,52.49z"/>
				<path class="st17" d="M72.3,45.16c0,0.28-0.23,0.5-0.5,0.5s-0.5-0.22-0.5-0.5s0.22-0.5,0.5-0.5S72.3,44.88,72.3,45.16z"/>
				<path class="st17" d="M75.44,49.73c0,0.28-0.22,0.5-0.5,0.5s-0.5-0.22-0.5-0.5s0.22-0.5,0.5-0.5S75.44,49.46,75.44,49.73z"/>
				<path class="st17" d="M76.78,46.16c0,0.28-0.22,0.5-0.5,0.5s-0.5-0.22-0.5-0.5s0.23-0.5,0.5-0.5
					C76.56,45.66,76.78,45.88,76.78,46.16z"/>
				<path class="st17" d="M79.57,50.38c0,0.28-0.22,0.5-0.5,0.5s-0.5-0.23-0.5-0.5s0.22-0.5,0.5-0.5S79.57,50.11,79.57,50.38z"/>
				<path class="st17" d="M80.07,44.15c0,0.28-0.22,0.5-0.5,0.5s-0.5-0.22-0.5-0.5s0.22-0.5,0.5-0.5S80.07,43.88,80.07,44.15z"/>
				<path class="st17" d="M72.8,51.39c0,0.28-0.22,0.5-0.5,0.5s-0.5-0.22-0.5-0.5s0.23-0.5,0.5-0.5
					C72.58,50.89,72.8,51.11,72.8,51.39z"/>
				<path class="st9" d="M37.59,39.14c0.82-7.38,1.13-10.38,6.6-12.13c6.98-2.23,32.63-5.06,38.82,5.56c1.75,3,4.59-0.41,2.26,4.59
					c5.83,1.5,8.57,0.1,12.99-3.27c4.43-3.38,3.59-3.77,6.91-6.87c-3.14-4.07-10.05-9.06-13.89-14.06
					c-3.85-10.88-39.17-24.49-56.88-2.25c-1.98,3.63-3.83,6.77-10.84,10.07c-1.98,0.93-4.77,1.98-3.84,7.36
					C21.83,30.87,28.04,38.76,37.59,39.14z"/>
				<path class="st18" d="M36.32,36.16c0.82-6.96,2.23-9.56,7.73-11.21s31.57-8.48,38.08,2.01c1.76,2.83,7.66,2.21,5.31,6.93
					c5.86,1.42,6.52,1.46,10.97-1.73c4.45-3.19,8.81-6.13,6-10.44c-3.16-3.85-10.1-8.56-13.97-13.28
					C86.58-1.85,51.08-14.72,33.27,6.29c-1.99,3.42-3.84,6.39-10.89,9.51c-1.99,0.88-7.73,4.66-6.79,9.73
					C17.69,28.13,26.71,35.8,36.32,36.16z"/>
				<path class="st19" d="M36.77,40.55c0.82-7.38,1.28-13.56,6.76-15.31c5.48-1.75,32.35-5.54,38.82,5.56
					c1.75,3,3.49,4.13,1.16,9.13c5.83,1.5,10.61-0.25,15.04-3.63c4.43-3.38,8.77-6.49,5.97-11.06c-3.14-4.08-10.05-9.06-13.89-14.06
					C86.77,0.31,51.45-13.31,33.74,8.93C31.76,12.56,29.91,15.7,22.9,19c-1.98,0.93-7.69,4.93-6.76,10.31
					C18.24,32.05,27.21,40.17,36.77,40.55z"/>
				<path class="st3" d="M72.25-1.26c-0.52,5.81-1.41,18.05,2.72,20.07c4.12,2.02,17.24,12.44,17.53,20.84
					c5.77-1.62,11.8-7.36,12.81-10.7c-0.12-3.19-0.11-3.71-7.38-9.87c-5.79-4.91-7.98-9.01-8.92-10.67
					C88.09,6.74,82.54,1.67,72.25-1.26z"/>
				<path class="st9" d="M23.65,18.64c2.78,4.55,4.64,10.62,9.47,8.02s4.56-6.55,1.63-18.92C32.55,11.2,28.14,16.91,23.65,18.64z"/>
			</g>
		</g>
	</g>
</g>
</svg>
