<?xml version="1.0" encoding="utf-8"?>
<!-- Generator: Adobe Illustrator 23.0.1, SVG Export Plug-In . SVG Version: 6.00 Build 0)  -->
<svg version="1.1" id="Calque_1" xmlns="http://www.w3.org/2000/svg" xmlns:xlink="http://www.w3.org/1999/xlink" x="0px" y="0px"
	 viewBox="0 0 100 100" style="enable-background:new 0 0 100 100;" xml:space="preserve">
<style type="text/css">
	.st0{fill:#39B54A;}
	.st1{clip-path:url(#SVGID_2_);}
	.st2{fill:#A49DA0;}
	.st3{fill:#693A28;}
	.st4{fill:#65493E;}
	.st5{fill:#F1A586;}
	.st6{fill:#FFFFFF;}
	.st7{fill:#876153;}
	.st8{fill:#9F8175;}
	.st9{fill:#3B261E;}
	.st10{fill:#C3B0A9;}
	.st11{fill:#E7DFDD;}
	.st12{fill:#F4B79E;}
	.st13{fill:#B57C65;}
	.st14{fill:#000200;stroke:#030504;stroke-width:0.2678;stroke-miterlimit:10;}
	.st15{fill:#EDEBEC;}
	.st16{fill:#19120F;}
</style>
<g>
	<rect class="st0" width="100" height="100"/>
	<g>
		<g>
			<defs>
				<rect id="SVGID_1_" width="100" height="100"/>
			</defs>
			<clipPath id="SVGID_2_">
				<use xlink:href="#SVGID_1_"  style="overflow:visible;"/>
			</clipPath>
			<g class="st1">
				<path class="st2" d="M97.58,72.68C88.6,80.85,82,88.22,82.84,89.14c10.51-8.93,11.08-4.43,20.06-12.6
					c8.98-8.17,13.3-16.06,12.46-16.98C114.52,58.64,106.56,64.51,97.58,72.68z"/>
				<path class="st2" d="M101.19,78.77c-0.46,0.51-1.19,0.6-1.62,0.21c-0.44-0.39-0.41-1.12,0.05-1.63c0.46-0.51,1.18-0.6,1.62-0.21
					C101.67,77.53,101.65,78.26,101.19,78.77z"/>
				<path class="st2" d="M99.75,79.84c-0.46,0.51-1.19,0.6-1.62,0.21c-0.43-0.39-0.41-1.12,0.05-1.63c0.46-0.51,1.18-0.6,1.62-0.21
					C100.23,78.6,100.21,79.33,99.75,79.84z"/>
				<path class="st2" d="M97.8,81.21c-0.54,0.42-1.27,0.39-1.63-0.08c-0.36-0.46-0.21-1.18,0.34-1.6c0.54-0.42,1.27-0.39,1.63,0.08
					C98.5,80.08,98.35,80.79,97.8,81.21z"/>
				<path class="st3" d="M46.93,35.83c0.33,2.07-4.71,4.59-11.26,5.63c-6.55,1.04-12.12,0.21-12.45-1.86
					c2.05-2.65,4.71-4.59,11.26-5.63C41.03,32.92,46.6,33.76,46.93,35.83z"/>
				<path class="st3" d="M109.36,25.97c0.33,2.07-4.71,4.59-11.26,5.63c-6.55,1.04-12.12,0.21-12.45-1.86
					c-0.33-2.07,2.97-5.67,9.52-6.71C101.72,21.99,109.04,23.9,109.36,25.97z"/>
				<path class="st4" d="M70.99,88.31c0-24.29-17.28-43.99-38.59-43.99c-0.24,0-0.49,0-0.73,0.01C10.7,44.77-8.31,64.38-6.19,88.31
					c0.41,4.66,0.95,6.27,0.95,6.27c6.78,3.57,15.35,5.71,27.14,6.07c11.78,0.36,23.26,5.61,44.54,3.04
					C70.64,92.25,71.67,96.51,70.99,88.31z"/>
				<path class="st5" d="M89.65,26.11c2.77,5.53,5.89,11.07,0,21.78c2.05,11.25,5.89,22.41-12.5,32.67
					c-3.84,2.77-20,4.46-25.08-4.29C44.3,68.69,39.39,61.9,39.84,54.45C35.47,54.41,25.2,42,37.16,41.37
					c4.2,4.73,9.28,13.48,7.32,1.87c0.71-5,0.89-5.98,0.89-5.98c1.34-1.7,12.66-9.46,16.91-7.94c1.04,2.68,7.73,6.16,10.41,0.62
					C77.06,27.27,77.78,25.04,89.65,26.11z"/>
				<path d="M75.01,39.14c1.25-2.23,4.64-5.62,8.12-5.27c3.48,0.36,5.45,1.16,5.45,1.16c-0.27,0.71-0.27,0.71-0.27,0.71
					c-3.21-0.18-8.21,0.09-11.43,3.39C75.46,39.77,74.57,40.84,75.01,39.14z"/>
				<path d="M47.96,37.71c2.86,0.45,7.31-1.11,10.98,3.12c1.16,1.34,0.27,2.77-2.14,0.36c-1.61-1.16-6.52-1.79-8.48-1.79
					C46.36,39.41,46.36,39.05,47.96,37.71z"/>
				<ellipse class="st6" cx="81.59" cy="45.11" rx="4.58" ry="5.91"/>
				<path d="M85.63,46.55c0,1.23-1,2.23-2.23,2.23s-2.23-1-2.23-2.23c0-1.23,1-2.23,2.23-2.23S85.63,45.32,85.63,46.55z"/>
				<path class="st6" d="M60.24,47.34c0,3.26-2.05,5.91-4.58,5.91c-2.53,0-4.58-2.64-4.58-5.91c0-3.26,2.05-5.91,4.58-5.91
					C58.19,41.44,60.24,44.08,60.24,47.34z"/>
				<path d="M59.71,48.78c0,1.23-1,2.23-2.23,2.23c-1.23,0-2.23-1-2.23-2.23c0-1.23,1-2.23,2.23-2.23
					C58.71,46.55,59.71,47.55,59.71,48.78z"/>
				<path class="st6" d="M58.8,47.73c0,0.31-0.25,0.56-0.56,0.56s-0.56-0.25-0.56-0.56c0-0.31,0.25-0.56,0.56-0.56
					S58.8,47.42,58.8,47.73z"/>
				<path class="st6" d="M84.78,45.67c0,0.31-0.25,0.56-0.56,0.56s-0.56-0.25-0.56-0.56s0.25-0.56,0.56-0.56
					C84.53,45.11,84.78,45.36,84.78,45.67z"/>
				<path class="st6" d="M57.13,62c1.59,0.23,3.14,0.36,4.61,0.32c2.59-0.07,4.96-0.67,6.91-2.22c0.81,1.35,4.86,2.53,6.24-0.08
					c3.36,0.27,5.62,0.23,8.77,1.19c-7.66-0.21-15.59,2.22-19.73,6.64c-4.15,4.41-5.45,2.97-8.27,2.61
					C56.54,65.69,57.13,62,57.13,62z"/>
				<path class="st7" d="M86.17,10.58C84.94,1.71,75.13-7.77,55.66-5.36C35.9-2.91,34.82,10.28,36.05,19.15
					C46.22,15.13,61.31,7.23,86.17,10.58z"/>
				<path class="st8" d="M55.66-5.36C35.9-2.91,34.82,10.28,36.05,19.15c8.16-2.17,11.47-1.61,14.61-0.51
					C49.46,6.1,49.61,4.3,55.66-5.36z"/>
				<path class="st7" d="M23.2,39.69c3.62-7.52,5.44-11.01,14.32-13.85c8.88-2.84,31.18-10.42,53.29-7.89
					c4.69,0.54,13.52,1.73,18.88,7.89C87.96,23.43,66.99,19.67,23.2,39.69z"/>
				<path d="M44.91,47.5c-0.37-3.87-0.02-7.53,0.46-10.23c2.09-1.79,13.99-9.73,16.91-7.94c1.48,3.13,7.62,6.29,10.41,0.62
					c4.01-2.59,12.05-4.46,17.05-3.84c2.05,4.82,4.81,8.56,2.48,15.8c3.24-2.77,5.75-9.85,0.3-17.78
					c-8.31-0.24-31.31-1.79-54.84,9.47c-0.78,3.58-3.59,4.89-0.94,7.68c2.07,2.06,4.14,4.35,5.77,6.55
					C44.48,49.5,45.16,50.14,44.91,47.5z"/>
				<path class="st9" d="M66.64,104.31c-9.32,16.85-14.01,25.79-34.86,25.79c-20.85,0-37.75-18.49-37.75-41.3"/>
				<path class="st7" d="M38.49,54.14c-1.11,6.92,0.9,25.8,17.17,35.3c4.22-4.95,5.31-7.3,5.31-7.3c1.05,3.15,3.6,7.3,3.6,7.3
					c6.41-2.41,9.09-5.49,11.84-8.44c-8.77,1.78-15.73,4.02-23.89-4.15S40.36,64.91,39.84,54.45
					C38.49,54.14,39.94,54.93,38.49,54.14z"/>
				<path class="st10" d="M36.05,19.15c-1.87,3.48-2.01,5.48,0.94,6.69c6.96-1.73,31.19-10.13,53.83-7.89
					c-0.54-3.48,0.26-6.84-4.64-7.36C81.27,10.05,62.75,5.87,36.05,19.15z"/>
				<path class="st11" d="M46.54,23.18c-4.27,1.16-7.59,2.17-9.55,2.66c-2.95-1.21-2.81-3.21-0.94-6.69c2.76-1.37,5.42-2.55,8-3.58
					c1.93-0.74,4.6-1.72,6.16-2.2c-0.12,3.5-0.61,5.42,0.46,8.73C47.14,23.01,47.64,23.03,46.54,23.18z"/>
				<path class="st7" d="M31.3,72.12c-1.56-6.47-6.98-10.72-12.12-9.48s-8.55,7.63-6.48,13.95c3.66,11.2,9.2,24.41,13.84,28.7
					c21.07,1.07,31.15,0.27,52.35-2.46c-1.46-5.7-3.88-11.38-3.88-11.38c-12.76,3.66-25.08-0.98-37.4,1.87
					C33.68,80.47,31.42,80.19,31.3,72.12z"/>
				<path class="st12" d="M77.69,51.01c1.16,1.87,2.54,4.02-2.25,4.17c0.23,11.46-8.2,6.39-9.34,0.48
					c-9.11,3.91-5.09-4.24-3.01-6.09c1.07-2.84,2.26-5.95,2.57-9.89c0.31-3.94,5.73-5.23,7.14,0.37
					C74.21,45.66,74.61,47.93,77.69,51.01z"/>
				<path class="st13" d="M75.44,55.3c4.79-0.15,3.41-2.29,2.25-4.17c-3.08-3.08-3.48-5.36-4.89-10.96
					C73.34,49.59,74.07,52.53,75.44,55.3z"/>
				<path class="st13" d="M65.66,39.69c-0.31,3.94-1.5,7.04-2.57,9.89c-2.08,1.84-6.09,10,3.01,6.09
					C66.04,49.97,65.66,39.69,65.66,39.69z"/>
				<path d="M66.26,55.46c-0.74-1.24-2.19-4.01-3.97-1.09C63.07,56.42,62.91,56.6,66.26,55.46z"/>
				<path d="M75.73,54.41c0.36-0.92,1.03-2.96,2.56-1.17C77.98,54.71,78.1,54.82,75.73,54.41z"/>
				<polygon class="st14" points="61.4,70.08 61.22,70.19 61.19,62.41 61.4,62.42 				"/>
				<polygon class="st14" points="65.48,66.4 65.32,66.53 65.27,61.88 65.48,61.81 				"/>
				<polygon class="st14" points="69.22,64.11 69.05,64.22 69.01,60.66 69.22,60.88 				"/>
				<polygon class="st14" points="73.43,62.54 73.27,62.59 73.22,59.04 73.43,59.25 				"/>
				<polygon class="st14" points="76.73,61.8 76.56,61.81 76.52,60.26 76.73,60.27 				"/>
				<path class="st12" d="M75.44,55.2c0.23,11.46-8.2,6.39-9.34,0.48"/>
				<path class="st8" d="M50.67,22.1c-3.81,1.03-21.55,3.17-25.35,13.37c-1.16,2.25-2.12,4.22-2.12,4.22
					c7.69-3.37,23.66-10.25,29.29-11.67C51.75,24.85,50.56,23.91,50.67,22.1z"/>
				<path class="st13" d="M37.84,44.32c-2.09-1.54-5.55-1.13-2.76,3.41c2.79,4.54,4.08,4.58,4.82,4.38
					C40.64,51.9,37.84,44.32,37.84,44.32z"/>
				<path class="st15" d="M98.71,73.23c-8.42,7.26-15.14,13.28-14.99,13.44c0.14,0.17,7.09-5.58,15.51-12.84
					s15.13-13.28,14.99-13.44C114.07,60.22,107.13,65.97,98.71,73.23z"/>
				<path class="st5" d="M75.01,91.45c2.68,6.29,2.54,5.22,3.88,11.38c6.83-2.14,12.05-0.67,15.4-5.69
					c1.47-1.67,2.01-3.48-0.47-4.02c0.2-2.08,1.41-4.22-2.01-4.29c0.27-1.54,0.6-3.01-2.14-2.75c-0.13-1.07-0.47-2.68-2.61-1.41
					c-2.14,1.27-2.41,1.74-2.41,1.74c0.6-2.61,1.27-10.85-5.62-1.41C75.35,91.32,76.69,89.44,75.01,91.45z"/>
				<path class="st4" d="M69.16,92.61c0.98,5.58,1.5,10.43,2.02,11.78c0.98,1.36,1.81,1.13,2.64,0.64c0.83-0.49,1.48-0.8,2.58-0.64
					c1.1,0.16,2.73,0.55,2.86-0.58c0.12-1.13-2.06-8.49-4.26-12.36s-1.74-1.01-2.38-0.46c-0.64,0.55-1.84,0.28-2.4,0.09
					C69.68,90.9,68.37,90.81,69.16,92.61z"/>
				<path class="st16" d="M-6.14,88.87c5.16,1.23,23.35,4.28,25.78,5.49c1.2,2.45,1.53,3.08,1.53,3.08
					c-9.42-1.58-22.09-4.29-27.01-5.15C-7.43,90.08-6.14,88.87-6.14,88.87z"/>
			</g>
		</g>
	</g>
</g>
</svg>
